<svg width="36" height="40" viewBox="0 0 36 40" fill="none" xmlns="http://www.w3.org/2000/svg">
<path d="M27.8391 13.1592H8.16C6.97343 13.1592 6.01074 14.1478 6.01074 15.341V25.8751C6.01074 27.0796 6.97343 28.0569 8.16 28.0569H27.8391C29.0145 28.0569 29.9884 27.0796 29.9884 25.8751V15.341C29.9884 14.1478 29.0145 13.1592 27.8391 13.1592ZM28.3764 25.8751C28.3764 26.1705 28.1301 26.4205 27.8391 26.4205H8.16C7.86895 26.4205 7.62268 26.1705 7.62268 25.8751V15.341C7.62268 15.0455 7.86895 14.8069 8.16 14.8069H27.8391C28.1301 14.8069 28.3764 15.0455 28.3764 15.341V25.8751Z" fill="white"/>
<path d="M7.47761 3.18182C6.59328 3.18182 5.87687 3.90909 5.87687 4.80682C5.87687 5.70455 6.59328 6.43182 7.47761 6.43182C8.36194 6.43182 9.07836 5.70455 9.07836 4.80682C9.07836 3.90909 8.36194 3.18182 7.47761 3.18182ZM15.403 3.18182C14.5187 3.18182 13.8022 3.90909 13.8022 4.80682C13.8022 5.70455 14.5187 6.43182 15.403 6.43182C16.2873 6.43182 17.0037 5.70455 17.0037 4.80682C17.0037 3.90909 16.2873 3.18182 15.403 3.18182ZM19.7687 3.18182C18.8955 3.18182 18.1679 3.90909 18.1679 4.80682C18.1679 5.70455 18.8955 6.43182 19.7687 6.43182C20.653 6.43182 21.3694 5.70455 21.3694 4.80682C21.3694 3.90909 20.653 3.18182 19.7687 3.18182ZM24.1455 3.18182C23.2612 3.18182 22.5448 3.90909 22.5448 4.80682C22.5448 5.70455 23.2612 6.43182 24.1455 6.43182C25.0299 6.43182 25.7463 5.70455 25.7463 4.80682C25.7463 3.90909 25.0299 3.18182 24.1455 3.18182ZM28.5112 3.18182C27.6269 3.18182 26.9104 3.90909 26.9104 4.80682C26.9104 5.70455 27.6269 6.43182 28.5112 6.43182C29.3955 6.43182 30.1119 5.70455 30.1119 4.80682C30.1119 3.90909 29.3955 3.18182 28.5112 3.18182ZM28.5112 3.18182C27.6269 3.18182 26.9104 3.90909 26.9104 4.80682C26.9104 5.70455 27.6269 6.43182 28.5112 6.43182C29.3955 6.43182 30.1119 5.70455 30.1119 4.80682C30.1119 3.90909 29.3955 3.18182 28.5112 3.18182ZM24.1455 3.18182C23.2612 3.18182 22.5448 3.90909 22.5448 4.80682C22.5448 5.70455 23.2612 6.43182 24.1455 6.43182C25.0299 6.43182 25.7463 5.70455 25.7463 4.80682C25.7463 3.90909 25.0299 3.18182 24.1455 3.18182ZM19.7687 3.18182C18.8955 3.18182 18.1679 3.90909 18.1679 4.80682C18.1679 5.70455 18.8955 6.43182 19.7687 6.43182C20.653 6.43182 21.3694 5.70455 21.3694 4.80682C21.3694 3.90909 20.653 3.18182 19.7687 3.18182ZM15.403 3.18182C14.5187 3.18182 13.8022 3.90909 13.8022 4.80682C13.8022 5.70455 14.5187 6.43182 15.403 6.43182C16.2873 6.43182 17.0037 5.70455 17.0037 4.80682C17.0037 3.90909 16.2873 3.18182 15.403 3.18182ZM7.47761 3.18182C6.59328 3.18182 5.87687 3.90909 5.87687 4.80682C5.87687 5.70455 6.59328 6.43182 7.47761 6.43182C8.36194 6.43182 9.07836 5.70455 9.07836 4.80682C9.07836 3.90909 8.36194 3.18182 7.47761 3.18182ZM36 2.71591C36 1.60227 34.4216 0 33.3246 0H2.67537C1.57836 0 0 1.60227 0 2.71591V8.51136C0 8.55682 0 8.59091 0.011194 8.625C0 8.67045 0 8.70455 0 8.75V32.1591C0 32.1932 0 32.2386 0.011194 32.2727C0 32.3068 0 32.3523 0 32.3864V37.2841C0 38.4091 1.57836 40 2.67537 40H33.3246C34.4216 40 36 38.4091 36 37.2841V32.3864C36 32.3523 35.9888 32.3068 35.9888 32.2727C35.9888 32.2386 36 32.1932 36 32.1591V8.75C36 8.70455 35.9888 8.67045 35.9888 8.625C35.9888 8.59091 36 8.55682 36 8.51136V2.71591ZM34.3881 37.2614C34.3209 37.5682 33.6045 38.3068 33.3246 38.3636H2.69776C2.39552 38.3068 1.66791 37.5682 1.61194 37.2841V32.9773H34.3881V37.2614ZM34.3881 31.3409H1.61194V9.56818H34.3881V31.3409ZM34.3881 7.93182H1.61194V2.73864C1.66791 2.43182 2.39552 1.69318 2.67537 1.63636H33.291C33.6045 1.69318 34.3209 2.43182 34.3881 2.71591V7.93182ZM28.5112 3.18182C27.6269 3.18182 26.9104 3.90909 26.9104 4.80682C26.9104 5.70455 27.6269 6.43182 28.5112 6.43182C29.3955 6.43182 30.1119 5.70455 30.1119 4.80682C30.1119 3.90909 29.3955 3.18182 28.5112 3.18182ZM24.1455 3.18182C23.2612 3.18182 22.5448 3.90909 22.5448 4.80682C22.5448 5.70455 23.2612 6.43182 24.1455 6.43182C25.0299 6.43182 25.7463 5.70455 25.7463 4.80682C25.7463 3.90909 25.0299 3.18182 24.1455 3.18182ZM19.7687 3.18182C18.8955 3.18182 18.1679 3.90909 18.1679 4.80682C18.1679 5.70455 18.8955 6.43182 19.7687 6.43182C20.653 6.43182 21.3694 5.70455 21.3694 4.80682C21.3694 3.90909 20.653 3.18182 19.7687 3.18182ZM15.403 3.18182C14.5187 3.18182 13.8022 3.90909 13.8022 4.80682C13.8022 5.70455 14.5187 6.43182 15.403 6.43182C16.2873 6.43182 17.0037 5.70455 17.0037 4.80682C17.0037 3.90909 16.2873 3.18182 15.403 3.18182ZM7.47761 3.18182C6.59328 3.18182 5.87687 3.90909 5.87687 4.80682C5.87687 5.70455 6.59328 6.43182 7.47761 6.43182C8.36194 6.43182 9.07836 5.70455 9.07836 4.80682C9.07836 3.90909 8.36194 3.18182 7.47761 3.18182Z" fill="white"/>
<path d="M27.8391 13.1592H8.16C6.97343 13.1592 6.01074 14.1478 6.01074 15.341V25.8751C6.01074 27.0796 6.97343 28.0569 8.16 28.0569H27.8391C29.0145 28.0569 29.9884 27.0796 29.9884 25.8751V15.341C29.9884 14.1478 29.0145 13.1592 27.8391 13.1592ZM28.3764 25.8751C28.3764 26.1705 28.1301 26.4205 27.8391 26.4205H8.16C7.86895 26.4205 7.62268 26.1705 7.62268 25.8751V15.341C7.62268 15.0455 7.86895 14.8069 8.16 14.8069H27.8391C28.1301 14.8069 28.3764 15.0455 28.3764 15.341V25.8751Z" fill="white"/>
<path d="M7.4777 6.43164C8.36177 6.43164 9.07844 5.7041 9.07844 4.80664C9.07844 3.90918 8.36177 3.18164 7.4777 3.18164C6.59363 3.18164 5.87695 3.90918 5.87695 4.80664C5.87695 5.7041 6.59363 6.43164 7.4777 6.43164Z" fill="white"/>
<path d="M15.4025 6.43164C16.2866 6.43164 17.0033 5.7041 17.0033 4.80664C17.0033 3.90918 16.2866 3.18164 15.4025 3.18164C14.5184 3.18164 13.8018 3.90918 13.8018 4.80664C13.8018 5.7041 14.5184 6.43164 15.4025 6.43164Z" fill="white"/>
<path d="M19.7687 6.43164C20.6528 6.43164 21.3695 5.7041 21.3695 4.80664C21.3695 3.90918 20.6528 3.18164 19.7687 3.18164C18.8846 3.18164 18.168 3.90918 18.168 4.80664C18.168 5.7041 18.8846 6.43164 19.7687 6.43164Z" fill="white"/>
<path d="M24.1457 6.43164C25.0297 6.43164 25.7464 5.7041 25.7464 4.80664C25.7464 3.90918 25.0297 3.18164 24.1457 3.18164C23.2616 3.18164 22.5449 3.90918 22.5449 4.80664C22.5449 5.7041 23.2616 6.43164 24.1457 6.43164Z" fill="white"/>
<path d="M28.5109 6.43164C29.395 6.43164 30.1116 5.7041 30.1116 4.80664C30.1116 3.90918 29.395 3.18164 28.5109 3.18164C27.6268 3.18164 26.9102 3.90918 26.9102 4.80664C26.9102 5.7041 27.6268 6.43164 28.5109 6.43164Z" fill="white"/>
<path d="M27.8391 13.1592H8.16C6.97343 13.1592 6.01074 14.1478 6.01074 15.341V25.8751C6.01074 27.0796 6.97343 28.0569 8.16 28.0569H27.8391C29.0145 28.0569 29.9884 27.0796 29.9884 25.8751V15.341C29.9884 14.1478 29.0145 13.1592 27.8391 13.1592ZM28.3764 25.8751C28.3764 26.1705 28.1301 26.4205 27.8391 26.4205H8.16C7.86895 26.4205 7.62268 26.1705 7.62268 25.8751V15.341C7.62268 15.0455 7.86895 14.8069 8.16 14.8069H27.8391C28.1301 14.8069 28.3764 15.0455 28.3764 15.341V25.8751Z" fill="white"/>
<path d="M28.5109 6.43164C29.395 6.43164 30.1116 5.7041 30.1116 4.80664C30.1116 3.90918 29.395 3.18164 28.5109 3.18164C27.6268 3.18164 26.9102 3.90918 26.9102 4.80664C26.9102 5.7041 27.6268 6.43164 28.5109 6.43164Z" fill="white"/>
<path d="M28.5107 4V4.81818C28.5221 4.81818 28.5221 4.81818 28.5221 4.80682L28.5107 4Z" fill="white"/>
<path d="M24.1457 6.43164C25.0297 6.43164 25.7464 5.7041 25.7464 4.80664C25.7464 3.90918 25.0297 3.18164 24.1457 3.18164C23.2616 3.18164 22.5449 3.90918 22.5449 4.80664C22.5449 5.7041 23.2616 6.43164 24.1457 6.43164Z" fill="white"/>
<path d="M24.1455 4V4.81818C24.1569 4.81818 24.1569 4.81818 24.1569 4.80682L24.1455 4Z" fill="white"/>
<path d="M19.7687 6.43164C20.6528 6.43164 21.3695 5.7041 21.3695 4.80664C21.3695 3.90918 20.6528 3.18164 19.7687 3.18164C18.8846 3.18164 18.168 3.90918 18.168 4.80664C18.168 5.7041 18.8846 6.43164 19.7687 6.43164Z" fill="white"/>
<path d="M19.7686 4V4.81818C19.7799 4.81818 19.7799 4.80682 19.7799 4.80682L19.7686 4Z" fill="white"/>
<path d="M15.4025 6.43164C16.2866 6.43164 17.0033 5.7041 17.0033 4.80664C17.0033 3.90918 16.2866 3.18164 15.4025 3.18164C14.5184 3.18164 13.8018 3.90918 13.8018 4.80664C13.8018 5.7041 14.5184 6.43164 15.4025 6.43164Z" fill="white"/>
<path d="M15.4033 4V4.81818C15.4147 4.81818 15.4147 4.80682 15.4147 4.80682L15.4033 4Z" fill="white"/>
<path d="M7.4777 6.43164C8.36177 6.43164 9.07844 5.7041 9.07844 4.80664C9.07844 3.90918 8.36177 3.18164 7.4777 3.18164C6.59363 3.18164 5.87695 3.90918 5.87695 4.80664C5.87695 5.7041 6.59363 6.43164 7.4777 6.43164Z" fill="white"/>
<path d="M7.47754 4V4.81818C7.4889 4.81818 7.4889 4.80682 7.4889 4.80682L7.47754 4Z" fill="white"/>
</svg>
