<svg width="40" height="40" viewBox="0 0 40 40" fill="none" xmlns="http://www.w3.org/2000/svg">
<path d="M17.0342 21.4736C18.4461 22.8961 19.2317 24.7738 19.2317 26.7766C19.2317 28.7795 18.4461 30.6685 17.0342 32.0796C15.6109 33.5021 13.7322 34.2873 11.7282 34.2873C11.398 34.2873 11.0564 34.2532 10.7148 34.2076C10.3732 34.1621 10.043 34.0938 9.7128 34.0028C9.28012 33.889 9.01823 33.4338 9.14348 33.0014C9.26873 32.5576 9.7128 32.2958 10.1569 32.421C10.4074 32.5007 10.6692 32.5462 10.9311 32.5917C11.2044 32.6258 11.4663 32.6486 11.7282 32.6486C13.2881 32.6486 14.7683 32.0341 15.8728 30.9303C16.9772 29.815 17.5921 28.347 17.5921 26.7766C17.5921 25.2176 16.9772 23.7382 15.8728 22.6344C14.7683 21.5305 13.2881 20.916 11.7282 20.916C10.1569 20.916 8.68803 21.5305 7.57218 22.6344C6.46771 23.7382 5.86423 25.2176 5.86423 26.7766C5.86423 27.2091 5.90978 27.6415 6.00087 28.0739C6.10335 28.5064 6.25137 28.916 6.43355 29.3029C6.62711 29.7126 6.45632 30.202 6.04641 30.3954C5.63651 30.5889 5.1469 30.4182 4.95333 30.0085C4.71422 29.5192 4.53204 28.9843 4.40679 28.4381C4.28154 27.8805 4.22461 27.3229 4.22461 26.7766C4.22461 24.7738 4.99888 22.8961 6.42216 21.4736C7.83406 20.0626 9.72418 19.2773 11.7282 19.2773C13.7322 19.2773 15.6109 20.0626 17.0342 21.4736Z" fill="white"/>
<path d="M17.6489 5.41666C18.8103 6.5774 19.4479 8.12505 19.4479 9.76374C19.4479 11.4024 18.8103 12.9387 17.6489 14.0994C16.4875 15.2602 14.9389 15.9088 13.2993 15.9088C11.6597 15.9088 10.1225 15.2602 8.96114 14.0994C8.93837 14.0881 8.87005 14.0198 8.85866 13.997C7.77697 12.8818 7.16211 11.3683 7.16211 9.76374C7.16211 9.31993 7.20765 8.86474 7.31013 8.40955C7.41261 7.96574 7.56063 7.52192 7.7542 7.12363C7.94776 6.71396 8.43737 6.54326 8.84728 6.73672C9.25718 6.93017 9.42798 7.41951 9.23441 7.82918C9.09778 8.12505 8.98391 8.44369 8.9156 8.7737C8.83589 9.10372 8.80173 9.43373 8.80173 9.76374C8.80173 10.9359 9.2458 12.0511 10.0656 12.8932C11.8646 14.6912 14.7795 14.6457 16.4875 12.9501C17.3414 12.0852 17.8083 10.9586 17.8083 9.76374C17.8083 8.55749 17.3414 7.43089 16.4875 6.5774C15.6335 5.72392 14.5063 5.25734 13.2993 5.25734C13.1057 5.25734 12.9122 5.2801 12.6958 5.30286C12.4909 5.337 12.2973 5.37114 12.0924 5.42804C11.6597 5.54184 11.2042 5.29148 11.0904 4.85905C10.9651 4.42662 11.2156 3.97143 11.6597 3.84625C11.9216 3.77797 12.1948 3.72107 12.4681 3.67555C12.7642 3.64141 13.0374 3.61865 13.2993 3.61865C14.9389 3.61865 16.4875 4.25592 17.6489 5.41666Z" fill="white"/>
<path d="M23.6832 35.5393C23.6832 36.4383 22.9545 37.1666 22.055 37.1666C21.1555 37.1666 20.4268 36.4383 20.4268 35.5393C20.4268 34.6516 21.1555 33.9233 22.055 33.9233C22.9545 33.9233 23.6832 34.6516 23.6832 35.5393Z" fill="white"/>
<path d="M28.067 35.5393C28.067 36.4383 27.3383 37.1666 26.4388 37.1666C25.5393 37.1666 24.8105 36.4383 24.8105 35.5393C24.8105 34.6516 25.5393 33.9233 26.4388 33.9233C27.3383 33.9233 28.067 34.6516 28.067 35.5393Z" fill="white"/>
<path d="M32.4394 35.5393C32.4394 36.4383 31.7107 37.1666 30.8226 37.1666C29.9231 37.1666 29.1943 36.4383 29.1943 35.5393C29.1943 34.6516 29.9231 33.9233 30.8226 33.9233C31.7107 33.9233 32.4394 34.6516 32.4394 35.5393Z" fill="white"/>
<path d="M33.4642 28.2332C33.0543 28.0397 32.8835 27.5504 33.0771 27.1407C33.2251 26.8448 33.3276 26.5262 33.4073 26.1962C33.4756 25.8548 33.5212 25.5248 33.5212 25.2061C33.5212 24.0226 33.0657 22.9074 32.2345 22.0653C32.2231 22.0425 32.2118 22.0312 32.2004 22.0198C30.4924 20.3242 27.532 20.3242 25.8354 22.0198C24.9815 22.8733 24.5146 23.9999 24.5146 25.2061C24.5146 26.3782 24.9587 27.4935 25.7785 28.3356C26.678 29.2346 27.8166 29.7011 29.0122 29.7011C29.2058 29.7011 29.4107 29.6898 29.6157 29.667C29.8206 29.6329 30.0256 29.5987 30.2192 29.5418C30.6632 29.4167 31.1073 29.6784 31.2325 30.1108C31.3464 30.5433 31.0959 30.9984 30.6632 31.1122C30.3899 31.1919 30.1167 31.2488 29.8434 31.2829C29.5587 31.3285 29.2741 31.3398 29.0122 31.3398C27.3726 31.3398 25.8354 30.7026 24.674 29.5418C24.6513 29.5304 24.5829 29.4622 24.5716 29.4394C23.4899 28.3242 22.875 26.8107 22.875 25.2061C22.875 23.5674 23.5126 22.0312 24.674 20.8704C25.8354 19.6983 27.3726 19.061 29.0122 19.061C30.6404 19.061 32.1776 19.6983 33.339 20.8477L33.3504 20.859C34.5232 22.0198 35.1608 23.5561 35.1608 25.2061C35.1608 25.6499 35.1039 26.1051 35.0014 26.5489C34.8989 27.0041 34.7509 27.4366 34.5573 27.8462C34.3638 28.2559 33.8741 28.4266 33.4642 28.2332Z" fill="white"/>
<path d="M24.674 14.0994C23.5126 12.9387 22.875 11.4024 22.875 9.76374C22.875 8.12505 23.5126 6.5774 24.674 5.41666C25.8354 4.25592 27.3726 3.61865 29.0122 3.61865C29.2741 3.61865 29.5587 3.64141 29.8434 3.67555C30.1167 3.72107 30.3899 3.77797 30.6632 3.84625C31.0959 3.97143 31.3464 4.42662 31.2325 4.85905C31.1073 5.29148 30.6632 5.54184 30.2192 5.42804C30.0256 5.37114 29.8206 5.337 29.6271 5.30286C29.4107 5.2801 29.2058 5.25734 29.0122 5.25734C27.8166 5.25734 26.678 5.72392 25.824 6.5774C24.9815 7.43089 24.5146 8.55749 24.5146 9.76374C24.5146 10.9586 24.9815 12.0966 25.824 12.9387C27.5434 14.6571 30.5038 14.6457 32.2004 12.9501C33.0657 12.0511 33.5212 10.9359 33.5212 9.76374C33.5212 9.44511 33.4756 9.10372 33.4073 8.7737C33.3276 8.44369 33.2251 8.12505 33.0771 7.82918C32.8835 7.41951 33.0543 6.93017 33.4642 6.73672C33.8741 6.54326 34.3638 6.71396 34.5573 7.12363C34.7509 7.52192 34.8989 7.95436 35.0014 8.40955C35.1039 8.86474 35.1608 9.31993 35.1608 9.76374C35.1608 11.3683 34.5459 12.8818 33.4187 14.0312C32.2004 15.2602 30.6518 15.9088 29.0122 15.9088C27.3726 15.9088 25.8354 15.2602 24.674 14.0994Z" fill="white"/>
<path d="M36.8229 35.5393C36.8229 36.4383 36.0942 37.1666 35.1946 37.1666C34.2951 37.1666 33.5664 36.4383 33.5664 35.5393C33.5664 34.6516 34.2951 33.9233 35.1946 33.9233C36.0942 33.9233 36.8229 34.6516 36.8229 35.5393Z" fill="white"/>
<path d="M37.0965 0H2.9035C1.70794 0 0 1.71835 0 2.90185V37.0981C0 38.293 1.70794 40 2.9035 40H37.0965C38.2921 40 40 38.293 40 37.0981V2.90185C40 1.71835 38.2921 0 37.0965 0ZM38.3604 37.0868C38.3034 37.4509 37.4381 38.3044 37.0965 38.3613H2.91489C2.55053 38.3044 1.69656 37.4395 1.63962 37.0981V2.92461C1.69656 2.56045 2.56191 1.69559 2.9035 1.63869H37.0737C37.4381 1.69559 38.3034 2.56045 38.3604 2.90185V37.0868Z" fill="white"/>
<path d="M17.0342 21.4736C18.4461 22.8961 19.2317 24.7738 19.2317 26.7766C19.2317 28.7795 18.4461 30.6685 17.0342 32.0796C15.6109 33.5021 13.7322 34.2873 11.7282 34.2873C11.398 34.2873 11.0564 34.2532 10.7148 34.2076C10.3732 34.1621 10.043 34.0938 9.7128 34.0028C9.28012 33.889 9.01823 33.4338 9.14348 33.0014C9.26873 32.5576 9.7128 32.2958 10.1569 32.421C10.4074 32.5007 10.6692 32.5462 10.9311 32.5917C11.2044 32.6258 11.4663 32.6486 11.7282 32.6486C13.2881 32.6486 14.7683 32.0341 15.8728 30.9303C16.9772 29.815 17.5921 28.347 17.5921 26.7766C17.5921 25.2176 16.9772 23.7382 15.8728 22.6344C14.7683 21.5305 13.2881 20.916 11.7282 20.916C10.1569 20.916 8.68803 21.5305 7.57218 22.6344C6.46771 23.7382 5.86423 25.2176 5.86423 26.7766C5.86423 27.2091 5.90978 27.6415 6.00087 28.0739C6.10335 28.5064 6.25137 28.916 6.43355 29.3029C6.62711 29.7126 6.45632 30.202 6.04641 30.3954C5.63651 30.5889 5.1469 30.4182 4.95333 30.0085C4.71422 29.5192 4.53204 28.9843 4.40679 28.4381C4.28154 27.8805 4.22461 27.3229 4.22461 26.7766C4.22461 24.7738 4.99888 22.8961 6.42216 21.4736C7.83406 20.0626 9.72418 19.2773 11.7282 19.2773C13.7322 19.2773 15.6109 20.0626 17.0342 21.4736Z" fill="white"/>
<path d="M17.6489 5.41666C18.8103 6.5774 19.4479 8.12505 19.4479 9.76374C19.4479 11.4024 18.8103 12.9387 17.6489 14.0994C16.4875 15.2602 14.9389 15.9088 13.2993 15.9088C11.6597 15.9088 10.1225 15.2602 8.96114 14.0994C8.93837 14.0881 8.87005 14.0198 8.85866 13.997C7.77697 12.8818 7.16211 11.3683 7.16211 9.76374C7.16211 9.31993 7.20765 8.86474 7.31013 8.40955C7.41261 7.96574 7.56063 7.52192 7.7542 7.12363C7.94776 6.71396 8.43737 6.54326 8.84728 6.73672C9.25718 6.93017 9.42798 7.41951 9.23441 7.82918C9.09778 8.12505 8.98391 8.44369 8.9156 8.7737C8.83589 9.10372 8.80173 9.43373 8.80173 9.76374C8.80173 10.9359 9.2458 12.0511 10.0656 12.8932C11.8646 14.6912 14.7795 14.6457 16.4875 12.9501C17.3414 12.0852 17.8083 10.9586 17.8083 9.76374C17.8083 8.55749 17.3414 7.43089 16.4875 6.5774C15.6335 5.72392 14.5063 5.25734 13.2993 5.25734C13.1057 5.25734 12.9122 5.2801 12.6958 5.30286C12.4909 5.337 12.2973 5.37114 12.0924 5.42804C11.6597 5.54184 11.2042 5.29148 11.0904 4.85905C10.9651 4.42662 11.2156 3.97143 11.6597 3.84625C11.9216 3.77797 12.1948 3.72107 12.4681 3.67555C12.7642 3.64141 13.0374 3.61865 13.2993 3.61865C14.9389 3.61865 16.4875 4.25592 17.6489 5.41666Z" fill="white"/>
<path d="M23.6832 35.5393C23.6832 36.4383 22.9545 37.1666 22.055 37.1666C21.1555 37.1666 20.4268 36.4383 20.4268 35.5393C20.4268 34.6516 21.1555 33.9233 22.055 33.9233C22.9545 33.9233 23.6832 34.6516 23.6832 35.5393Z" fill="white"/>
<path d="M28.067 35.5393C28.067 36.4383 27.3383 37.1666 26.4388 37.1666C25.5393 37.1666 24.8105 36.4383 24.8105 35.5393C24.8105 34.6516 25.5393 33.9233 26.4388 33.9233C27.3383 33.9233 28.067 34.6516 28.067 35.5393Z" fill="white"/>
<path d="M32.4394 35.5393C32.4394 36.4383 31.7107 37.1666 30.8226 37.1666C29.9231 37.1666 29.1943 36.4383 29.1943 35.5393C29.1943 34.6516 29.9231 33.9233 30.8226 33.9233C31.7107 33.9233 32.4394 34.6516 32.4394 35.5393Z" fill="white"/>
<path d="M33.4642 28.2332C33.0543 28.0397 32.8835 27.5504 33.0771 27.1407C33.2251 26.8448 33.3276 26.5262 33.4073 26.1962C33.4756 25.8548 33.5212 25.5248 33.5212 25.2061C33.5212 24.0226 33.0657 22.9074 32.2345 22.0653C32.2231 22.0425 32.2118 22.0312 32.2004 22.0198C30.4924 20.3242 27.532 20.3242 25.8354 22.0198C24.9815 22.8733 24.5146 23.9999 24.5146 25.2061C24.5146 26.3782 24.9587 27.4935 25.7785 28.3356C26.678 29.2346 27.8166 29.7011 29.0122 29.7011C29.2058 29.7011 29.4107 29.6898 29.6157 29.667C29.8206 29.6329 30.0256 29.5987 30.2192 29.5418C30.6632 29.4167 31.1073 29.6784 31.2325 30.1108C31.3464 30.5433 31.0959 30.9984 30.6632 31.1122C30.3899 31.1919 30.1167 31.2488 29.8434 31.2829C29.5587 31.3285 29.2741 31.3398 29.0122 31.3398C27.3726 31.3398 25.8354 30.7026 24.674 29.5418C24.6513 29.5304 24.5829 29.4622 24.5716 29.4394C23.4899 28.3242 22.875 26.8107 22.875 25.2061C22.875 23.5674 23.5126 22.0312 24.674 20.8704C25.8354 19.6983 27.3726 19.061 29.0122 19.061C30.6404 19.061 32.1776 19.6983 33.339 20.8477L33.3504 20.859C34.5232 22.0198 35.1608 23.5561 35.1608 25.2061C35.1608 25.6499 35.1039 26.1051 35.0014 26.5489C34.8989 27.0041 34.7509 27.4366 34.5573 27.8462C34.3638 28.2559 33.8741 28.4266 33.4642 28.2332Z" fill="white"/>
<path d="M24.674 14.0994C23.5126 12.9387 22.875 11.4024 22.875 9.76374C22.875 8.12505 23.5126 6.5774 24.674 5.41666C25.8354 4.25592 27.3726 3.61865 29.0122 3.61865C29.2741 3.61865 29.5587 3.64141 29.8434 3.67555C30.1167 3.72107 30.3899 3.77797 30.6632 3.84625C31.0959 3.97143 31.3464 4.42662 31.2325 4.85905C31.1073 5.29148 30.6632 5.54184 30.2192 5.42804C30.0256 5.37114 29.8206 5.337 29.6271 5.30286C29.4107 5.2801 29.2058 5.25734 29.0122 5.25734C27.8166 5.25734 26.678 5.72392 25.824 6.5774C24.9815 7.43089 24.5146 8.55749 24.5146 9.76374C24.5146 10.9586 24.9815 12.0966 25.824 12.9387C27.5434 14.6571 30.5038 14.6457 32.2004 12.9501C33.0657 12.0511 33.5212 10.9359 33.5212 9.76374C33.5212 9.44511 33.4756 9.10372 33.4073 8.7737C33.3276 8.44369 33.2251 8.12505 33.0771 7.82918C32.8835 7.41951 33.0543 6.93017 33.4642 6.73672C33.8741 6.54326 34.3638 6.71396 34.5573 7.12363C34.7509 7.52192 34.8989 7.95436 35.0014 8.40955C35.1039 8.86474 35.1608 9.31993 35.1608 9.76374C35.1608 11.3683 34.5459 12.8818 33.4187 14.0312C32.2004 15.2602 30.6518 15.9088 29.0122 15.9088C27.3726 15.9088 25.8354 15.2602 24.674 14.0994Z" fill="white"/>
<path d="M36.8229 35.5393C36.8229 36.4383 36.0942 37.1666 35.1946 37.1666C34.2951 37.1666 33.5664 36.4383 33.5664 35.5393C33.5664 34.6516 34.2951 33.9233 35.1946 33.9233C36.0942 33.9233 36.8229 34.6516 36.8229 35.5393Z" fill="white"/>
<path d="M36.8229 35.5393C36.8229 36.4383 36.0942 37.1666 35.1946 37.1666C34.2951 37.1666 33.5664 36.4383 33.5664 35.5393C33.5664 34.6516 34.2951 33.9233 35.1946 33.9233C36.0942 33.9233 36.8229 34.6516 36.8229 35.5393Z" fill="white"/>
<path d="M35.195 35.5278C35.1836 35.5278 35.1836 35.5278 35.1836 35.5392L35.195 36.3472V35.5278Z" fill="white"/>
<path d="M32.4394 35.5393C32.4394 36.4383 31.7107 37.1666 30.8226 37.1666C29.9231 37.1666 29.1943 36.4383 29.1943 35.5393C29.1943 34.6516 29.9231 33.9233 30.8226 33.9233C31.7107 33.9233 32.4394 34.6516 32.4394 35.5393Z" fill="white"/>
<path d="M30.8229 35.5278C30.8115 35.5278 30.8115 35.5278 30.8115 35.5392L30.8229 36.3472V35.5278Z" fill="white"/>
<path d="M28.067 35.5393C28.067 36.4383 27.3383 37.1666 26.4388 37.1666C25.5393 37.1666 24.8105 36.4383 24.8105 35.5393C24.8105 34.6516 25.5393 33.9233 26.4388 33.9233C27.3383 33.9233 28.067 34.6516 28.067 35.5393Z" fill="white"/>
<path d="M26.4391 35.5278C26.4277 35.5278 26.4277 35.5278 26.4277 35.5392L26.4391 36.3472V35.5278Z" fill="white"/>
<path d="M23.6832 35.5393C23.6832 36.4383 22.9545 37.1666 22.055 37.1666C21.1555 37.1666 20.4268 36.4383 20.4268 35.5393C20.4268 34.6516 21.1555 33.9233 22.055 33.9233C22.9545 33.9233 23.6832 34.6516 23.6832 35.5393Z" fill="white"/>
<path d="M22.0553 35.5278C22.0553 35.5278 22.0439 35.5278 22.0439 35.5392L22.0553 36.3472V35.5278Z" fill="white"/>
<path d="M19.2317 26.7766C19.2317 28.7795 18.4461 30.6685 17.0342 32.0796C15.6109 33.5021 13.7322 34.2873 11.7282 34.2873C11.398 34.2873 11.0564 34.2532 10.7148 34.2076C10.3732 34.1621 10.043 34.0938 9.7128 34.0028C9.28012 33.889 9.01823 33.4338 9.14348 33.0014C9.26873 32.5576 9.7128 32.2958 10.1569 32.421C10.4074 32.5007 10.6692 32.5462 10.9311 32.5917C11.2044 32.6258 11.4663 32.6486 11.7282 32.6486C13.2881 32.6486 14.7683 32.0341 15.8728 30.9303C16.9772 29.815 17.5921 28.347 17.5921 26.7766C17.5921 25.2176 16.9772 23.7382 15.8728 22.6344C14.7683 21.5305 13.2881 20.916 11.7282 20.916C10.1569 20.916 8.68803 21.5305 7.57218 22.6344C6.46771 23.7382 5.86423 25.2176 5.86423 26.7766C5.86423 27.2091 5.90978 27.6415 6.00087 28.0739C6.10335 28.5064 6.25137 28.916 6.43355 29.3029C6.62711 29.7126 6.45632 30.202 6.04641 30.3954C5.63651 30.5889 5.1469 30.4182 4.95333 30.0085C4.71422 29.5192 4.53204 28.9843 4.40679 28.4381C4.28154 27.8805 4.22461 27.3229 4.22461 26.7766C4.22461 24.7738 4.99888 22.8961 6.42216 21.4736C7.83406 20.0626 9.72418 19.2773 11.7282 19.2773C13.7322 19.2773 15.6109 20.0626 17.0342 21.4736C18.4461 22.8961 19.2317 24.7738 19.2317 26.7766Z" fill="white"/>
<path d="M35.1608 25.2061C35.1608 25.6499 35.1039 26.1051 35.0014 26.5489C34.8989 27.0041 34.7509 27.4366 34.5573 27.8462C34.3638 28.2559 33.8741 28.4266 33.4642 28.2332C33.0543 28.0397 32.8835 27.5504 33.0771 27.1407C33.2251 26.8448 33.3276 26.5262 33.4073 26.1962C33.4756 25.8548 33.5212 25.5248 33.5212 25.2061C33.5212 24.0226 33.0657 22.9074 32.2345 22.0653C32.2231 22.0425 32.2118 22.0312 32.2004 22.0198C30.4924 20.3242 27.532 20.3242 25.8354 22.0198C24.9815 22.8733 24.5146 23.9999 24.5146 25.2061C24.5146 26.3782 24.9587 27.4935 25.7785 28.3356C26.678 29.2346 27.8166 29.7011 29.0122 29.7011C29.2058 29.7011 29.4107 29.6898 29.6157 29.667C29.8206 29.6329 30.0256 29.5987 30.2192 29.5418C30.6632 29.4167 31.1073 29.6784 31.2325 30.1108C31.3464 30.5433 31.0959 30.9984 30.6632 31.1122C30.3899 31.1919 30.1167 31.2488 29.8434 31.2829C29.5587 31.3285 29.2741 31.3398 29.0122 31.3398C27.3726 31.3398 25.8354 30.7026 24.674 29.5418C24.6513 29.5304 24.5829 29.4622 24.5716 29.4394C23.4899 28.3242 22.875 26.8107 22.875 25.2061C22.875 23.5674 23.5126 22.0312 24.674 20.8704C25.8354 19.6983 27.3726 19.061 29.0122 19.061C30.6404 19.061 32.1776 19.6983 33.339 20.8477L33.3504 20.859C34.5232 22.0198 35.1608 23.5561 35.1608 25.2061Z" fill="white"/>
<path d="M35.1608 9.76374C35.1608 11.3683 34.5459 12.8818 33.4187 14.0312C32.2004 15.2602 30.6518 15.9088 29.0122 15.9088C27.3726 15.9088 25.8354 15.2602 24.674 14.0994C23.5126 12.9387 22.875 11.4024 22.875 9.76374C22.875 8.12505 23.5126 6.5774 24.674 5.41666C25.8354 4.25592 27.3726 3.61865 29.0122 3.61865C29.2741 3.61865 29.5587 3.64141 29.8434 3.67555C30.1167 3.72107 30.3899 3.77797 30.6632 3.84625C31.0959 3.97143 31.3464 4.42662 31.2325 4.85905C31.1073 5.29148 30.6632 5.54184 30.2192 5.42804C30.0256 5.37114 29.8206 5.337 29.6271 5.30286C29.4107 5.2801 29.2058 5.25734 29.0122 5.25734C27.8166 5.25734 26.678 5.72392 25.824 6.5774C24.9815 7.43089 24.5146 8.55749 24.5146 9.76374C24.5146 10.9586 24.9815 12.0966 25.824 12.9387C27.5434 14.6571 30.5038 14.6457 32.2004 12.9501C33.0657 12.0511 33.5212 10.9359 33.5212 9.76374C33.5212 9.44511 33.4756 9.10372 33.4073 8.7737C33.3276 8.44369 33.2251 8.12505 33.0771 7.82918C32.8835 7.41951 33.0543 6.93017 33.4642 6.73672C33.8741 6.54326 34.3638 6.71396 34.5573 7.12363C34.7509 7.52192 34.8989 7.95436 35.0014 8.40955C35.1039 8.86474 35.1608 9.31993 35.1608 9.76374Z" fill="white"/>
<path d="M19.4479 9.76374C19.4479 11.4024 18.8103 12.9387 17.6489 14.0994C16.4875 15.2602 14.9389 15.9088 13.2993 15.9088C11.6597 15.9088 10.1225 15.2602 8.96114 14.0994C8.93837 14.0881 8.87005 14.0198 8.85866 13.997C7.77697 12.8818 7.16211 11.3683 7.16211 9.76374C7.16211 9.31993 7.20765 8.86474 7.31013 8.40955C7.41261 7.96574 7.56063 7.52192 7.7542 7.12363C7.94776 6.71396 8.43737 6.54326 8.84728 6.73672C9.25718 6.93017 9.42798 7.41951 9.23441 7.82918C9.09778 8.12505 8.98391 8.44369 8.9156 8.7737C8.83589 9.10372 8.80173 9.43373 8.80173 9.76374C8.80173 10.9359 9.2458 12.0511 10.0656 12.8932C11.8646 14.6912 14.7795 14.6457 16.4875 12.9501C17.3414 12.0852 17.8083 10.9586 17.8083 9.76374C17.8083 8.55749 17.3414 7.43089 16.4875 6.5774C15.6335 5.72392 14.5063 5.25734 13.2993 5.25734C13.1057 5.25734 12.9122 5.2801 12.6958 5.30286C12.4909 5.337 12.2973 5.37114 12.0924 5.42804C11.6597 5.54184 11.2042 5.29148 11.0904 4.85905C10.9651 4.42662 11.2156 3.97143 11.6597 3.84625C11.9216 3.77797 12.1948 3.72107 12.4681 3.67555C12.7642 3.64141 13.0374 3.61865 13.2993 3.61865C14.9389 3.61865 16.4875 4.25592 17.6489 5.41666C18.8103 6.5774 19.4479 8.12505 19.4479 9.76374Z" fill="white"/>
</svg>
