<svg width="24" height="24" viewBox="0 0 24 24" fill="none" xmlns="http://www.w3.org/2000/svg">
<path d="M8.3125 17.3828L8.625 17.1094C8.78125 16.9141 8.78125 16.6406 8.625 16.4453L5.34375 13.1641H20.0312C20.2656 13.1641 20.5 12.9688 20.5 12.6953V12.3047C20.5 12.0703 20.2656 11.8359 20.0312 11.8359H5.34375L8.625 8.59375C8.78125 8.39844 8.78125 8.125 8.625 7.92969L8.3125 7.65625C8.15625 7.46094 7.84375 7.46094 7.6875 7.65625L3.11719 12.1875C2.92188 12.3828 2.92188 12.6562 3.11719 12.8516L7.6875 17.3828C7.84375 17.5781 8.15625 17.5781 8.3125 17.3828Z" fill="#BB0000"/>
</svg>
