<svg width="163" height="64" viewBox="0 0 163 64" fill="none" xmlns="http://www.w3.org/2000/svg">
<path d="M51.3784 25.7017C51.3784 32.4068 51.3709 39.1094 51.3834 45.8146C51.3859 47.1442 51.0477 48.3426 50.2171 49.385C49.1031 50.784 47.6285 51.4723 45.8456 51.4921C44.3958 51.5095 42.9461 51.4946 41.4964 51.4946C29.5852 51.4946 17.6715 51.4921 5.76038 51.4995C4.31562 51.4995 3.02255 51.1059 1.92095 50.1625C0.690052 49.1077 0.0833035 47.7508 0.00621668 46.1463C-0.00373001 45.9606 0.00124334 45.7749 0.00124334 45.5892C0.00124334 32.3474 -0.00124334 19.103 0.00870336 5.86118C0.00870336 5.28922 0.0534635 4.69992 0.19023 4.14776C0.794492 1.70144 2.90319 0.052393 5.42468 0.00287221C5.61118 0.000396166 5.79768 0.000396166 5.98418 0.000396166C19.1387 0.000396166 32.2932 -0.00207987 45.4477 0.00534825C45.9624 0.00534825 46.4871 0.0202045 46.9919 0.119246C49.491 0.609502 51.2963 2.74632 51.366 5.27931C51.3933 6.26973 51.3784 7.26014 51.3784 8.25056C51.3784 14.0668 51.3784 19.883 51.3784 25.7017ZM48.7301 25.771C48.7301 19.1897 48.7301 12.6084 48.7301 6.0246C48.7301 5.7968 48.7351 5.57149 48.7226 5.34369C48.6605 4.10815 47.8747 3.08802 46.6736 2.7587C46.2832 2.65223 45.858 2.63243 45.4477 2.63243C32.2907 2.62747 19.1312 2.62747 5.97423 2.62747C5.78773 2.62747 5.60123 2.625 5.41473 2.63243C4.21864 2.67947 3.15435 3.45695 2.81367 4.59345C2.6968 4.97971 2.67193 5.40559 2.67193 5.81414C2.66447 19.0808 2.66696 32.3474 2.66944 45.614C2.66944 45.9235 2.68188 46.2355 2.72912 46.54C2.90568 47.6716 3.85559 48.6174 4.99448 48.7908C5.32024 48.8403 5.65345 48.8576 5.98418 48.8576C19.1412 48.8601 32.3006 48.8601 45.4576 48.8576C45.7262 48.8576 45.9972 48.8452 46.2633 48.8106C47.4544 48.6521 48.377 47.8424 48.6505 46.6812C48.7301 46.3444 48.7301 45.9854 48.7301 45.6363C48.7301 39.0154 48.7301 32.3944 48.7301 25.771Z" fill="#BB0000"/>
<path d="M66.2436 40.9216C65.6343 41.5332 65.0525 42.0854 64.5153 42.6772C64.3885 42.8183 64.3761 43.0956 64.3761 43.311C64.3661 45.126 64.3736 46.9409 64.3661 48.7558C64.3636 49.0406 64.3438 49.3377 64.2692 49.6101C64.105 50.2192 63.5679 50.5708 62.9065 50.5485C62.2972 50.5287 61.7825 50.1375 61.6457 49.5506C61.586 49.2931 61.5711 49.0208 61.5711 48.7534C61.5661 43.0634 61.5661 37.371 61.5711 31.6811C61.5711 31.4161 61.5885 31.1413 61.6507 30.8838C61.7875 30.3168 62.4116 29.8612 62.991 29.8736C63.5629 29.8859 64.1448 30.3118 64.2766 30.8664C64.3487 31.1636 64.3661 31.478 64.3686 31.7851C64.3761 33.9714 64.3736 36.1553 64.3736 38.3416C64.3736 38.562 64.3736 38.7799 64.3736 39.1389C64.6372 38.8987 64.8038 38.7576 64.9555 38.6041C67.5764 35.9943 70.1949 33.3821 72.8159 30.7724C73.0347 30.5545 73.2585 30.3341 73.5096 30.1558C74.0169 29.7968 74.6535 29.8067 75.0713 30.1434C75.4716 30.4703 75.6059 31.1264 75.3174 31.6736C75.1583 31.9782 74.9221 32.253 74.6784 32.5006C72.6841 34.5087 70.6773 36.5069 68.6755 38.5075C68.5313 38.6536 68.3896 38.8046 68.2031 38.9978C68.3175 39.1686 68.4219 39.337 68.5413 39.4979C70.6375 42.3379 72.7363 45.178 74.8325 48.018C74.9668 48.2012 75.1061 48.3844 75.2055 48.585C75.5114 49.2089 75.3125 49.9963 74.7778 50.3578C74.2333 50.7243 73.4723 50.5955 73.0148 49.9988C72.1345 48.8524 71.2865 47.6837 70.4237 46.5224C69.143 44.7991 67.8649 43.0733 66.5867 41.35C66.4972 41.2287 66.4027 41.1197 66.2436 40.9216Z" fill="#BB0000"/>
<path d="M64.5954 14.8766C64.5829 15.1515 64.5655 15.3718 64.5655 15.5922C64.563 17.1372 64.5655 18.6848 64.563 20.2298C64.563 20.4155 64.568 20.6012 64.5531 20.7869C64.4959 21.4852 64.0035 21.9804 63.3222 22.0324C62.5986 22.0893 62.0067 21.6733 61.8575 20.9801C61.8053 20.7399 61.7929 20.4898 61.7929 20.2447C61.7904 14.5547 61.7904 8.86727 61.7929 3.17733C61.7929 2.97182 61.7979 2.76383 61.8302 2.5608C61.9471 1.81551 62.4195 1.3723 63.178 1.36734C65.0604 1.35496 66.9478 1.31782 68.8277 1.38468C71.1925 1.46886 73.1072 2.4469 74.3406 4.51934C75.2657 6.07182 75.492 7.76791 75.1836 9.53332C74.6913 12.361 72.5975 14.4111 69.7229 14.7454C68.3726 14.9014 66.9975 14.842 65.6323 14.8766C65.3065 14.884 64.9783 14.8766 64.5954 14.8766ZM64.6028 3.96223C64.6028 6.74778 64.6028 9.49618 64.6028 12.2495C64.7197 12.2793 64.7968 12.3139 64.8764 12.3139C66.2216 12.3139 67.5669 12.3387 68.9097 12.2941C69.9417 12.2594 70.8295 11.836 71.5506 11.0883C72.59 10.0112 72.7889 8.6989 72.5726 7.29746C72.304 5.55928 70.8991 4.1108 69.2007 3.98452C67.7012 3.8731 66.1868 3.96223 64.6028 3.96223Z" fill="#BB0000"/>
<path d="M116.43 37.6634C116.701 37.4579 116.845 37.3514 116.989 37.2424C119.095 35.638 122.443 35.5265 124.648 36.9948C126.299 38.0942 127.073 39.7036 127.299 41.6151C127.351 42.0435 127.351 42.4793 127.354 42.9126C127.359 44.9132 127.356 46.9138 127.356 48.9145C127.356 49.0804 127.359 49.2463 127.341 49.4097C127.264 50.1302 126.73 50.5858 125.986 50.5759C125.265 50.566 124.758 50.1253 124.681 49.427C124.658 49.224 124.663 49.016 124.663 48.808C124.663 46.9114 124.668 45.0123 124.658 43.1156C124.656 42.6427 124.631 42.1648 124.566 41.6968C124.327 39.9908 123.238 38.8519 121.547 38.5176C120.351 38.2824 119.192 38.369 118.123 38.9979C117.136 39.5773 116.519 40.4118 116.462 41.5879C116.45 41.8355 116.437 42.0831 116.437 42.3282C116.435 44.4329 116.437 46.535 116.435 48.6396C116.435 48.8674 116.437 49.0952 116.42 49.3206C116.353 50.1401 115.838 50.6007 115.032 50.5734C114.269 50.5487 113.784 50.0584 113.744 49.271C113.734 49.0853 113.739 48.8996 113.739 48.7139C113.739 43.0636 113.739 37.4133 113.739 31.7605C113.739 31.555 113.732 31.347 113.747 31.1415C113.799 30.3962 114.353 29.8762 115.089 29.8737C115.806 29.8713 116.34 30.3541 116.412 31.082C116.437 31.3272 116.435 31.5773 116.435 31.8224C116.437 33.4937 116.435 35.1626 116.435 36.8339C116.43 37.0617 116.43 37.2845 116.43 37.6634Z" fill="#BB0000"/>
<path d="M133.625 44.257C133.894 45.8219 134.635 46.9485 135.915 47.6641C137.813 48.7238 139.713 48.6297 141.58 47.5378C141.861 47.3744 142.16 47.2085 142.47 47.1367C142.891 47.0376 143.291 47.1515 143.602 47.4883C144.104 48.028 144.067 48.6347 143.48 49.0878C142.699 49.6895 141.814 50.0906 140.869 50.3481C138.671 50.9498 136.56 50.7393 134.578 49.583C132.795 48.5455 131.72 46.9782 131.31 44.9825C130.974 43.3508 131.079 41.729 131.758 40.1939C132.907 37.5965 134.936 36.1951 137.778 36.0193C138.514 35.9747 139.28 36.0143 139.996 36.1703C142.326 36.6754 143.811 38.1635 144.522 40.387C144.771 41.162 144.86 41.9989 144.93 42.816C145.009 43.7792 144.544 44.2348 143.582 44.2546C142.92 44.2669 142.257 44.257 141.593 44.257C139.19 44.257 136.788 44.257 134.386 44.257C134.162 44.257 133.936 44.257 133.625 44.257ZM142.418 42.0979C142.383 40.1765 140.809 38.4755 138.907 38.2947C138.477 38.2551 138.037 38.2576 137.609 38.2997C135.547 38.5027 133.914 40.0874 133.705 42.0979C136.612 42.0979 139.514 42.0979 142.418 42.0979Z" fill="#BB0000"/>
<path d="M104.941 14.8272C104.891 17.1349 104.137 19.0736 102.364 20.5444C101.457 21.2971 100.41 21.7651 99.2487 21.9879C97.5528 22.3123 95.9091 22.1439 94.335 21.4432C92.5148 20.631 91.2888 19.2519 90.6871 17.3726C90.0256 15.31 90.1226 13.2599 91.0824 11.2989C92.0522 9.31802 93.6736 8.1221 95.822 7.6566C98.0227 7.17872 100.114 7.45109 101.979 8.78567C104.06 10.2762 104.896 12.3933 104.941 14.8272ZM102.347 14.7901C102.292 14.3617 102.265 13.9284 102.175 13.5075C101.73 11.4326 100.129 10.0064 98.0252 9.85285C95.9961 9.70428 94.1411 10.6526 93.2831 12.73C92.848 13.7873 92.7609 14.8916 93.0146 16.0083C93.4025 17.7217 94.3847 18.9944 96.0831 19.5168C97.8263 20.0541 99.4973 19.8164 100.868 18.4868C101.907 17.4815 102.33 16.2187 102.347 14.7901Z" fill="#BB0000"/>
<path d="M151.154 37.6609C152.109 36.824 153.109 36.2941 154.257 36.1035C156.398 35.7469 158.393 36.0589 160.051 37.5717C161.344 38.7503 161.946 40.2805 161.993 41.984C162.061 44.3932 162.033 46.8074 162.021 49.219C162.016 50.1624 161.334 50.6972 160.417 50.5511C159.74 50.4422 159.35 49.9717 159.345 49.1819C159.333 47.2233 159.343 45.2648 159.335 43.3062C159.333 42.8754 159.31 42.4396 159.271 42.0113C159.082 40.0082 157.97 38.8122 155.986 38.4681C155.242 38.3393 154.496 38.3765 153.77 38.577C152.057 39.0475 151.112 40.2756 151.102 42.0707C151.087 44.2967 151.099 46.5226 151.097 48.7511C151.097 48.9987 151.102 49.2487 151.069 49.4914C150.98 50.1599 150.483 50.5685 149.776 50.5759C149.05 50.5833 148.518 50.15 148.429 49.4716C148.404 49.2884 148.411 49.1002 148.411 48.9145C148.411 45.2029 148.411 41.4913 148.411 37.7822C148.411 37.6584 148.409 37.5346 148.416 37.4108C148.451 36.6333 148.941 36.1084 149.684 36.0787C150.517 36.044 151.072 36.6308 151.084 37.2672C151.087 37.3613 151.117 37.4578 151.154 37.6609Z" fill="#BB0000"/>
<path d="M121.659 8.08721C122.457 8.08721 123.114 8.08473 123.773 8.08721C124.041 8.08721 124.312 8.07978 124.578 8.1095C125.252 8.18873 125.675 8.63194 125.68 9.23609C125.685 9.82292 125.237 10.2934 124.566 10.3379C123.969 10.38 123.365 10.3602 122.766 10.3652C122.44 10.3676 122.114 10.3652 121.714 10.3652C121.714 10.6648 121.714 10.8851 121.714 11.1055C121.714 14.0941 121.714 17.0851 121.714 20.0737C121.714 20.2792 121.719 20.4872 121.711 20.6927C121.679 21.5123 121.189 22.0026 120.391 22.0298C119.618 22.0545 119.09 21.5668 119.021 20.7447C119.001 20.5194 119.006 20.2916 119.006 20.0638C119.006 17.1149 119.006 14.1659 119.006 11.2194C119.006 10.9743 119.006 10.7291 119.006 10.4122C118.747 10.3949 118.531 10.38 118.312 10.3652C118.024 10.3454 117.728 10.3553 117.449 10.2958C116.952 10.1869 116.626 9.76101 116.614 9.27076C116.601 8.74584 116.915 8.29768 117.432 8.16892C117.688 8.10454 117.964 8.10454 118.23 8.08969C118.454 8.07731 118.678 8.08721 118.964 8.08721C118.996 7.65886 119.018 7.27507 119.053 6.89376C119.272 4.52667 120.371 2.7662 122.616 1.8055C123.41 1.46628 124.253 1.35486 125.106 1.37467C125.834 1.38952 126.344 1.91692 126.346 2.57802C126.351 3.23913 125.911 3.69472 125.18 3.7789C124.996 3.80119 124.807 3.80614 124.623 3.8309C124.419 3.85814 124.21 3.8829 124.014 3.93985C122.863 4.28401 122.142 5.06397 121.863 6.2079C121.726 6.77739 121.731 7.38154 121.659 8.08721Z" fill="#BB0000"/>
<path d="M109.246 10.3428C108.737 10.3428 108.321 10.3749 107.914 10.3353C107.272 10.2759 106.901 9.88469 106.874 9.31025C106.842 8.65657 107.197 8.22574 107.876 8.12175C108.1 8.08708 108.331 8.09451 108.558 8.08956C108.759 8.08461 108.963 8.08956 109.184 8.08956C109.259 7.39379 109.286 6.75745 109.398 6.13596C109.898 3.32566 112.133 1.36464 115.249 1.37207C116.261 1.37454 116.88 2.25106 116.49 3.07806C116.296 3.4866 115.953 3.69459 115.52 3.7664C115.316 3.80106 115.107 3.80354 114.901 3.82582C113.422 3.98924 112.402 4.8509 112.084 6.29443C111.962 6.84411 111.987 7.42598 111.942 8.03014C112.193 8.05737 112.35 8.08708 112.509 8.08708C113.173 8.09204 113.834 8.0747 114.496 8.09946C114.779 8.10937 115.078 8.16136 115.334 8.27526C115.759 8.46097 115.953 8.92151 115.886 9.41672C115.826 9.85498 115.518 10.214 115.053 10.3031C114.752 10.3626 114.436 10.3626 114.125 10.3675C113.444 10.3749 112.763 10.37 112.002 10.37C111.989 10.6523 111.969 10.89 111.969 11.1277C111.967 14.1385 111.969 17.1494 111.964 20.1603C111.964 20.4475 111.954 20.7396 111.897 21.0219C111.765 21.6855 111.261 22.0495 110.539 22.0371C109.895 22.0247 109.378 21.6038 109.274 20.9773C109.234 20.7347 109.241 20.4846 109.241 20.237C109.239 17.2063 109.239 14.1732 109.239 11.1425C109.246 10.9147 109.246 10.6919 109.246 10.3428Z" fill="#BB0000"/>
<path d="M104.163 35.9845C106.192 35.9523 107.873 36.71 109.248 38.1758C109.768 38.7304 109.817 39.2752 109.39 39.7704C108.945 40.2854 108.238 40.3523 107.662 39.9264C107.545 39.8422 107.443 39.7357 107.341 39.6342C106.01 38.3021 104.397 38.0916 102.686 38.6042C101.027 39.0994 100.105 40.3374 99.7465 41.984C99.458 43.3086 99.5426 44.616 100.192 45.8367C100.992 47.3372 102.251 48.1617 103.966 48.2706C105.185 48.3474 106.301 48.1047 107.298 47.3545C107.957 46.8593 108.567 46.8939 109.047 47.3545C109.559 47.8472 109.559 48.4959 109.032 48.9763C107.967 49.9395 106.702 50.4743 105.284 50.608C102.171 50.9027 99.6669 49.8627 97.9909 47.1465C97.2548 45.9531 96.9838 44.6259 97.0062 43.2393C97.0335 41.5011 97.4836 39.8917 98.6076 38.5274C100.037 36.7793 101.927 35.9969 104.163 35.9845Z" fill="#BB0000"/>
<path d="M87.6918 36.5811C87.6918 35.9819 87.6894 35.4495 87.6918 34.9172C87.6968 34.1744 87.6769 33.4315 87.7192 32.6912C87.759 31.9657 88.2613 31.5052 88.9576 31.4705C89.629 31.4383 90.176 31.8469 90.2979 32.508C90.3501 32.7903 90.3526 33.0824 90.3551 33.3696C90.36 34.4195 90.3576 35.4693 90.3576 36.5637C90.5565 36.5885 90.7107 36.6207 90.8673 36.6232C91.4666 36.6306 92.0684 36.6133 92.6677 36.6355C93.4087 36.6653 93.8663 37.1283 93.8513 37.7919C93.8364 38.4109 93.3689 38.8541 92.6577 38.8838C92.1206 38.9061 91.581 38.8887 91.0414 38.8937C90.84 38.8962 90.6361 38.9135 90.3924 38.9234C90.3799 39.1561 90.3576 39.3567 90.3576 39.5573C90.3551 41.4143 90.3551 43.2689 90.3576 45.1259C90.3576 45.6632 90.375 46.198 90.6261 46.6957C91.0116 47.4633 91.5984 47.9114 92.4837 47.909C92.6901 47.909 92.8989 47.9065 93.1053 47.9114C93.8762 47.9312 94.3238 48.3274 94.3909 49.0504C94.4606 49.7883 94.0677 50.3875 93.3366 50.484C92.7696 50.5583 92.1703 50.5633 91.6084 50.4692C89.7881 50.1572 88.6343 49.0405 88.0077 47.3419C87.7316 46.5917 87.6968 45.8093 87.6943 45.0244C87.6894 43.2292 87.6918 41.4366 87.6918 39.6415C87.6918 39.4186 87.6918 39.1982 87.6918 38.8887C87.3611 38.8887 87.0975 38.8962 86.8364 38.8863C86.5903 38.8788 86.3341 38.8912 86.0979 38.8318C85.5036 38.6882 85.1927 38.2375 85.2425 37.6458C85.2872 37.0911 85.6528 36.7073 86.2421 36.643C86.5505 36.6083 86.8638 36.6281 87.1721 36.6182C87.3114 36.6182 87.4531 36.6009 87.6918 36.5811Z" fill="#BB0000"/>
<path d="M80.8203 9.26579C81.0217 9.09247 81.1709 8.95876 81.3251 8.83001C82.9365 7.49047 84.7816 7.12649 86.7958 7.58951C87.1638 7.6737 87.5244 7.88664 87.8327 8.11443C88.2206 8.40165 88.3126 8.86715 88.1535 9.27569C87.9595 9.77338 87.6512 9.98384 87.1041 9.96651C86.8579 9.95908 86.6118 9.91204 86.3656 9.8749C85.3759 9.73128 84.3862 9.6991 83.4064 9.93432C82.7077 10.1027 82.096 10.4345 81.5862 10.9445C81.1162 11.415 80.8327 11.9746 80.8004 12.6431C80.7855 12.9303 80.773 13.22 80.773 13.5072C80.7706 15.7332 80.773 17.9592 80.7706 20.1876C80.7706 20.4352 80.7681 20.6828 80.7382 20.9279C80.6462 21.6856 80.216 22.0446 79.4377 22.0347C78.6469 22.0248 78.2242 21.6658 78.1372 20.918C78.1123 20.6927 78.1073 20.4649 78.1073 20.2396C78.1048 16.6122 78.1048 12.9823 78.1073 9.35493C78.1073 9.10732 78.1098 8.85972 78.1446 8.61459C78.2441 7.9213 78.6917 7.56227 79.4402 7.55485C80.2061 7.54742 80.6189 7.88168 80.7308 8.60221C80.7581 8.80277 80.783 9.00085 80.8203 9.26579Z" fill="#BB0000"/>
<path d="M79.311 43.3435C79.311 41.5286 79.311 39.7136 79.311 37.8987C79.311 37.6932 79.306 37.4852 79.3308 37.2822C79.4229 36.5517 79.9575 36.0739 80.6662 36.0714C81.4047 36.0689 81.9468 36.5666 82.0239 37.3267C82.0413 37.4902 82.0314 37.656 82.0314 37.8219C82.0314 41.4914 82.0314 45.1634 82.0314 48.8329C82.0314 48.9988 82.0388 49.1647 82.0214 49.3281C81.9319 50.0907 81.4495 50.5364 80.7134 50.5488C79.9301 50.5612 79.4303 50.1303 79.3308 49.343C79.306 49.1399 79.311 48.9319 79.311 48.7264C79.311 46.9313 79.311 45.1386 79.311 43.3435Z" fill="#BB0000"/>
<path d="M144.785 62.6517C144.609 62.6691 144.487 62.6889 144.363 62.6889C144.221 62.6889 144.077 62.6715 143.843 62.6542C143.843 61.9708 143.843 61.2998 143.843 60.6263C143.843 59.9677 143.843 59.3091 143.843 58.4945C143.686 58.747 143.597 58.8683 143.53 59.002C143.097 59.8687 142.672 60.7377 142.241 61.6068C142.125 61.8445 142.05 62.0822 141.687 62.0897C141.297 62.0971 141.209 61.8396 141.083 61.5821C140.675 60.7501 140.265 59.9182 139.852 59.0887C139.772 58.9302 139.68 58.7792 139.494 58.643C139.494 59.9652 139.494 61.2899 139.494 62.6517C139.153 62.6517 138.874 62.6517 138.554 62.6517C138.554 60.7105 138.554 58.7866 138.554 56.8652C138.648 56.8355 138.705 56.8058 138.765 56.8008C139.705 56.7241 139.703 56.7241 140.125 57.5709C140.623 58.5638 141.12 59.5567 141.65 60.6164C141.766 60.4258 141.859 60.302 141.928 60.1658C142.398 59.2249 142.885 58.2939 143.321 57.3381C143.51 56.9222 143.751 56.7167 144.213 56.7885C144.392 56.8157 144.574 56.8157 144.785 56.8306C144.785 58.7792 144.785 60.6857 144.785 62.6517Z" fill="#BB0000"/>
<path d="M120.62 62.5949C121.281 63.2485 121.423 63.256 122.637 62.6865C122.751 62.8895 122.87 63.095 122.98 63.2882C122.236 64.1647 120.754 64.3306 119.861 63.2238C119.595 62.8945 119.312 62.736 118.892 62.6716C117.392 62.4438 116.338 61.1736 116.363 59.688C116.388 58.2073 117.489 57.0089 119.009 56.8009C119.886 56.6821 120.702 56.8257 121.428 57.3481C123.204 58.6233 123.054 61.2454 121.152 62.32C120.995 62.4116 120.826 62.4909 120.62 62.5949ZM119.561 57.6948C118.374 57.6824 117.439 58.5589 117.412 59.7053C117.387 60.8418 118.315 61.7852 119.476 61.805C120.672 61.8248 121.58 60.9607 121.6 59.787C121.62 58.601 120.747 57.7072 119.561 57.6948Z" fill="#BB0000"/>
<path d="M55.3276 56.8254C55.6882 56.8254 55.9717 56.8254 56.29 56.8254C56.29 58.7691 56.29 60.6756 56.29 62.5822C55.5216 62.8199 55.3823 62.7803 54.9372 62.181C54.1837 61.1733 53.4328 60.1631 52.6793 59.1553C52.5624 58.9969 52.4306 58.8508 52.2118 58.5883C52.2118 60.0195 52.2118 61.3045 52.2118 62.6391C51.8612 62.6391 51.5653 62.6391 51.2246 62.6391C51.2246 60.7177 51.2246 58.7938 51.2246 56.8452C51.799 56.709 52.2292 56.7759 52.6022 57.3231C53.296 58.3457 54.0718 59.3138 54.8154 60.3042C54.9372 60.4676 55.069 60.6261 55.2978 60.9158C55.3376 59.4648 55.2878 58.1476 55.3276 56.8254Z" fill="#BB0000"/>
<path d="M107.552 62.6245C106.93 62.7929 106.512 62.6715 106.147 62.1318C105.441 61.0893 104.655 60.1014 103.899 59.0937C103.794 58.955 103.675 58.8287 103.466 58.5836C103.466 60.0172 103.466 61.3072 103.466 62.6418C103.116 62.6418 102.82 62.6418 102.477 62.6418C102.477 60.7155 102.477 58.7891 102.477 56.8504C103.068 56.7043 103.499 56.7761 103.872 57.3282C104.553 58.336 105.319 59.2893 106.05 60.2648C106.172 60.4282 106.301 60.5867 106.473 60.8046C106.667 60.3342 106.557 59.9058 106.577 59.4923C106.597 59.059 106.582 58.6257 106.582 58.1924C106.582 57.7615 106.582 57.3307 106.582 56.8454C106.928 56.8454 107.219 56.8454 107.552 56.8454C107.552 58.7693 107.552 60.6783 107.552 62.6245Z" fill="#BB0000"/>
<path d="M152.919 62.6641C152.544 62.6641 152.26 62.6641 151.935 62.6641C151.935 60.713 151.935 58.7891 151.935 56.8455C152.521 56.7093 152.952 56.7811 153.322 57.3308C154.016 58.3534 154.792 59.324 155.535 60.3119C155.657 60.4728 155.786 60.6288 156.015 60.9136C156.015 59.4725 156.015 58.1726 156.015 56.8331C156.373 56.8331 156.654 56.8331 157.017 56.8331C157.067 58.7495 157.027 60.6709 157.042 62.5824C156.192 62.8078 156.1 62.778 155.645 62.1689C154.782 61.0126 153.919 59.8588 152.979 58.601C152.872 59.1209 152.927 59.5394 152.919 59.9504C152.909 60.4035 152.917 60.8566 152.917 61.3098C152.919 61.7381 152.919 62.1689 152.919 62.6641Z" fill="#BB0000"/>
<path d="M19.7901 59.7524C19.7851 61.4435 18.4324 62.7434 16.6619 62.7508C14.874 62.7583 13.5013 61.4336 13.5138 59.7103C13.5237 58.0241 14.8988 56.7365 16.6743 56.7514C18.4597 56.7687 19.7926 58.0538 19.7901 59.7524ZM18.7457 59.7449C18.7457 58.5837 17.8331 57.6898 16.647 57.6948C15.4633 57.6997 14.5457 58.5985 14.5482 59.7499C14.5507 60.8988 15.4782 61.805 16.6544 61.8075C17.8306 61.8075 18.7457 60.9062 18.7457 59.7449Z" fill="#BB0000"/>
<path d="M50.1152 59.7374C50.1177 61.4286 48.77 62.7334 47.0019 62.7532C45.2165 62.7706 43.8339 61.4484 43.8389 59.73C43.8439 58.0364 45.1991 56.7513 46.9795 56.7538C48.7575 56.7563 50.1128 58.0463 50.1152 59.7374ZM47.0193 57.6922C45.8208 57.6774 44.8932 58.5465 44.8758 59.6978C44.8584 60.8616 45.7561 61.7826 46.9273 61.8049C48.106 61.8272 49.0435 60.9457 49.0733 59.7919C49.1007 58.6381 48.1906 57.7071 47.0193 57.6922Z" fill="#BB0000"/>
<path d="M11.5174 60.7502C11.9426 61.4014 12.3331 61.9956 12.7483 62.6369C12.5892 62.6642 12.5121 62.679 12.4325 62.6914C11.8855 62.7781 11.4577 62.6369 11.2588 62.0699C11.2513 62.0501 11.2364 62.0352 11.2265 62.0179C10.4929 60.8071 10.4929 60.8071 8.95118 60.9879C8.94123 61.2553 8.9288 61.5351 8.92382 61.8149C8.91885 62.0798 8.92382 62.3423 8.92382 62.6493C8.56326 62.6493 8.26734 62.6493 7.93164 62.6493C7.93164 60.7205 7.93164 58.8114 7.93164 56.8628C8.06095 56.8405 8.19523 56.7984 8.332 56.7959C9.01583 56.791 9.69967 56.791 10.381 56.7959C10.5675 56.7984 10.754 56.8083 10.938 56.8356C11.8233 56.9618 12.445 57.4843 12.6364 58.2519C12.8627 59.1556 12.5544 60.0321 11.8258 60.5521C11.7437 60.6066 11.6567 60.6586 11.5174 60.7502ZM8.96112 59.9851C9.62755 60.0222 10.2617 60.0742 10.8883 59.9281C11.4453 59.7969 11.7014 59.4453 11.7089 58.856C11.7139 58.2692 11.4702 57.9027 10.9032 57.7789C10.2617 57.6403 9.61015 57.6997 8.96361 57.7368C8.96112 58.5217 8.96112 59.2324 8.96112 59.9851Z" fill="#BB0000"/>
<path d="M90.2554 56.8231C90.5712 56.8231 90.8522 56.8231 91.2028 56.8231C91.2028 57.6253 91.2028 58.4201 91.2028 59.1902C91.6902 59.3511 93.5428 59.3833 94.3286 59.2496C94.3286 58.4696 94.3286 57.6748 94.3286 56.8354C94.6916 56.8354 94.9876 56.8354 95.3233 56.8354C95.3233 58.7618 95.3233 60.6708 95.3233 62.6343C95.0298 62.6343 94.7314 62.6343 94.3659 62.6343C94.3659 61.8965 94.3659 61.1437 94.3659 60.4158C93.876 60.24 92.0334 60.2078 91.2377 60.3539C91.2377 60.7228 91.2377 61.1091 91.2377 61.4953C91.2377 61.8618 91.2377 62.2307 91.2377 62.6418C90.8845 62.6418 90.5886 62.6418 90.2529 62.6418C90.2554 60.708 90.2554 58.7841 90.2554 56.8231Z" fill="#BB0000"/>
<path d="M111.34 62.649C111.34 60.6929 111.34 58.7839 111.34 56.8328C112.75 56.8328 114.122 56.8328 115.532 56.8328C115.532 57.1225 115.532 57.38 115.532 57.7068C114.471 57.7068 113.446 57.7068 112.387 57.7068C112.387 58.2441 112.387 58.7096 112.387 59.2568C113.322 59.2568 114.239 59.2568 115.197 59.2568C115.197 59.5936 115.197 59.8486 115.197 60.1655C114.272 60.1655 113.369 60.1655 112.446 60.1655C112.295 60.7177 112.335 61.2129 112.409 61.7749C113.481 61.7749 114.528 61.7749 115.617 61.7749C115.617 62.0944 115.617 62.3494 115.617 62.6465C114.207 62.649 112.809 62.649 111.34 62.649Z" fill="#BB0000"/>
<path d="M101.187 62.6639C99.7618 62.6639 98.3817 62.6639 97.0066 62.6639C96.8549 62.2257 96.8151 57.6747 96.9469 56.8849C97.3995 56.7635 100.436 56.7437 101.107 56.8651C101.107 57.1127 101.107 57.3677 101.107 57.6995C100.053 57.6995 99.0307 57.6995 97.9664 57.6995C97.9664 58.2368 97.9664 58.6998 97.9664 59.2346C98.884 59.3411 99.8115 59.2173 100.766 59.3114C100.766 59.5862 100.766 59.8413 100.766 60.178C99.8389 60.178 98.9213 60.178 97.9639 60.178C97.9639 60.7401 97.9639 61.2229 97.9639 61.7701C99.0432 61.7701 100.09 61.7701 101.184 61.7701C101.187 62.087 101.187 62.3421 101.187 62.6639Z" fill="#BB0000"/>
<path d="M146.364 62.6341C146.364 60.688 146.364 58.7814 146.364 56.8328C147.769 56.8328 149.142 56.8328 150.549 56.8328C150.549 57.1175 150.549 57.3725 150.549 57.6944C149.495 57.6944 148.468 57.6944 147.401 57.6944C147.401 58.2243 147.401 58.6873 147.401 59.2073C148.319 59.3831 149.269 59.1726 150.224 59.3261C150.224 59.6084 150.224 59.8634 150.224 60.1903C149.264 60.1903 148.344 60.1903 147.396 60.1903C147.396 60.7449 147.396 61.2277 147.396 61.7824C148.498 61.7824 149.562 61.7824 150.659 61.7824C150.659 62.0944 150.659 62.3345 150.659 62.5797C150.251 62.7158 147.351 62.7579 146.364 62.6341Z" fill="#BB0000"/>
<path d="M59.6984 56.8083C60.0763 56.8083 60.3822 56.8083 60.7651 56.8083C61.6081 58.7247 62.4536 60.6536 63.3314 62.6517C62.9211 62.6517 62.6028 62.6517 62.2497 62.6517C62.0756 62.2605 61.8991 61.8668 61.6852 61.389C60.7378 61.3766 59.7555 61.3716 58.7385 61.3989C58.547 61.8173 58.3605 62.2259 58.169 62.6517C57.8408 62.6517 57.5225 62.6517 57.1172 62.6517C57.99 60.6709 58.8355 58.7569 59.6984 56.8083ZM60.2753 58.0587C60.233 58.0512 60.1907 58.0438 60.1484 58.0389C59.8177 58.8163 59.487 59.5938 59.1364 60.4159C59.8898 60.4159 60.5388 60.4159 61.2724 60.4159C60.9218 59.5913 60.5985 58.8238 60.2753 58.0587Z" fill="#BB0000"/>
<path d="M25.7363 56.8205C27.1463 56.8205 28.5065 56.8205 29.909 56.8205C29.909 57.1053 29.909 57.3603 29.909 57.6847C28.8745 57.6847 27.85 57.6847 26.7758 57.6847C26.7758 58.2319 26.7758 58.7122 26.7758 59.2743C27.7033 59.2743 28.6234 59.2743 29.5683 59.2743C29.5683 59.611 29.5683 59.8661 29.5683 60.178C28.6283 60.178 27.7257 60.178 26.7758 60.178C26.7758 60.7178 26.7758 61.2006 26.7758 61.7577C27.8351 61.7577 28.8994 61.7577 30.0159 61.7577C30.0159 62.0846 30.0159 62.3396 30.0159 62.6863C28.6035 62.6986 27.1885 62.6937 25.7388 62.6887C25.7363 60.7129 25.7363 58.8038 25.7363 56.8205Z" fill="#BB0000"/>
<path d="M71.8339 56.838C71.8339 57.358 71.8339 57.8086 71.8339 58.2593C71.8339 58.7025 71.8339 59.1482 71.8339 59.7276C72.0702 59.5047 72.2044 59.3884 72.3238 59.2596C72.9455 58.596 73.5597 57.925 74.1789 57.259C74.6837 56.7167 74.808 56.6845 75.7281 56.895C74.987 57.7121 74.2758 58.497 73.5373 59.3141C74.3305 60.4159 75.0989 61.4831 75.8748 62.5552C75.1387 62.8424 74.7881 62.7582 74.3778 62.2086C73.873 61.5326 73.3657 60.8591 72.8062 60.1064C72.4606 60.51 72.0453 60.817 71.8886 61.2256C71.7295 61.6391 71.824 62.1516 71.8041 62.6542C71.4734 62.6542 71.1924 62.6542 70.9089 62.6542C70.7746 62.2259 70.7348 57.7368 70.8641 56.838C71.1551 56.838 71.451 56.838 71.8339 56.838Z" fill="#BB0000"/>
<path d="M35.9834 61.7305C36.1127 61.4755 36.2321 61.2378 36.3738 60.9555C36.5628 61.0743 36.7145 61.1709 36.8662 61.265C37.3486 61.5646 37.8608 61.7775 38.4377 61.7602C38.6591 61.7528 38.8978 61.7132 39.0967 61.624C39.5667 61.4136 39.6388 60.906 39.2385 60.5767C39.0544 60.4256 38.8107 60.334 38.582 60.2473C38.1567 60.0864 37.7191 59.9626 37.2939 59.8017C36.6449 59.5541 36.2992 59.0762 36.3017 58.3829C36.3042 57.6871 36.6747 57.2068 37.3063 56.9592C38.4253 56.5209 39.4846 56.7165 40.5539 57.3479C40.4097 57.65 40.2829 57.9174 40.1511 58.1922C39.7408 58.0437 39.3852 57.858 39.0097 57.7936C38.6342 57.7292 38.2214 57.7218 37.8559 57.8134C37.3983 57.9298 37.3038 58.4027 37.647 58.7295C37.8186 58.893 38.0598 58.9945 38.2861 59.0836C38.7262 59.2594 39.1837 59.3956 39.6239 59.5689C40.2679 59.819 40.6161 60.2993 40.631 60.9877C40.6459 61.6785 40.2853 62.1514 39.6836 62.4584C38.6591 62.9858 36.8512 62.7432 35.9834 61.7305Z" fill="#BB0000"/>
<path d="M123.79 56.8277C124.054 56.8277 124.335 56.8277 124.671 56.8277C124.688 56.9763 124.72 57.1323 124.72 57.2882C124.725 58.1747 124.723 59.0611 124.723 59.9475C124.723 60.1134 124.718 60.2793 124.738 60.4402C124.845 61.339 125.409 61.8169 126.339 61.8045C127.237 61.7922 127.782 61.3192 127.826 60.413C127.874 59.5093 127.846 58.6005 127.851 57.6943C127.854 57.4294 127.851 57.1644 127.851 56.845C128.197 56.845 128.493 56.845 128.799 56.845C128.823 56.8946 128.871 56.9466 128.873 57.001C128.878 58.1351 128.908 59.2666 128.873 60.4006C128.843 61.3811 128.428 62.1784 127.461 62.5325C126.436 62.9064 125.422 62.8692 124.519 62.1759C123.997 61.7748 123.741 61.1954 123.723 60.5591C123.688 59.3656 123.713 58.1697 123.718 56.9763C123.716 56.9366 123.751 56.902 123.79 56.8277Z" fill="#BB0000"/>
<path d="M35.302 57.3255C35.1279 57.6845 35.0036 57.9396 34.8792 58.1996C34.4888 58.056 34.1531 57.8876 33.795 57.8108C33.4593 57.739 33.0988 57.7291 32.7556 57.7514C32.5094 57.7687 32.2732 57.9 32.2085 58.1822C32.1414 58.4818 32.2707 58.7146 32.5219 58.8631C32.7133 58.977 32.9297 59.0563 33.1411 59.1355C33.5663 59.294 34.0014 59.4277 34.4192 59.601C35.0061 59.8461 35.3219 60.2943 35.3467 60.9405C35.3741 61.6066 35.0931 62.1068 34.5087 62.4064C33.5141 62.9139 32.5069 62.8199 31.5272 62.3519C31.2363 62.2132 30.9776 62.0077 30.6768 61.8121C30.8334 61.5026 30.9602 61.25 31.107 60.9579C31.3059 61.0842 31.4725 61.1906 31.6416 61.2946C32.1066 61.5794 32.6039 61.7799 33.1585 61.7626C33.3798 61.7552 33.6185 61.718 33.8199 61.6314C34.2725 61.4333 34.3545 60.891 33.9691 60.5766C33.7851 60.4255 33.5414 60.3364 33.3101 60.2497C32.865 60.0838 32.405 59.96 31.9673 59.7793C31.3805 59.5391 31.0597 59.0934 31.0423 58.4447C31.0249 57.7984 31.3133 57.3354 31.8728 57.0408C32.6512 56.6322 33.4693 56.6595 34.2849 56.8947C34.6156 56.9913 34.924 57.1621 35.302 57.3255Z" fill="#BB0000"/>
<path d="M3.22194 60.9281C3.22194 61.5495 3.22194 62.0769 3.22194 62.6464C2.87132 62.6464 2.57789 62.6464 2.24219 62.6464C2.24219 60.7077 2.24219 58.7863 2.24219 56.8129C3.29902 56.7881 4.32851 56.7015 5.34556 56.8649C6.34271 57.0258 6.91962 57.7736 6.93703 58.7789C6.95443 59.8237 6.3999 60.5789 5.40772 60.8191C5.10932 60.8909 4.796 60.9107 4.49014 60.9256C4.09725 60.9429 3.70684 60.9281 3.22194 60.9281ZM3.25924 57.7241C3.25924 58.5114 3.25924 59.2221 3.25924 59.9649C3.84112 59.9649 4.39565 60.0144 4.93774 59.9525C5.64147 59.8733 5.96474 59.4449 5.93738 58.7789C5.91252 58.1673 5.54698 57.7835 4.86065 57.7315C4.35089 57.6919 3.83615 57.7241 3.25924 57.7241Z" fill="#BB0000"/>
<path d="M133.887 62.649C133.511 62.649 133.213 62.649 132.88 62.649C132.88 60.7127 132.88 58.8062 132.88 56.8575C133.014 56.8352 133.151 56.7931 133.288 56.7931C133.949 56.7882 134.613 56.7882 135.275 56.7956C135.481 56.7981 135.69 56.808 135.894 56.8427C136.911 57.0135 137.51 57.687 137.552 58.6972C137.6 59.8065 137.077 60.5666 136.055 60.8167C135.757 60.891 135.444 60.9108 135.135 60.9257C134.747 60.943 134.357 60.9306 133.887 60.9306C133.887 61.5224 133.887 62.0671 133.887 62.649ZM133.914 59.9724C134.566 60.0343 135.178 60.0689 135.784 59.9204C136.297 59.7941 136.565 59.4227 136.585 58.8829C136.605 58.3456 136.356 57.9544 135.844 57.8083C135.205 57.6251 134.556 57.7093 133.914 57.739C133.914 58.5239 133.914 59.2345 133.914 59.9724Z" fill="#BB0000"/>
<path d="M89.1691 57.7218C89.015 57.9198 88.8533 58.1254 88.6569 58.3754C88.4729 58.2516 88.3112 58.1402 88.1446 58.0337C87.3638 57.541 86.3915 57.5633 85.7002 58.0833C84.8523 58.7221 84.621 59.9032 85.1681 60.792C85.7276 61.6983 86.8889 62.0424 87.886 61.5794C88.1272 61.468 88.346 61.3071 88.637 61.1313C88.811 61.3194 88.9975 61.52 89.1791 61.7131C88.1844 62.9289 86.0334 63.1294 84.7578 61.9087C83.5244 60.7277 83.5119 58.7666 84.7429 57.6054C85.9812 56.4416 88.0949 56.4788 89.1691 57.7218Z" fill="#BB0000"/>
<path d="M24.5275 59.3659C24.5275 59.7051 24.5275 59.9601 24.5275 60.2771C23.6546 60.2771 22.8166 60.2771 21.9065 60.2771C21.9065 61.0842 21.9065 61.8345 21.9065 62.6392C21.541 62.6392 21.2451 62.6392 20.8994 62.6392C20.8994 60.7277 20.8994 58.8063 20.8994 56.8378C22.1999 56.8378 23.488 56.8378 24.8134 56.8378C24.8134 57.1201 24.8134 57.3727 24.8134 57.697C23.8411 57.697 22.9012 57.697 21.9189 57.697C21.9189 58.2715 21.9189 58.7766 21.9189 59.3659C22.7744 59.3659 23.6298 59.3659 24.5275 59.3659Z" fill="#BB0000"/>
<path d="M82.4221 31.9736C82.4296 32.917 81.6388 33.7118 80.6889 33.7217C79.7315 33.7292 78.9432 32.9616 78.9308 32.0083C78.9184 31.0327 79.7191 30.2181 80.6864 30.2256C81.6313 30.233 82.4146 31.0228 82.4221 31.9736Z" fill="#BB0000"/>
<path d="M81.6112 57.692C81.6112 59.388 81.6112 61.0049 81.6112 62.6515C81.2382 62.6515 80.9423 62.6515 80.5916 62.6515C80.5916 61.0123 80.5916 59.4128 80.5916 57.7241C79.9551 57.7241 79.3707 57.7241 78.749 57.7241C78.749 57.3825 78.749 57.1274 78.749 56.8328C80.3206 56.8328 81.8623 56.8328 83.4513 56.8328C83.4513 57.1002 83.4513 57.3552 83.4513 57.6944C82.8545 57.692 82.2677 57.692 81.6112 57.692Z" fill="#BB0000"/>
<path d="M160.765 57.6822C160.765 59.4105 160.765 61.01 160.765 62.6491C160.419 62.6491 160.123 62.6491 159.752 62.6491C159.752 61.01 159.752 59.3956 159.752 57.7169C159.113 57.7169 158.544 57.7169 157.93 57.7169C157.93 57.3999 157.93 57.1449 157.93 56.8899C158.372 56.7661 161.593 56.7265 162.595 56.8379C162.595 57.0855 162.595 57.3405 162.595 57.6822C162.025 57.6822 161.441 57.6822 160.765 57.6822Z" fill="#BB0000"/>
<path d="M64.1455 56.8328C64.2748 56.8155 64.3743 56.7982 64.4737 56.7932C64.6578 56.7883 64.8418 56.7907 65.1078 56.7907C65.1601 57.6425 65.1277 58.4571 65.1327 59.2693C65.1377 60.0715 65.1352 60.8713 65.1352 61.7601C65.9807 61.7601 66.7938 61.7601 67.6418 61.7601C67.6418 62.1018 67.6418 62.3569 67.6418 62.6515C66.473 62.6515 65.3292 62.6515 64.1455 62.6515C64.1455 60.7004 64.1455 58.7815 64.1455 56.8328Z" fill="#BB0000"/>
<path d="M130.328 56.8277C130.674 56.8277 130.955 56.8277 131.271 56.8277C131.271 58.7714 131.271 60.6804 131.271 62.639C130.97 62.639 130.671 62.639 130.328 62.639C130.328 60.72 130.328 58.7986 130.328 56.8277Z" fill="#BB0000"/>
<path d="M77.7574 62.669C77.4938 62.669 77.2277 62.669 76.9691 62.669C76.8199 62.2307 76.7801 57.7095 76.9169 56.8404C77.2028 56.8404 77.4963 56.8404 77.7897 56.8404C77.9389 57.4965 77.9115 62.2357 77.7574 62.669Z" fill="#BB0000"/>
<path d="M42.7468 62.6614C42.421 62.6614 42.1375 62.6614 41.859 62.6614C41.7347 62.2058 41.7073 57.5806 41.8317 56.8353C42.1201 56.8353 42.416 56.8353 42.7493 56.8353C42.7468 58.7691 42.7468 60.6756 42.7468 62.6614Z" fill="#BB0000"/>
<path d="M25.5888 46.1042C19.208 46.1042 12.8272 46.1042 6.44635 46.1042C5.30745 46.1042 5.13587 45.9433 5.13587 44.8291C5.13338 38.8668 5.13587 32.9045 5.13587 26.9422C5.13587 26.7985 5.13338 26.6525 5.14582 26.5089C5.19555 25.9988 5.45665 25.7339 5.97388 25.6695C6.138 25.6497 6.30461 25.6596 6.47121 25.6596C19.2552 25.6596 32.0367 25.6596 44.8207 25.6596C44.9873 25.6596 45.1539 25.6497 45.318 25.6695C45.8552 25.7314 46.1262 26.0235 46.1511 26.5633C46.1585 26.7292 46.1536 26.8926 46.1536 27.0585C46.1536 32.9589 46.1536 38.8593 46.1536 44.7597C46.1536 44.8415 46.1536 44.9256 46.1536 45.0073C46.1461 45.8789 45.9248 46.1018 45.047 46.1018C38.5592 46.1042 32.074 46.1042 25.5888 46.1042ZM34.9934 44.3561C34.9934 38.6984 34.9934 33.0803 34.9934 27.4324C28.7493 27.4324 22.5476 27.4324 16.306 27.4324C16.306 33.0852 16.306 38.7058 16.306 44.3636C17.1241 44.3636 17.9199 44.3636 18.7802 44.3636C18.7802 44.0813 18.7802 43.8387 18.7802 43.5935C18.7802 40.3772 18.7802 37.1583 18.7802 33.9419C18.7802 33.7364 18.7703 33.5284 18.7927 33.3229C18.8524 32.8252 19.1334 32.5454 19.6332 32.4811C19.7973 32.4613 19.9639 32.4687 20.1305 32.4687C24.0868 32.4687 28.0431 32.4687 31.9994 32.4687C32.166 32.4687 32.3326 32.4613 32.4967 32.4811C33.0289 32.5454 33.3049 32.8376 33.3397 33.3749C33.3522 33.5606 33.3447 33.7463 33.3447 33.932C33.3447 37.1707 33.3447 40.4069 33.3447 43.6455C33.3447 43.8684 33.3447 44.0887 33.3447 44.3586C33.9291 44.3561 34.4538 44.3561 34.9934 44.3561ZM14.4783 44.3586C14.4783 38.6959 14.4783 33.0803 14.4783 27.4448C11.927 27.4448 9.41544 27.4448 6.89146 27.4448C6.89146 33.1025 6.89146 38.7182 6.89146 44.3586C9.44528 44.3586 11.9568 44.3586 14.4783 44.3586ZM31.5742 34.249C27.8591 34.249 24.2261 34.249 20.5657 34.249C20.5657 37.6362 20.5657 40.9838 20.5657 44.3215C21.2868 44.4626 31.1092 44.4304 31.5742 44.2868C31.5742 40.9615 31.5742 37.6287 31.5742 34.249ZM44.398 44.3611C44.398 40.964 44.398 37.6164 44.398 34.2737C43.5972 34.1474 37.2463 34.1821 36.8086 34.3109C36.8086 37.6436 36.8086 40.9813 36.8086 44.3586C39.3301 44.3611 41.8292 44.3611 44.398 44.3611ZM36.8285 27.4324C36.8285 29.1161 36.8285 30.7676 36.8285 32.4414C39.3699 32.4414 41.864 32.4414 44.4402 32.4414C44.4402 30.7577 44.4477 29.1037 44.4353 27.4324C41.8491 27.4324 39.355 27.4324 36.8285 27.4324Z" fill="#BB0000"/>
<path d="M25.5944 17.2041C22.3642 17.2041 19.134 17.2041 15.9014 17.2016C15.6552 17.2016 15.399 17.2016 15.1628 17.1422C14.6282 17.0085 14.3845 16.4786 14.6108 15.9784C14.6879 15.8101 14.7973 15.659 14.9017 15.503C15.7969 14.1635 16.6847 12.8215 17.5948 11.4943C17.841 11.1353 17.9454 10.7738 17.9379 10.343C17.918 9.08514 17.9305 7.82732 17.933 6.56949C17.933 6.36398 17.933 6.15351 17.9728 5.95295C18.0474 5.55926 18.2836 5.3389 18.6839 5.2869C18.8878 5.25966 19.0967 5.26461 19.3031 5.26461C23.528 5.26461 27.7528 5.26214 31.9777 5.26461C33.1788 5.26461 33.3429 5.42803 33.3454 6.61901C33.3454 7.89664 33.3553 9.17676 33.3404 10.4544C33.3354 10.801 33.4299 11.0883 33.6239 11.373C34.5415 12.7224 35.4416 14.0818 36.3493 15.4362C36.4189 15.5402 36.491 15.6392 36.5557 15.7457C37.0207 16.5133 36.6875 17.1521 35.7873 17.1991C35.3546 17.2214 34.9169 17.2041 34.4818 17.2041C31.5177 17.2041 28.556 17.2041 25.5944 17.2041ZM34.1983 15.4436C34.1262 15.2851 34.1038 15.2084 34.0615 15.144C33.4573 14.2328 32.8381 13.3316 32.2463 12.4129C32.0722 12.1431 31.8509 12.0985 31.5649 12.0985C27.6136 12.1034 23.6623 12.1059 19.7084 12.096C19.3802 12.096 19.1788 12.205 19.0022 12.4798C18.4427 13.3464 17.8584 14.1957 17.2889 15.0549C17.2168 15.1638 17.182 15.2951 17.1198 15.4436C22.8218 15.4436 28.4665 15.4436 34.1983 15.4436ZM31.5724 7.01517C27.5663 7.01517 23.6449 7.01517 19.7184 7.01517C19.7184 7.29249 19.7184 7.52524 19.7184 7.82484C22.2822 7.82484 24.7962 7.82484 27.3251 7.82484C27.3251 8.41909 27.3251 8.94401 27.3251 9.5234C24.7589 9.57045 22.225 9.50855 19.701 9.55807C19.701 9.84529 19.701 10.0434 19.701 10.234C20.2704 10.3752 31.0278 10.3727 31.5599 10.234C31.5599 10.0236 31.5599 9.81062 31.5599 9.53083C30.7219 9.53083 29.9237 9.53083 29.0683 9.53083C29.0832 8.92173 28.9837 8.38195 29.1429 7.77779C29.956 7.77779 30.7543 7.77779 31.5724 7.77779C31.5724 7.49305 31.5724 7.27268 31.5724 7.01517Z" fill="#BB0000"/>
<path d="M29.0725 24.8104C29.0626 24.0131 29.3311 23.3743 29.8434 22.8246C30.0398 22.6141 30.2636 22.4259 30.4477 22.2056C30.8654 21.7079 30.8555 21.1285 30.4303 20.6358C30.2686 20.45 30.0747 20.2916 29.9031 20.1133C29.3684 19.5587 29.0626 18.9075 29.075 18.0854C29.6345 17.9369 30.1766 18.0112 30.7485 18.0359C30.8256 18.5633 31.1589 18.8901 31.5045 19.2244C32.8398 20.5144 32.8299 22.3516 31.4921 23.659C31.1663 23.9759 30.8207 24.278 30.7734 24.8128C30.2065 24.8104 29.6619 24.8104 29.0725 24.8104Z" fill="#BB0000"/>
<path d="M18.8301 18.0431C19.3946 18.0431 19.9217 18.0431 20.4837 18.0431C20.5807 18.563 20.9214 18.9097 21.2819 19.2588C22.5675 20.5067 22.5675 22.3514 21.2869 23.6018C20.9288 23.9509 20.5707 24.2876 20.4887 24.8175C19.9242 24.8175 19.3946 24.8175 18.8375 24.8175C18.7828 24.0128 19.0812 23.3839 19.5786 22.8317C19.7452 22.6485 19.9391 22.49 20.1033 22.3068C20.6453 21.7076 20.6429 21.1431 20.0983 20.5538C19.959 20.4027 19.7999 20.269 19.6557 20.1205C19.0937 19.546 18.8599 18.9765 18.8301 18.0431Z" fill="#BB0000"/>
<path d="M23.968 18.0359C24.5425 18.0359 25.0547 18.0359 25.5993 18.0359C25.7137 18.5757 26.0767 18.9297 26.4473 19.2962C27.6956 20.5293 27.6806 22.3764 26.4224 23.602C26.0668 23.9487 25.6938 24.2805 25.6117 24.8153C25.0547 24.8153 24.5275 24.8153 23.9631 24.8153C23.9133 23.9784 24.2341 23.3371 24.7613 22.775C24.9453 22.5794 25.1542 22.4061 25.3258 22.2006C25.7385 21.7029 25.7261 21.1186 25.2984 20.6283C25.1219 20.4277 24.9105 20.2544 24.7314 20.0588C24.2242 19.5067 23.9208 18.8777 23.968 18.0359Z" fill="#BB0000"/>
<path d="M29.8936 30.7997C29.3216 30.7997 28.8144 30.7997 28.2698 30.7997C28.1405 30.2425 28.1952 29.7052 28.2325 29.1258C28.7895 29.1258 29.3142 29.1258 29.8936 29.1258C29.8936 29.6631 29.8936 30.2004 29.8936 30.7997Z" fill="#BB0000"/>
<path d="M23.0655 30.7997C22.4886 30.7997 21.9813 30.7997 21.4193 30.7997C21.3124 30.2475 21.3571 29.7102 21.3944 29.1284C21.9465 29.1284 22.4712 29.1284 23.0729 29.1284C23.1326 29.6583 23.1227 30.1956 23.0655 30.7997Z" fill="#BB0000"/>
<path d="M33.3302 30.7974C32.726 30.7974 32.2187 30.7974 31.6592 30.7974C31.6592 30.2279 31.6592 29.6881 31.6592 29.1161C32.2062 29.1161 32.7185 29.1161 33.3029 29.1161C33.3824 29.6534 33.3377 30.1932 33.3302 30.7974Z" fill="#BB0000"/>
<path d="M26.4572 30.7874C25.9076 30.7874 25.3829 30.7874 24.8135 30.7874C24.8135 30.2279 24.8135 29.7029 24.8135 29.1334C25.3581 29.1334 25.8827 29.1334 26.4572 29.1334C26.4572 29.6707 26.4572 30.2105 26.4572 30.7874Z" fill="#BB0000"/>
<path d="M17.9746 29.1111C18.5441 29.1111 19.0538 29.1111 19.6158 29.1111C19.6158 29.6706 19.6158 30.2104 19.6158 30.7873C19.0663 30.7873 18.5441 30.7873 17.9746 30.7873C17.9746 30.2302 17.9746 29.7053 17.9746 29.1111Z" fill="#BB0000"/>
<path d="M11.9427 29.1212C11.9427 29.6857 11.9427 30.2107 11.9427 30.7777C11.1097 30.7777 10.314 30.7777 9.47595 30.7777C9.34167 30.2379 9.40383 29.6981 9.43865 29.1212C10.2667 29.1212 11.0624 29.1212 11.9427 29.1212Z" fill="#BB0000"/>
<path d="M29.0601 35.9303C29.0601 36.5048 29.0601 37.0123 29.0601 37.515C28.6051 37.6512 24.1539 37.6957 23.1468 37.5744C23.015 37.047 23.0797 36.5072 23.112 35.9303C25.0939 35.9303 27.0434 35.9303 29.0601 35.9303Z" fill="#BB0000"/>
<path d="M39.3205 35.9278C40.1933 35.9278 41.009 35.9278 41.8619 35.9278C41.8619 36.4874 41.8619 37.0098 41.8619 37.5818C41.0338 37.5818 40.2182 37.5818 39.3653 37.5818C39.231 37.0371 39.3106 36.4998 39.3205 35.9278Z" fill="#BB0000"/>
<path d="M39.3458 29.1212C40.1888 29.1212 41.0019 29.1212 41.8598 29.1212C41.8598 29.6684 41.8598 30.1933 41.8598 30.795C41.0442 30.8445 40.2285 30.8148 39.3557 30.8148C39.2587 30.2379 39.2811 29.7006 39.3458 29.1212Z" fill="#BB0000"/>
</svg>
