<svg width="72" height="78" viewBox="0 0 72 78" fill="none" xmlns="http://www.w3.org/2000/svg">
<path fill-rule="evenodd" clip-rule="evenodd" d="M39.5647 71.8257C57.7736 70.0359 72 54.6793 72 36C72 16.1177 55.8823 0 36 0C16.1177 0 0 16.1177 0 36C0 54.6793 14.2264 70.0359 32.4353 71.8257L36 78L39.5647 71.8257Z" fill="#BB0000"/>
<path d="M34.75 51.375C35.3125 52.25 36.625 52.25 37.1875 51.375C46.3125 38.25 48 36.875 48 32C48 25.375 42.625 20 36 20C29.3125 20 24 25.375 24 32C24 36.875 25.625 38.25 34.75 51.375ZM36 37C33.1875 37 31 34.8125 31 32C31 29.25 33.1875 27 36 27C38.75 27 41 29.25 41 32C41 34.8125 38.75 37 36 37Z" fill="white"/>
</svg>
