<svg width="123" height="40" viewBox="0 0 123 40" fill="none" xmlns="http://www.w3.org/2000/svg">
<path fill-rule="evenodd" clip-rule="evenodd" d="M85.6816 0.0258143C83.8813 0.154619 82.6314 0.914892 81.9579 2.29059C81.5797 3.06327 81.4322 3.7519 81.3594 5.08537C81.3422 5.39927 81.3282 5.92029 81.3281 6.24317L81.3281 6.83022L81.1099 6.97506C80.8916 7.12006 80.1753 7.47944 79.9064 7.57892L79.7635 7.63179V7.95762V8.28345L80.5383 8.29147L81.313 8.29949L81.3218 11.4535C81.3303 14.507 81.302 16.2685 81.2373 16.7103C81.136 17.4029 80.9578 17.6935 80.5007 17.9119C80.294 18.0106 79.9156 18.107 79.7347 18.107H79.6432V18.3952V18.6834L79.7861 18.6652C80.7834 18.5377 83.6083 18.5269 85.7134 18.6426L86.082 18.6628V18.3549V18.047H85.8781C85.6203 18.047 85.2218 17.9986 84.9687 17.9366C84.694 17.8693 84.4848 17.7713 84.3435 17.6439C83.966 17.3034 83.9391 16.9042 83.9518 11.844L83.9608 8.29949L85.2771 8.29165L86.5935 8.28384V7.56354V6.84325L85.2771 6.83544L83.9608 6.8276L83.9622 5.16047C83.9636 3.42157 83.9824 3.06925 84.0974 2.61444C84.3162 1.7502 84.8647 1.33324 85.7811 1.3345C86.666 1.33573 87.2511 1.72377 87.6888 2.59969L87.8277 2.87755H87.9596H88.0914L88.6838 2.059C89.2652 1.25547 89.2758 1.23826 89.2572 1.12108C89.2333 0.969713 89.1953 0.929221 88.9003 0.740249C88.2809 0.343591 87.5215 0.10079 86.6659 0.0258443C86.2724 -0.00860977 86.1627 -0.00860977 85.6816 0.0258143ZM121.025 0.130318C120.454 0.317458 118.483 0.632681 117.622 0.674645L117.223 0.69405V0.957577V1.2211L117.396 1.23979C118.503 1.35928 118.652 1.52134 118.727 2.68443C118.758 3.17511 118.771 6.75251 118.741 6.75251C118.732 6.75251 118.573 6.72559 118.388 6.6927C117.558 6.54554 116.289 6.49847 115.532 6.58681C113.23 6.85563 111.433 8.19309 110.648 10.2219C110.421 10.8074 110.259 11.5086 110.179 12.2471C110.127 12.7311 110.16 13.9213 110.238 14.3673C110.398 15.2805 110.683 16.024 111.137 16.7103C111.398 17.1035 112.014 17.7219 112.394 17.9717C113.579 18.7507 115.145 19.0357 116.593 18.736C117.231 18.604 117.929 18.3148 118.502 17.9444L118.803 17.75L118.818 18.2489L118.833 18.7478L118.983 18.7988C119.114 18.8433 119.144 18.8445 119.216 18.8081C119.56 18.6347 121.47 18.3398 122.526 18.297L123 18.2779V17.9716V17.6654L122.677 17.6323C122.126 17.5762 121.797 17.4348 121.626 17.1808C121.533 17.0424 121.473 16.7482 121.437 16.2447C121.417 15.963 121.406 13.4255 121.406 9.06547C121.406 3.02527 121.423 1.17677 121.482 0.399373L121.501 0.159065L121.406 0.106498C121.29 0.042786 121.292 0.0426358 121.025 0.130318ZM2.63282 2.60191L0.0151644 5.11706L0.00758219 11.9348L0 18.7526L2.27914 21.0281L4.55831 23.3037H5.60218H6.64609L6.62891 23.508C6.61594 23.6624 6.62346 23.7349 6.65969 23.8048C6.78741 24.0514 7.0437 24.1378 7.49737 24.0873C7.92723 24.0394 7.92465 24.096 7.48744 24.3047C7.1815 24.4508 7.03034 24.5876 6.99441 24.7509L6.97576 24.8357H3.48796H0.000120358V28.3183V31.8009L2.62286 34.326L5.24561 36.851L12.1984 36.8493L19.1512 36.8476L21.7763 34.3214L24.4015 31.7952V25.289V18.7828L22.1072 16.4924L19.8129 14.202H17.8653H15.9177L15.5185 13.9558C15.2203 13.7717 15.0518 13.6423 14.8524 13.4438C14.7055 13.2977 14.5915 13.1721 14.5989 13.1646C14.6064 13.1572 14.7333 13.1773 14.881 13.2092C15.2232 13.2833 15.5599 13.3262 16.0521 13.3586C16.3412 13.3775 16.4812 13.4008 16.5886 13.4477C17.0303 13.6404 17.4804 13.3354 17.4811 12.8428L17.4813 12.7302H20.9414H24.4015L24.4003 8.9378L24.3991 5.14545L21.7625 2.61471L19.1259 0.0839688L12.1882 0.0853805L5.25048 0.0867623L2.63282 2.60191ZM21.3255 3.06231L23.7697 5.40985V8.75448V12.0991L20.2944 12.1067L16.8191 12.1144L16.9891 12.3397C17.1913 12.6075 17.2406 12.7148 17.2404 12.8869C17.2403 13.0496 17.1583 13.1859 17.0214 13.2507C16.8861 13.3148 16.8535 13.3138 16.6617 13.2397C16.5503 13.1967 16.3475 13.1654 15.9769 13.134C15.1697 13.0657 14.6347 12.9569 14.2201 12.7767L14.103 12.7259L14.1226 12.8256C14.1519 12.9749 14.3951 13.3113 14.6831 13.601C14.9503 13.8698 15.1701 14.0256 15.8716 14.4431C16.1032 14.581 16.3347 14.7251 16.3859 14.7633L16.479 14.8329H18.0256H19.5722L21.6709 16.9279L23.7697 19.0231L23.7673 25.2861L23.7649 31.5493L21.3153 33.8998L18.8658 36.2503L12.1935 36.2502L5.52127 36.2501L3.06212 33.8847L0.602934 31.5192L0.602423 28.4928L0.601881 25.4665H4.06784H7.53383L7.43021 25.3902C7.19856 25.2195 7.12557 24.9421 7.25982 24.7425C7.38866 24.5509 7.58083 24.4768 8.30442 24.3395C8.77018 24.2511 9.1705 24.0019 9.38641 23.666C9.46287 23.547 9.47562 23.5059 9.45059 23.4592C9.37742 23.3227 9.18624 23.3313 8.88659 23.4846C8.42886 23.7189 7.7931 23.8739 7.28744 23.8742C7.02977 23.8745 6.91498 23.8263 6.86055 23.6951C6.82743 23.6152 6.83128 23.5761 6.8895 23.4008C6.95178 23.2133 7.09563 22.9306 7.21027 22.7705L7.25868 22.7029H6.04129H4.82386L2.71289 20.5869L0.601881 18.4708L0.602152 11.9433L0.602423 5.41579L3.0468 3.06718L5.49119 0.718561L12.1863 0.716669L18.8814 0.714776L21.3255 3.06231ZM3.49837 3.51595L1.23478 5.68614L1.23424 11.9486L1.23373 18.2111L3.16655 20.1416L5.09941 22.0721L6.66429 22.0718L8.2292 22.0715L8.39468 21.9946C8.4857 21.9523 8.72607 21.8495 8.92887 21.7663C9.41707 21.5658 9.44187 21.5366 9.4907 21.1034L9.5068 20.9607H9.3176C9.21353 20.9607 8.98101 20.9337 8.80087 20.9006C8.37531 20.8225 8.03158 20.8223 7.8602 20.9C7.57487 21.0293 7.39958 21.0046 7.32424 20.8246C7.28847 20.7391 7.28633 20.6933 7.31341 20.5916C7.37698 20.3529 7.53239 20.1096 7.77788 19.8643C8.04076 19.6017 8.27914 19.4348 8.74069 19.1904C9.15823 18.9694 9.87228 18.4912 10.061 18.3062C10.2447 18.1261 10.3805 17.873 10.3805 17.7107C10.3805 17.6478 10.3742 17.5964 10.3665 17.5964C10.3587 17.5964 10.2711 17.6489 10.1717 17.7131C9.79317 17.9573 9.27115 18.1007 8.89276 18.0645C8.17814 17.9961 8.18377 17.9971 8.11098 17.9288C8.00324 17.8278 7.99547 17.7248 8.08198 17.545C8.21933 17.2594 8.47478 17.064 9.13253 16.7411C9.64192 16.4911 9.72779 16.4383 9.86027 16.2935C10.0026 16.138 10.1534 15.8784 10.1338 15.8226C10.1288 15.8084 10.0347 15.8548 9.92454 15.9256C9.61578 16.1242 9.26889 16.2122 8.78583 16.2145C8.50736 16.2158 8.22147 16.2807 8.02565 16.3871C7.94219 16.4324 7.79021 16.5647 7.67898 16.6888C7.46316 16.9295 7.36444 16.9956 7.22077 16.9956C6.92311 16.9956 6.85451 16.6926 6.97931 15.9293C7.13655 14.9676 7.41968 14.4187 7.95413 14.0392C8.05577 13.9671 8.33171 13.7922 8.56736 13.6507C9.17435 13.286 9.42547 13.1116 9.61319 12.9242C9.98261 12.5554 10.1699 12.2522 10.1699 12.0229V11.8844L10.0091 12.0215C9.80262 12.1977 9.65603 12.2606 9.26723 12.3402C8.95817 12.4034 8.6705 12.4205 8.21157 12.4027C8.02255 12.3954 7.94971 12.4073 7.78796 12.4719C7.55489 12.565 7.42037 12.5702 7.29042 12.4911C7.05944 12.3505 7.04009 12.0612 7.2424 11.7738C7.56389 11.3171 8.78116 10.4748 10.0116 9.85755C10.5369 9.59408 10.7389 9.45609 10.8154 9.30848C10.9068 9.13206 10.763 9.10244 10.3851 9.21984C10.1055 9.30665 10.0772 9.30962 9.62829 9.29932C9.1084 9.28739 9.00321 9.25687 8.93768 9.0989C8.88274 8.96652 8.92182 8.85331 9.08589 8.66953C9.28995 8.441 9.48423 8.31634 9.98935 8.08988C10.4764 7.87153 10.5911 7.7797 10.5911 7.60827V7.50374L10.2626 7.51113C9.90071 7.51924 9.80909 7.48538 9.72403 7.31218C9.64069 7.1425 9.81306 6.8568 10.1858 6.54665C10.4968 6.28793 10.6559 6.19265 10.9512 6.08839L11.1778 6.00836L10.9371 5.98881C10.6139 5.96252 10.4398 5.89341 10.3757 5.76601C10.2744 5.56461 10.385 5.40931 10.8769 5.06248C11.2575 4.79421 11.4937 4.59629 11.4937 4.54582C11.4937 4.52419 11.4569 4.48238 11.4118 4.45288C11.2509 4.34766 11.0447 4.13198 11.0129 4.03556C10.95 3.84532 11.0725 3.69805 11.3196 3.6669C11.3905 3.65797 11.4711 3.63118 11.4985 3.60739C11.5811 3.53575 11.6633 3.30713 11.777 2.83249C11.8363 2.58467 11.9068 2.33896 11.9336 2.28645C11.9904 2.17522 12.1069 2.11826 12.2497 2.13193C12.3484 2.14136 12.352 2.14653 12.3913 2.33685C12.5059 2.89169 12.6108 3.2888 12.6604 3.35507C12.7002 3.40838 12.7653 3.43908 12.8924 3.46441C13.1579 3.51733 13.2734 3.68621 13.1752 3.87831C13.1568 3.91438 13.0681 4.01937 12.9781 4.11161C12.7869 4.30753 12.7957 4.33171 13.0768 4.38103C13.4101 4.43949 13.5096 4.51356 13.5096 4.70304C13.5096 4.85062 13.4442 4.95284 13.2238 5.1495L13.0261 5.32595L13.1163 5.44848C13.166 5.51585 13.3483 5.67551 13.5216 5.80326C13.6948 5.93105 13.8699 6.07925 13.9107 6.13266C14.0523 6.31809 14.0641 6.53199 13.9402 6.6687C13.8658 6.75076 13.7257 6.81952 13.6846 6.79414C13.6652 6.78215 13.6591 6.78669 13.6703 6.8048C13.6811 6.82213 13.6668 6.84514 13.6386 6.85593C13.5983 6.8714 13.6159 6.89227 13.7216 6.95439C14.0783 7.16409 14.4889 7.54447 14.5951 7.76351C14.6776 7.93368 14.6517 8.08117 14.5225 8.17645C14.447 8.2322 14.3976 8.23914 14.0905 8.23698L13.7438 8.23454L13.7599 8.35434C13.7842 8.53541 13.895 8.62009 14.3938 8.83856C14.9529 9.08352 15.1749 9.20692 15.3672 9.37943C15.6037 9.5918 15.6723 9.80057 15.57 9.99786C15.4713 10.1886 15.0687 10.2851 14.6857 10.2098C14.3874 10.1513 13.9008 10.1698 13.9008 10.2398C13.9008 10.2789 14.1545 10.3982 14.431 10.4893C14.8437 10.6252 15.4984 10.992 15.9695 11.3512L16.1724 11.5059L16.7742 11.4873C17.1052 11.4771 18.6724 11.4687 20.2569 11.4686L23.1378 11.4685V8.57692V5.68527L20.8811 3.51544L18.6244 1.34558L12.1932 1.34567L5.76198 1.34579L3.49837 3.51595ZM37.9863 1.62014C36.95 1.66156 36.1357 1.8517 35.3686 2.23142C34.2136 2.80317 33.5083 3.72349 33.2116 5.04584C33.1507 5.31736 33.1421 5.43568 33.1423 6.00154C33.1425 6.49877 33.1548 6.70739 33.1956 6.90817C33.368 7.75645 33.7366 8.41769 34.4067 9.08049C34.8465 9.51556 35.2802 9.84019 36.6323 10.7464C38.1575 11.7687 38.5289 12.0288 38.8962 12.3318C39.7575 13.0423 40.079 13.7338 40.038 14.7878C39.99 16.0203 39.4679 16.7476 38.3777 17.1003C37.4377 17.4044 35.9969 17.3759 35.0388 17.0344C34.0173 16.6703 33.5775 16.1125 33.455 15.026L33.4197 14.7127H33.0778C32.8896 14.7127 32.7359 14.7251 32.7359 14.7403C32.7359 14.7556 32.7507 14.9752 32.7688 15.2285C32.787 15.4817 32.8106 16.2432 32.8215 16.9205L32.8412 18.1521L33.2866 18.2793C34.2195 18.5459 35.1269 18.6878 36.2111 18.7367C39.175 18.8704 41.2477 18.0091 42.1359 16.2747C42.5078 15.5483 42.6591 14.7767 42.6245 13.7815C42.584 12.6163 42.2672 11.7757 41.5734 10.9922C41.1153 10.4749 40.7303 10.1868 38.7071 8.84733C36.8901 7.64435 36.6026 7.43762 36.2562 7.08467C35.9644 6.78735 35.8084 6.54164 35.6925 6.19679C35.6164 5.9703 35.6116 5.92362 35.6105 5.38576C35.6091 4.73428 35.6372 4.58295 35.8329 4.18422C36.1439 3.55068 36.8135 3.17243 37.8329 3.05447C38.2373 3.00767 39.3115 3.03597 39.6862 3.10328C40.1167 3.18063 40.4534 3.28418 40.7573 3.43275C41.3511 3.72295 41.6991 4.30338 41.7526 5.09288L41.7714 5.37074H42.0668H42.3622L42.3615 3.64557L42.3609 1.9204L42.2797 1.90355C41.8729 1.81914 40.6664 1.69259 39.8367 1.64729C39.0486 1.60428 38.5622 1.59713 37.9863 1.62014ZM12.0679 2.87076C11.9184 3.50231 11.7696 3.82304 11.593 3.89426C11.5467 3.91294 11.4562 3.9388 11.392 3.95172L11.2751 3.97518L11.5274 4.18587C11.7982 4.41212 11.8338 4.4828 11.7631 4.65327C11.7127 4.77474 11.4421 5.01628 11.0683 5.27356C10.7134 5.51784 10.5981 5.6233 10.6507 5.65577C10.6695 5.66734 10.8182 5.68836 10.9814 5.70251C11.1445 5.71666 11.3265 5.74847 11.3858 5.77319C11.5801 5.85427 11.6038 6.05997 11.4334 6.18658C11.392 6.21737 11.2295 6.29018 11.0724 6.3484C10.9152 6.40658 10.719 6.49928 10.6362 6.5544C10.3385 6.75272 9.98935 7.11255 9.98935 7.22114C9.98935 7.2327 10.1373 7.23318 10.318 7.22222C10.6954 7.19936 10.7751 7.22162 10.8454 7.3695C10.9133 7.51221 10.9029 7.68018 10.8153 7.85558C10.7131 8.06023 10.6195 8.1255 10.0929 8.35884C9.6461 8.55683 9.3794 8.72795 9.26272 8.89157C9.22848 8.93955 9.20577 8.98406 9.21217 8.99046C9.21861 8.99689 9.42655 9.00479 9.6743 9.00803C10.093 9.01353 10.1405 9.00836 10.3481 8.93456C10.471 8.89091 10.6225 8.8552 10.6847 8.8552C11.0068 8.8552 11.1927 9.07769 11.1075 9.36123C11.0876 9.42764 11.0055 9.53911 10.8999 9.64347C10.7562 9.78534 10.6292 9.86449 10.1843 10.0894C8.55665 10.9119 7.26945 11.8885 7.39215 12.2078C7.42019 12.2807 7.49809 12.2777 7.68175 12.1967C7.86315 12.1166 7.88132 12.1146 8.35966 12.1219C8.75496 12.128 8.90807 12.1178 9.14195 12.0697C9.59625 11.9762 9.62853 11.9625 9.88404 11.7538C10.0892 11.5863 10.1399 11.5584 10.2273 11.5654C10.3753 11.5773 10.4557 11.7391 10.4557 12.0249C10.4557 12.3094 10.343 12.5348 10.0129 12.9104C9.71067 13.2543 9.44181 13.4611 8.78583 13.8543C8.51278 14.0179 8.19953 14.2173 8.08968 14.2974C7.62933 14.633 7.39365 15.1252 7.25329 16.0438C7.18629 16.4823 7.17807 16.6281 7.21692 16.6892C7.24369 16.7314 7.27204 16.7077 7.57578 16.3888C7.8667 16.0834 8.20188 15.9554 8.78574 15.9267C9.35942 15.8985 9.53354 15.8472 9.91666 15.5932C10.1229 15.4565 10.2885 15.4318 10.3808 15.5241C10.5205 15.6635 10.4065 16.0833 10.1375 16.4206C9.98917 16.6066 9.71431 16.79 9.29732 16.9811C8.81005 17.2045 8.68948 17.2809 8.48182 17.4977L8.28937 17.6987L8.57521 17.7394C9.15221 17.8215 9.5751 17.741 10.0345 17.4614C10.1503 17.3909 10.2814 17.3248 10.3258 17.3146C10.4409 17.2879 10.5513 17.3393 10.6232 17.453C10.7088 17.5885 10.6853 17.8731 10.5691 18.1053C10.387 18.4695 9.76444 18.9566 8.80436 19.4861C8.33074 19.7473 8.19535 19.845 7.94116 20.1093C7.75736 20.3004 7.55071 20.6388 7.59241 20.6804C7.6024 20.6904 7.68205 20.6665 7.76945 20.6273C7.90641 20.5659 7.97393 20.5563 8.25929 20.5575C8.44132 20.5582 8.69857 20.5806 8.83096 20.6072C9.2206 20.6855 9.30298 20.6912 9.48868 20.6531C9.66027 20.6179 9.66665 20.6189 9.7256 20.6912C9.78021 20.7581 9.78469 20.7966 9.77127 21.0828C9.74753 21.5895 9.61511 21.7911 9.19141 21.9659C8.05475 22.4348 7.57186 22.7231 7.35902 23.0596C7.28654 23.1743 7.13098 23.5287 7.13098 23.5792C7.13098 23.6152 7.26286 23.6101 7.65364 23.5589C8.05818 23.5059 8.47093 23.3788 8.78282 23.2109C8.90531 23.145 9.06113 23.0834 9.12916 23.0741C9.31453 23.0488 9.50337 23.1118 9.63473 23.243C9.73191 23.34 9.74861 23.376 9.7484 23.4879C9.7481 23.6504 9.6412 23.8438 9.43272 24.0592C9.13464 24.367 8.75351 24.5577 8.27033 24.6407C7.62936 24.7509 7.4133 24.8544 7.47721 25.0206C7.48635 25.0444 7.59527 25.1556 7.7193 25.2677C7.9714 25.4957 8.06371 25.6456 8.06371 25.8272C8.06371 26.075 7.9653 26.1745 7.47197 26.4254C7.12707 26.6007 6.83278 26.8116 6.66489 27.0038C6.39533 27.3122 5.97693 28.5222 6.03313 28.8308C6.05759 28.9651 6.12586 29.0711 6.18793 29.0711C6.21459 29.0711 6.33455 28.978 6.45455 28.8642C6.73277 28.6003 7.22666 28.2746 7.68761 28.0509C8.27222 27.7672 8.43115 27.721 8.9814 27.6747C9.82784 27.6034 10.056 27.5202 10.4743 27.1303C10.8538 26.7766 11.0893 26.6718 11.2172 26.7997C11.2641 26.8465 11.2681 27.025 11.2678 29.0497C11.2674 31.3487 11.2515 31.7163 11.132 32.1829C11.026 32.5967 10.9512 32.7007 10.3377 33.288C9.78959 33.8127 9.76844 33.8376 9.40528 34.3843C8.99668 34.9993 8.75736 35.2806 8.46623 35.488C8.36068 35.5632 8.27433 35.6303 8.27433 35.6371C8.27433 35.6439 10.0514 35.6491 12.2234 35.6486L16.1724 35.6478L15.9316 35.521C15.5959 35.3443 15.4494 35.2325 15.2149 34.9741C14.973 34.7074 14.7714 34.5493 14.3683 34.3103C13.6346 33.8752 13.2406 33.2773 13.1195 32.4147C13.0782 32.1205 13.0764 28.3687 13.1175 28.292C13.2321 28.0782 13.3818 28.0842 13.7461 28.3174C13.8986 28.415 14.0877 28.5103 14.1663 28.5291C14.2584 28.5512 14.5598 28.5602 15.0152 28.5544L15.7211 28.5456L15.9618 28.6301C16.3029 28.75 16.733 28.9809 17.2556 29.3249C18.007 29.8194 18.2828 29.9419 18.3356 29.8046C18.3955 29.6487 18.3202 29.2585 18.1108 28.6391C17.9391 28.1311 17.8503 27.9401 17.6996 27.7548C17.5744 27.6007 17.2447 27.3505 16.9625 27.1952C16.7243 27.0642 16.5701 26.8972 16.519 26.7148C16.4679 26.5327 16.5007 26.4243 16.6671 26.2246C17.0665 25.7456 16.9774 25.5398 16.3191 25.4203C15.6703 25.3026 15.4372 25.2159 15.1109 24.971C14.9318 24.8366 14.7331 24.6051 14.6415 24.4241C14.425 23.9966 15.0075 23.6343 15.4787 23.9035C15.8732 24.1288 16.3931 24.2765 16.9227 24.3137L17.2194 24.3345L17.1979 24.2471C17.139 24.0082 16.9688 23.7305 16.7615 23.5354C16.5853 23.3694 16.4761 23.3007 16.0909 23.1134C15.8379 22.9904 15.4721 22.8257 15.278 22.7474C14.7298 22.5264 14.5896 22.3492 14.5883 21.8755C14.5874 21.5629 14.6467 21.4316 14.7951 21.417C14.8722 21.4095 14.919 21.4347 15.0539 21.5567C15.3829 21.8541 15.5398 21.9113 16.0879 21.933C16.4748 21.9483 16.6181 21.9885 16.8263 22.1397C16.9693 22.2435 17.0901 22.2911 17.0901 22.2436C17.0901 22.1264 16.9459 21.713 16.805 21.4263C16.5285 20.8637 16.2587 20.5972 15.622 20.2581C14.89 19.8682 14.1412 19.3501 13.9522 19.1027C13.8916 19.0233 13.8059 18.8798 13.7618 18.7836C13.668 18.5789 13.6846 18.4775 13.8231 18.4113C13.926 18.362 14.0568 18.3938 14.4822 18.5717C14.8141 18.7105 15.0747 18.737 15.4159 18.6665C15.7114 18.6055 15.8629 18.605 16.0631 18.6643C16.1496 18.69 16.2467 18.7026 16.2789 18.6924C16.3323 18.6755 16.3337 18.6667 16.2955 18.5928C16.2387 18.4832 15.9727 18.2366 15.7459 18.0832C15.6436 18.0141 15.3218 17.8425 15.0307 17.7019C14.5639 17.4764 14.4793 17.424 14.314 17.2583C14.0766 17.0204 13.9008 16.6925 13.9008 16.4875C13.9008 16.3718 13.9159 16.3319 13.9835 16.269C14.1999 16.0675 14.34 16.0722 14.9158 16.3008C15.4751 16.5227 15.8215 16.6477 16.0521 16.7106C16.1514 16.7377 16.3545 16.8189 16.5034 16.891C16.8151 17.0419 16.9863 17.0793 17.0734 17.0156C17.131 16.9735 17.1311 16.9677 17.0776 16.6613C16.9474 15.9162 16.8054 15.5841 16.4673 15.235C16.2793 15.0409 16.1489 14.943 15.8114 14.7423C14.999 14.2591 14.8018 14.119 14.4863 13.8008C14.1675 13.4793 13.894 13.1042 13.842 12.9172C13.7827 12.7039 13.8134 12.489 13.9128 12.4227C13.9804 12.3777 14.1089 12.4025 14.3253 12.5023C14.7188 12.6838 15.2597 12.7931 16.0487 12.8508C16.3436 12.8723 16.5617 12.9048 16.6875 12.946C16.8481 12.9987 16.8862 13.0023 16.9267 12.9687C17.0251 12.8872 16.9144 12.6717 16.5806 12.295C16.0368 11.681 15.0521 11.01 14.3167 10.7522C13.8004 10.5713 13.5698 10.3997 13.5698 10.1966C13.5698 10.0644 13.617 10.0135 13.7955 9.95346C14.0307 9.87428 14.3274 9.86278 14.6862 9.91898C15.0251 9.97206 15.2185 9.9556 15.3082 9.86605C15.3482 9.8261 15.3468 9.80991 15.2957 9.72112C15.2109 9.57399 14.8807 9.36919 14.3371 9.12672C13.7561 8.86754 13.6554 8.80434 13.5587 8.63808C13.4619 8.4717 13.4364 8.32412 13.478 8.1702C13.5298 7.97808 13.5875 7.95404 13.9978 7.95404C14.1926 7.95404 14.3521 7.94257 14.3521 7.92851C14.3521 7.87315 14.173 7.66087 14.0038 7.51578C13.7978 7.33904 13.5116 7.14301 13.4597 7.14301C13.3905 7.14301 13.2389 6.98807 13.2389 6.91736C13.2389 6.81351 13.3629 6.6848 13.5683 6.57552C13.6684 6.52223 13.7504 6.45963 13.7504 6.43638C13.7504 6.36774 13.5727 6.18592 13.3765 6.05372C13.0908 5.86121 12.7993 5.55586 12.7592 5.40711C12.7145 5.24154 12.7615 5.15089 12.9791 4.98333C13.0699 4.91334 13.166 4.82296 13.1926 4.78243C13.2481 4.69797 13.2426 4.69436 13.0206 4.66796C12.6512 4.62401 12.4558 4.37202 12.59 4.11282C12.6138 4.06692 12.6951 3.97882 12.7706 3.91706C12.8461 3.85527 12.9079 3.79387 12.9079 3.78059C12.9079 3.76731 12.8482 3.74974 12.7752 3.74154C12.4936 3.70985 12.3563 3.51052 12.2323 2.95339C12.1882 2.75553 12.1488 2.59026 12.1446 2.58614C12.1405 2.582 12.106 2.71008 12.0679 2.87076ZM47.1755 4.53717C46.4611 5.74595 45.9407 6.40388 45.2716 6.94424C44.8392 7.29347 44.2855 7.61794 43.8309 7.78844L43.688 7.84206V8.07828V8.31451H44.4702H45.2525L45.252 8.47221C45.2518 8.55893 45.2381 9.95959 45.2217 11.5848C45.1826 15.4671 45.2114 16.1897 45.4316 16.8459C45.8905 18.2133 46.8788 18.8245 48.6402 18.8304C49.516 18.8333 50.122 18.7091 50.7433 18.3992C51.1649 18.189 51.6715 17.8051 51.841 17.5674L51.9018 17.4822L51.8083 17.2614C51.7568 17.14 51.7115 17.0371 51.7076 17.0328C51.7038 17.0284 51.5976 17.0717 51.4717 17.129C51.1822 17.2607 50.8083 17.3743 50.5179 17.4187C50.2198 17.4642 49.4755 17.4383 49.2444 17.3742C48.6433 17.2076 48.25 16.809 48.0708 16.1846C47.917 15.6492 47.919 15.7014 47.9079 11.8816L47.8975 8.31451H49.9148H51.9321V7.57856V6.84262H49.9162H47.9003V5.50591V4.1692H47.6467H47.393L47.1755 4.53717ZM57.5897 6.51481C55.9943 6.66816 54.6667 7.60265 54.1894 8.9084L54.0995 9.15426L54.3905 9.32527C54.6544 9.48027 54.6846 9.49135 54.7134 9.4438C55.1478 8.72841 55.5969 8.36422 56.3163 8.14377C56.5578 8.06975 56.6249 8.0626 57.0922 8.06095C57.5422 8.05939 57.6334 8.06765 57.8508 8.12977C58.4635 8.30474 58.9241 8.66896 59.1688 9.1718C59.3419 9.5277 59.3908 9.80579 59.4005 10.4907L59.4089 11.0899L58.2355 11.4527C57.5901 11.6523 56.9131 11.8679 56.7311 11.9319C55.7793 12.2663 55.1456 12.5029 54.9503 12.5967C54.266 12.9253 53.6765 13.4974 53.4041 14.0972C53.0566 14.8623 53.0099 15.9287 53.2875 16.7621C53.6084 17.7257 54.3216 18.3738 55.3469 18.6334C55.7527 18.7362 56.0356 18.7679 56.5452 18.7678C57.288 18.7676 57.8264 18.6511 58.4215 18.3618C58.7475 18.2034 59.2518 17.8547 59.437 17.6596L59.5252 17.5667L59.6391 17.8086C59.8457 18.2475 60.2047 18.5329 60.7389 18.683C61.0625 18.774 61.6484 18.7732 61.9928 18.6814C62.6101 18.5168 63.1813 18.0965 63.7018 17.424L63.8236 17.2666L63.6367 17.0561C63.5261 16.9316 63.4356 16.854 63.4152 16.8661C63.3961 16.8774 63.3332 16.9236 63.2753 16.9689C63.0091 17.1766 62.5487 17.1437 62.3217 16.9008C62.2241 16.7963 62.1106 16.5264 62.071 16.3047C62.0214 16.0263 62.0211 15.506 62.069 13.1915C62.1339 10.0548 62.0923 9.30178 61.8101 8.50976C61.5217 7.7004 60.8769 7.07434 60.0148 6.76671C59.3535 6.53076 58.4262 6.43443 57.5897 6.51481ZM92.7756 6.54185C90.8789 6.74136 89.4632 7.58046 88.5201 9.06411C88.0501 9.80348 87.7142 10.7897 87.5673 11.8617C87.4987 12.3623 87.4991 13.3818 87.5682 13.9167C87.8412 16.032 88.8291 17.5202 90.477 18.2986C91.3245 18.6989 92.1787 18.8704 93.3182 18.8691C93.9777 18.8684 94.4209 18.8234 94.9279 18.7058C96.5288 18.3344 97.7946 17.3552 98.5366 15.9142C99.09 14.8396 99.3582 13.558 99.3098 12.2195C99.1943 9.02732 97.5301 7.01201 94.6571 6.58537C94.2896 6.53079 93.1346 6.50406 92.7756 6.54185ZM71.739 6.58726C70.9187 6.71186 70.0209 7.05577 69.353 7.5013L69.1274 7.65183L69.1191 7.19092L69.1108 6.73004L68.9829 6.66227L68.855 6.5945L68.7053 6.67023C68.2959 6.87735 67.8649 7.00822 67.2528 7.11126C66.6152 7.21861 66.0371 7.27148 65.4643 7.27485L64.9003 7.27818L64.9001 7.61158L64.9 7.945L65.2084 7.96387C65.9832 8.01133 66.3002 8.22739 66.4219 8.7908C66.5031 9.167 66.5324 10.6077 66.5151 13.376C66.4982 16.0767 66.48 16.5496 66.3739 17.0348C66.2754 17.4856 66.1092 17.7099 65.7318 17.9015C65.5234 18.0073 65.1539 18.107 64.9704 18.107H64.8398V18.3958V18.6846L64.9677 18.6666C65.7059 18.5629 68.4962 18.5377 69.9924 18.6212L70.7371 18.6628V18.3849V18.107L70.6092 18.1065C70.4068 18.1057 70.0871 18.0271 69.8591 17.9222C69.5017 17.7578 69.3376 17.5067 69.2438 16.9806C69.1635 16.5304 69.1435 15.5711 69.143 12.1349L69.1424 8.7011L69.3906 8.58542C70.2205 8.19865 71.4909 8.08387 72.3405 8.31895C72.8797 8.46812 73.349 8.85084 73.5874 9.33581C73.9144 10.0008 73.9867 10.7136 73.9864 13.2657C73.9861 15.9407 73.9175 16.9286 73.6982 17.4164C73.5287 17.7935 73.1551 18.0036 72.4446 18.1211L72.3318 18.1398V18.4106V18.6815L72.4596 18.6642C73.0955 18.5785 75.4097 18.5332 76.529 18.5847C76.9427 18.6037 77.4945 18.6278 77.7551 18.6382L78.229 18.6571V18.3821V18.107H78.1074C77.9166 18.107 77.5424 18.02 77.3406 17.9286C76.889 17.7242 76.7374 17.3896 76.6661 16.4399C76.6479 16.1967 76.6343 14.9809 76.6339 13.5562C76.6328 9.83343 76.5888 9.35032 76.1709 8.47972C75.6936 7.4852 74.8727 6.88534 73.639 6.62929C73.2453 6.54758 72.1585 6.52355 71.739 6.58726ZM104.36 6.69012C103.744 6.96422 102.072 7.23303 100.983 7.23309L100.524 7.23312V7.58914V7.94518L100.807 7.96501C101.36 8.00379 101.767 8.16305 101.925 8.40207C102.128 8.70879 102.149 9.10139 102.149 12.5649C102.148 16.0686 102.121 16.7282 101.953 17.2188C101.786 17.7056 101.346 17.9954 100.667 18.0646L100.464 18.0853V18.385V18.6846L100.592 18.6667C101.48 18.5421 104.976 18.536 106.813 18.6558L106.918 18.6626L106.926 18.3398L106.935 18.0169H106.7C106.236 18.0169 105.734 17.9283 105.442 17.7949C105.127 17.651 104.981 17.4591 104.903 17.0894C104.809 16.6455 104.797 16.1023 104.797 12.5011V8.88644L104.955 8.79545C105.042 8.74538 105.221 8.66836 105.353 8.62429C105.572 8.55136 105.637 8.54397 106.075 8.54199C106.625 8.53949 106.868 8.59032 107.241 8.78587C107.484 8.91329 107.82 9.21446 107.957 9.42683L108.054 9.57834L108.309 9.56972L108.565 9.5611L109.057 8.65995C109.543 7.77039 109.549 7.75639 109.55 7.57151L109.551 7.38418L109.378 7.24682C109.141 7.05872 108.658 6.82799 108.332 6.74683C107.966 6.65563 107.087 6.64887 106.692 6.73421C106.007 6.88251 105.462 7.15634 104.834 7.66838L104.737 7.74813V7.23375V6.7194L104.632 6.67588C104.507 6.62346 104.511 6.62325 104.36 6.69012ZM94.1143 7.95738C95.1434 8.21916 95.859 9.0822 96.237 10.5174C96.5551 11.725 96.5928 13.2389 96.3378 14.5625C96.0754 15.9248 95.3613 16.9836 94.4747 17.3249C94.117 17.4627 93.7523 17.5157 93.2881 17.4975C92.5723 17.4694 92.0672 17.2571 91.5941 16.7856C90.744 15.9382 90.2778 14.3103 90.3337 12.3847C90.3861 10.5804 90.7873 9.37036 91.5992 8.56893C91.9102 8.26182 92.1997 8.09072 92.5881 7.98435C93.0596 7.85522 93.6703 7.84443 94.1143 7.95738ZM117.073 7.99823C117.72 8.09757 118.332 8.35425 118.675 8.66998L118.758 8.74628V12.7138V16.6814L118.585 16.7756C118.328 16.9152 117.936 17.0435 117.587 17.1017C117.125 17.1789 116.188 17.1506 115.745 17.0459C114.937 16.8552 114.287 16.4436 113.823 15.8282C113.432 15.3108 113.15 14.5745 113.019 13.7271C112.951 13.288 112.952 12.0612 113.021 11.5058C113.147 10.4855 113.408 9.7015 113.808 9.14056C113.987 8.88854 114.376 8.52625 114.628 8.37705C114.889 8.22226 115.328 8.0635 115.628 8.01502C115.753 7.99505 115.874 7.97471 115.899 7.96984C116.043 7.94176 116.828 7.96077 117.073 7.99823ZM59.424 14.5779V16.5724L59.2209 16.6926C58.7932 16.9458 58.3012 17.0804 57.7086 17.1063C57.0427 17.1355 56.601 17.0105 56.2554 16.6952C55.9315 16.3997 55.7751 15.9661 55.7784 15.3735C55.782 14.7419 55.9631 14.26 56.3371 13.8865C56.6868 13.5375 57.3609 13.2205 58.6718 12.7887C59.0607 12.6607 59.389 12.5621 59.4014 12.5697C59.4138 12.5773 59.424 13.481 59.424 14.5779ZM17.047 15.5162C17.2042 15.8672 17.391 16.6218 17.391 16.9056C17.391 17.2063 17.2331 17.3421 16.9076 17.3214C16.7521 17.3115 16.6486 17.2782 16.3819 17.1524C16.1992 17.0661 16.0323 16.9956 16.0111 16.9956C15.9463 16.9956 15.5402 16.8525 14.9301 16.6148C14.3967 16.4069 14.3425 16.3915 14.2606 16.4254C14.2117 16.4456 14.1716 16.4755 14.1716 16.4917C14.1716 16.5079 14.2208 16.6148 14.281 16.7291C14.4494 17.0491 14.6291 17.1928 15.2144 17.4758C15.7867 17.7526 16.058 17.9255 16.3269 18.185C16.6144 18.4622 16.6803 18.6784 16.5313 18.8551C16.4317 18.9733 16.2731 19.0174 16.1123 18.9715C15.9489 18.925 15.5599 18.9265 15.2803 18.9748C14.985 19.0259 14.7447 18.9882 14.3521 18.8294C14.1949 18.7658 14.0616 18.7182 14.0559 18.7237C14.0271 18.7511 14.2574 19.0275 14.4073 19.1454C14.6774 19.3579 15.231 19.7183 15.5806 19.9091C16.1903 20.2419 16.2579 20.2856 16.4732 20.4861C16.8411 20.8286 17.108 21.2704 17.2825 21.8259C17.4994 22.5158 17.2271 22.7442 16.6412 22.364L16.448 22.2386L16.0244 22.2182C15.492 22.1925 15.2986 22.1291 15.0018 21.8828L14.8542 21.7602L14.8712 21.9473C14.8894 22.1475 14.9409 22.2528 15.058 22.3294C15.0982 22.3557 15.3181 22.4552 15.5465 22.5505C16.829 23.0854 17.2081 23.3943 17.4525 24.1036C17.5316 24.3331 17.5269 24.4043 17.4256 24.5053C17.3056 24.6252 17.1725 24.6406 16.7333 24.5854C16.2508 24.5248 15.8949 24.4226 15.4971 24.2305C15.2459 24.1091 15.1624 24.0821 15.0808 24.0953C14.8728 24.129 14.8434 24.2261 14.9807 24.4254C15.1096 24.6124 15.3159 24.7901 15.5287 24.8974C15.7587 25.0132 15.9183 25.0608 16.232 25.1069C16.7611 25.1847 17.0469 25.3311 17.1576 25.581C17.2127 25.7055 17.216 25.7398 17.1859 25.8829C17.149 26.0586 17.0248 26.2737 16.8807 26.4115C16.6895 26.5944 16.7736 26.7505 17.1993 27.0031C17.5535 27.2133 17.9058 27.5205 18.0502 27.7451C18.2324 28.0286 18.5799 29.0636 18.639 29.4991C18.6704 29.7302 18.6298 29.9074 18.5174 30.0298C18.4256 30.1298 18.4061 30.1374 18.2427 30.1374C18.0136 30.1374 17.8444 30.0535 17.1202 29.5807C16.5148 29.1854 16.0662 28.9505 15.7768 28.8774C15.63 28.8403 15.4436 28.8322 14.8741 28.8383C14.1811 28.8455 14.1505 28.8434 13.9808 28.775C13.8841 28.7361 13.7181 28.6448 13.6119 28.5723C13.5057 28.4997 13.4045 28.4403 13.387 28.4403C13.365 28.4403 13.3591 29.0324 13.3678 30.3853C13.3812 32.4797 13.3826 32.4998 13.5483 32.9533C13.728 33.445 14.0254 33.7769 14.578 34.1025C14.8759 34.278 15.005 34.3801 15.3581 34.7193C15.7346 35.0809 15.8129 35.1413 16.0671 35.2664C16.2243 35.3437 16.4748 35.4427 16.6238 35.4865C16.8745 35.5602 16.9579 35.5681 17.7507 35.5935L18.6068 35.621L18.8639 35.3706C19.0053 35.2328 19.4866 34.7691 19.9334 34.3401C20.3803 33.9111 21.284 33.0421 21.9418 32.409L23.1378 31.258V25.2757V19.2934L21.2196 17.3785L19.3014 15.4637H18.1625C17.0888 15.4637 17.0249 15.4667 17.047 15.5162ZM63.5399 24.8895C63.2886 24.9806 63.142 25.1089 63.0304 25.3352C62.9391 25.5203 62.9293 25.5653 62.9303 25.7963C62.932 26.2015 63.0883 26.467 63.4202 26.6287C63.5739 26.7035 63.623 26.7119 63.9071 26.7119C64.1909 26.7119 64.2403 26.7035 64.3933 26.629C64.5906 26.5329 64.7599 26.3589 64.8488 26.161C64.8952 26.0575 64.9116 25.9571 64.9131 25.7668C64.9148 25.5454 64.9038 25.4887 64.8305 25.3396C64.6655 25.0042 64.3614 24.8347 63.9285 24.8369C63.7737 24.8377 63.6286 24.8573 63.5399 24.8895ZM95.7943 24.8895C95.543 24.9806 95.3963 25.1089 95.2847 25.3353C95.1934 25.5206 95.1837 25.5653 95.1849 25.7963C95.187 26.202 95.3429 26.4671 95.6746 26.6287C95.8283 26.7035 95.8774 26.7119 96.1615 26.7119C96.4453 26.7119 96.4947 26.7035 96.6477 26.629C96.845 26.5329 97.0143 26.3589 97.1031 26.161C97.1496 26.0575 97.166 25.9571 97.1674 25.7668C97.1692 25.5454 97.1582 25.4887 97.0848 25.3396C96.9199 25.0042 96.6157 24.8347 96.1829 24.8369C96.0281 24.8377 95.883 24.8573 95.7943 24.8895ZM42.3101 25.3077L42.3189 25.5082L42.5232 25.5457C42.8041 25.5973 43.0299 25.7065 43.1319 25.84C43.3117 26.0754 43.306 25.9706 43.3282 29.4466C43.349 32.7275 43.3539 32.8587 43.4761 33.4116C43.6426 34.1648 44.064 34.8215 44.6249 35.2018C45.0936 35.5196 45.6129 35.7038 46.3658 35.8195C46.8447 35.8932 48.0687 35.8938 48.5622 35.8208C50.4174 35.546 51.3211 34.6486 51.5902 32.8138C51.6313 32.5335 51.6428 32.0069 51.6624 29.5066C51.6878 26.2817 51.6916 26.2109 51.8546 25.9332C51.982 25.7161 52.2419 25.5704 52.5611 25.5371L52.7444 25.518V25.3115V25.1049L52.406 25.128C51.9765 25.1572 50.1735 25.158 49.6679 25.1292L49.2843 25.1073V25.3169C49.2843 25.5255 49.2847 25.5265 49.3671 25.5269C49.485 25.5274 49.7297 25.5968 49.8748 25.6708C50.042 25.7562 50.1457 25.8868 50.2093 26.0918C50.2583 26.2501 50.2622 26.4909 50.2622 29.4015C50.2622 31.8139 50.2532 32.6031 50.2232 32.8109C50.0787 33.8122 49.7637 34.359 49.161 34.6547C48.6729 34.8942 48.0167 34.992 47.2995 34.932C46.5808 34.872 46.1268 34.7081 45.779 34.3834C45.3934 34.0232 45.2162 33.5989 45.11 32.7808C45.0656 32.4391 45.0592 32.0337 45.0581 29.5367C45.0569 26.4485 45.0638 26.2889 45.2125 25.9813C45.3353 25.7271 45.5894 25.5742 45.9521 25.5362L46.1251 25.518V25.311V25.1041L45.8016 25.1276C45.3935 25.1572 43.094 25.1584 42.641 25.1292L42.3012 25.1073L42.3101 25.3077ZM1.2538 26.1173C1.24276 26.1283 1.23433 27.2874 1.23508 28.6931L1.23647 31.2489L3.49674 33.4191L5.75701 35.5894L6.5869 35.5889C7.52243 35.5883 7.70169 35.5648 8.0478 35.3973C8.44336 35.206 8.73859 34.8979 9.16054 34.2363C9.50078 33.7028 9.67171 33.5033 10.2035 33.0189C10.9737 32.3174 10.9814 32.2783 10.982 29.0775C10.9823 27.165 10.9801 27.0876 10.9278 27.1155C10.8978 27.1316 10.7564 27.253 10.6136 27.3854C10.1719 27.795 9.90242 27.8918 9.01149 27.9611C8.50977 28.0001 8.31844 28.0572 7.76939 28.3319C7.28085 28.5763 6.86922 28.8509 6.63646 29.0879C6.41856 29.3096 6.36287 29.3415 6.19272 29.3413C6.02573 29.3412 5.89307 29.2597 5.81975 29.1122C5.72975 28.9312 5.74242 28.5031 5.84794 28.1582C5.9488 27.8286 6.11967 27.3675 6.22097 27.1517C6.36386 26.8473 6.77227 26.4775 7.28142 26.1915L7.44691 26.0986L4.36039 26.0979C2.66279 26.0976 1.26481 26.1063 1.2538 26.1173ZM101.189 26.6139C101.157 26.6684 101.045 26.8525 100.941 27.0229C100.404 27.8972 99.8473 28.4315 99.1329 28.7562L98.8699 28.8758L98.8697 29.0185L98.8694 29.1612H99.3644H99.8594L99.8694 31.6919C99.8791 34.1881 99.8802 34.2259 99.9451 34.4566C100.1 35.0071 100.421 35.4316 100.834 35.6331C101.48 35.948 102.454 35.9661 103.202 35.6772C103.512 35.5573 103.95 35.2562 104.062 35.0858C104.107 35.0179 104.106 35.0013 104.058 34.8727C104.029 34.7961 104.003 34.7298 104 34.7255C103.997 34.7213 103.907 34.7569 103.801 34.8047C103.472 34.953 103.222 34.9981 102.82 34.9818C102.261 34.9591 101.988 34.8194 101.796 34.4578C101.589 34.0686 101.597 34.1759 101.585 31.5417L101.575 29.1612H102.855H104.135V28.6956V28.23H102.857H101.578L101.57 27.3814L101.562 26.5328L101.405 26.5238C101.255 26.5151 101.245 26.5193 101.189 26.6139ZM57.1951 28.0964C56.7143 28.1833 56.1672 28.4018 55.7828 28.6604L55.6179 28.7714L55.6094 28.46C55.6014 28.1674 55.5967 28.1467 55.531 28.1169C55.4737 28.0908 55.4213 28.1033 55.2386 28.1866C54.8408 28.3681 54.1771 28.4885 53.3989 28.5204L52.925 28.5398V28.7409V28.942L53.1654 28.9605C53.5718 28.9918 53.8117 29.1359 53.8885 29.3949C53.95 29.6022 53.9842 31.0121 53.9671 32.6306C53.9498 34.2708 53.9262 34.6435 53.8225 34.9202C53.723 35.1859 53.4326 35.3758 53.0479 35.4267L52.8949 35.447V35.6266C52.8949 35.7719 52.9033 35.8029 52.939 35.7892C52.9632 35.7799 53.278 35.7563 53.6385 35.7368C54.2621 35.703 55.1777 35.7109 56.2271 35.7592L56.6559 35.7789V35.6132V35.4474L56.513 35.4283C56.0686 35.3688 55.8338 35.2001 55.7423 34.8745C55.6582 34.5754 55.6352 33.8719 55.634 31.5724L55.6329 29.4328L55.7457 29.3755C56.1024 29.1947 56.7422 29.0792 57.2093 29.1116C58.0912 29.1726 58.5093 29.5583 58.6628 30.4528C58.7229 30.8026 58.751 33.1511 58.7047 33.9445C58.6487 34.9042 58.5726 35.1256 58.2428 35.2877C58.1395 35.3385 57.9704 35.3957 57.8669 35.4149L57.6789 35.4498V35.628C57.6789 35.7758 57.6867 35.8031 57.7251 35.7884C57.7505 35.7787 58.1508 35.7545 58.6147 35.7347C59.2702 35.7067 59.6534 35.7067 60.3361 35.7347C60.819 35.7546 61.265 35.7706 61.3271 35.7702L61.4399 35.7697V35.6098V35.4499L61.2239 35.4165C61.1049 35.3981 60.9328 35.3449 60.8409 35.2979C60.7008 35.2264 60.6604 35.1861 60.5898 35.0481C60.5435 34.9576 60.4914 34.8092 60.474 34.7183C60.4555 34.6214 60.4316 33.6588 60.4163 32.3903C60.402 31.2008 60.3774 30.1532 60.3616 30.0623C60.247 29.3997 59.9996 28.932 59.5812 28.5866C59.4185 28.4523 59.0581 28.2599 58.8373 28.1895C58.4112 28.0536 57.6658 28.0113 57.1951 28.0964ZM64.569 28.0979C64.1389 28.2848 63.2181 28.4431 62.5157 28.451L62.1322 28.4553L62.1321 28.6731L62.1319 28.8908L62.2447 28.8914C62.4225 28.8922 62.7583 28.9727 62.8691 29.041C63.0162 29.1318 63.0866 29.3053 63.1233 29.6675C63.1638 30.0668 63.1647 33.8328 63.1245 34.2978C63.0823 34.7841 63.0094 35.0088 62.8445 35.1606C62.707 35.2871 62.5204 35.3629 62.2673 35.3951C62.0077 35.4281 62.0116 35.4249 62.0116 35.6073V35.7714L62.5456 35.748C63.2415 35.7175 64.6119 35.7181 65.3454 35.7492L65.9261 35.7739L65.917 35.599L65.908 35.4242L65.7274 35.4023C65.3428 35.3554 65.0601 35.2141 64.9604 35.019C64.9299 34.9594 64.8886 34.8369 64.8687 34.7468C64.8181 34.5183 64.795 30.4439 64.837 29.1638L64.8691 28.1879L64.8041 28.1189C64.7283 28.0384 64.7098 28.0367 64.569 28.0979ZM96.8234 28.0979C96.3932 28.2848 95.4725 28.4431 94.7701 28.451L94.3866 28.4553L94.3865 28.6687L94.3863 28.8822L94.59 28.9011C95.0294 28.9419 95.2538 29.0697 95.3205 29.3171C95.3388 29.3846 95.3659 29.5563 95.3809 29.6985C95.4185 30.0548 95.4164 33.8103 95.3784 34.2776C95.3137 35.0734 95.1444 35.2976 94.5367 35.3916L94.3111 35.4265L94.302 35.5985L94.293 35.7705L94.8135 35.7476C95.4926 35.7176 96.8708 35.7182 97.5831 35.7488L98.1473 35.773V35.5953V35.4175L97.9743 35.4016C97.771 35.3828 97.4942 35.2908 97.3649 35.1989C97.2499 35.1171 97.166 34.9548 97.1219 34.7287C97.0733 34.4795 97.051 30.5003 97.091 29.2109L97.1228 28.1872L97.0581 28.1185C96.9827 28.0384 96.9641 28.0367 96.8234 28.0979ZM77.0706 28.1281C76.0007 28.3188 75.203 28.939 74.7209 29.9551C74.115 31.232 74.0716 32.9748 74.6166 34.136C75.0651 35.0914 75.9073 35.6724 77.0706 35.8289C77.4255 35.8767 78.1383 35.8693 78.4547 35.8145C79.2661 35.6741 79.9634 35.3192 80.3976 34.8254C80.5047 34.7037 80.5029 34.6895 80.3517 34.4504L80.2754 34.3296L80.1774 34.387C79.8294 34.5907 79.2668 34.7365 78.7079 34.7677C77.9375 34.8106 77.2799 34.6345 76.8292 34.2647C76.2897 33.822 75.971 33.0351 75.9212 32.0224L75.9031 31.6544H78.2893H80.6756L80.6564 31.1512C80.6248 30.3236 80.4987 29.7982 80.2089 29.2869C79.8735 28.6952 79.2052 28.2616 78.4172 28.1244C78.0954 28.0684 77.3948 28.0703 77.0706 28.1281ZM90.0667 28.1247C89.2842 28.2622 88.7467 28.6152 88.4754 29.1701C88.336 29.4551 88.2798 29.6821 88.258 30.0479C88.2085 30.8772 88.5549 31.5097 89.3403 32.0243C89.4761 32.1133 89.8691 32.3605 90.2136 32.5736C90.9484 33.0282 91.2037 33.2137 91.3386 33.3911C91.6297 33.774 91.5715 34.432 91.2201 34.7323C90.9785 34.9388 90.5374 35.039 90.0085 35.0076C89.4617 34.9751 89.1712 34.8605 88.9033 34.5716C88.6576 34.3067 88.5191 33.9691 88.5191 33.6355V33.5168H88.2594H87.9997L88.0181 33.6294C88.0398 33.7622 88.0965 34.7837 88.1062 35.2139L88.1129 35.5143L88.3235 35.584C88.9073 35.7771 89.6878 35.8789 90.3568 35.8494C92.1197 35.7715 93.0323 34.9919 93.0323 33.564C93.0323 32.8986 92.804 32.416 92.2783 31.9699C92.1717 31.8795 91.6591 31.5518 91.1391 31.2418C89.8096 30.4492 89.7076 30.347 89.7076 29.807C89.7076 29.5369 89.716 29.4907 89.7909 29.3488C89.9612 29.0261 90.2933 28.8789 90.8509 28.879C91.746 28.879 92.2287 29.2539 92.326 30.0248L92.3459 30.1825H92.5839H92.8219L92.8044 29.5742C92.7948 29.2397 92.7993 28.8105 92.8143 28.6205C92.8293 28.4305 92.8378 28.27 92.8331 28.2639C92.8194 28.2462 92.5652 28.2028 92.1748 28.1514C91.6666 28.0846 90.3878 28.0684 90.0667 28.1247ZM83.7201 28.205C83.2729 28.3526 82.2603 28.4991 81.6816 28.5L81.4785 28.5003V28.7212V28.942L81.7117 28.9601C82.1097 28.9909 82.3338 29.1083 82.4319 29.3375C82.5147 29.531 82.5384 30.3186 82.5221 32.3453C82.5058 34.3872 82.4915 34.635 82.3744 34.9072C82.2595 35.1744 81.9869 35.3453 81.5913 35.3982L81.4484 35.4174V35.595V35.7727L81.9073 35.7486C82.5046 35.7173 84.22 35.7178 84.9762 35.7495L85.5705 35.7744V35.5795V35.3846L85.3072 35.3646C84.8152 35.3273 84.5054 35.2141 84.3778 35.025C84.2389 34.8191 84.2372 34.7856 84.225 32.0885L84.2134 29.5338L84.353 29.4643C84.7645 29.2591 85.3538 29.2593 85.7572 29.4648C85.9067 29.5408 86.1908 29.8028 86.2519 29.9208C86.2925 29.9991 86.3071 30.0046 86.4515 29.9963L86.6073 29.9873L86.9297 29.4015C87.3073 28.7157 87.3227 28.6506 87.1426 28.5013C86.9913 28.3758 86.7119 28.2421 86.4731 28.1809C86.2012 28.1112 85.6836 28.1113 85.3749 28.1811C85.0677 28.2505 84.6495 28.4472 84.3895 28.6443L84.1864 28.7983V28.4852C84.1864 28.2063 84.1801 28.1686 84.1282 28.1409C84.0501 28.0992 84.0324 28.102 83.7201 28.205ZM66.1637 28.4223V28.6505H66.258C66.5293 28.6505 66.7742 28.8209 66.9216 29.1121C67.0156 29.2978 67.4352 30.341 68.8566 33.9223C69.2829 34.9962 69.6404 35.8847 69.6512 35.8967C69.662 35.9088 69.8261 35.892 70.0159 35.8594C70.2057 35.8268 70.3696 35.8 70.3801 35.7999C70.3907 35.7998 71.0053 34.4378 71.7459 32.7733C73.1661 29.5817 73.3866 29.1096 73.5367 28.9389C73.6446 28.8162 73.8859 28.691 74.0693 28.6626C74.1925 28.6436 74.1972 28.6389 74.1975 28.5341C74.1977 28.4742 74.2065 28.3733 74.217 28.3098L74.2361 28.1942L74.0436 28.2141C73.4025 28.2801 72.4138 28.2806 71.5269 28.2151L71.2787 28.1968V28.4052V28.6137L71.4216 28.6335C71.5002 28.6445 71.6505 28.6948 71.7555 28.7454C71.9145 28.822 71.956 28.8583 72.0031 28.9618C72.0748 29.1194 72.0747 29.1884 72.0024 29.4472C71.9551 29.6164 70.4272 33.4456 70.3936 33.4792C70.3883 33.4844 70.3336 33.343 70.272 33.1648C70.2104 32.9867 69.9089 32.1853 69.6021 31.384C68.9202 29.6037 68.8728 29.4668 68.852 29.2213C68.8375 29.0502 68.8442 29.013 68.9062 28.9209C68.9921 28.7934 69.2352 28.6641 69.4429 28.6356L69.5937 28.6149V28.4052V28.1955L69.3305 28.2146C68.4402 28.2793 66.9012 28.279 66.3367 28.214L66.1637 28.1941V28.4223ZM105.037 28.4228V28.6505L105.15 28.6508C105.309 28.6512 105.551 28.7723 105.661 28.9059C105.786 29.0573 105.889 29.3086 107.309 32.9368L108.533 36.0667L108.315 36.6316C107.875 37.769 107.621 38.2576 107.294 38.5923C106.995 38.8983 106.702 39.0061 106.255 38.9746C105.826 38.9443 105.501 38.7644 105.32 38.4551C105.253 38.3404 105.229 38.3229 105.141 38.3229C105.047 38.3229 105.014 38.3549 104.678 38.7644C104.25 39.2857 104.235 39.332 104.443 39.5008C104.823 39.8093 105.272 39.9571 105.94 39.9935C107.026 40.0528 107.848 39.7045 108.411 38.9457C108.769 38.464 108.7 38.6387 111.435 31.3259C111.84 30.2448 112.207 29.2938 112.251 29.2126C112.43 28.8854 112.73 28.6516 112.973 28.6508L113.071 28.6505V28.4224V28.1943L112.928 28.2137C112.443 28.2795 111.242 28.2796 110.401 28.2139L110.152 28.1946V28.4184V28.6422L110.309 28.6606C110.541 28.6882 110.759 28.8057 110.839 28.9468C110.967 29.1746 110.965 29.1832 110.17 31.5519C109.765 32.7565 109.419 33.7826 109.4 33.8322C109.367 33.9186 109.359 33.9032 109.206 33.4567C109.119 33.2006 108.769 32.2544 108.429 31.354C108.089 30.4536 107.781 29.6179 107.745 29.4969C107.667 29.2395 107.675 29.0197 107.767 28.8961C107.849 28.7852 108.12 28.6529 108.31 28.6306L108.467 28.6121V28.405V28.1978L108.204 28.2159C107.274 28.2797 105.857 28.279 105.225 28.2144L105.037 28.1952V28.4228ZM77.9131 28.9613C78.136 29.0214 78.3085 29.1189 78.4605 29.2706C78.7179 29.5276 78.8909 30.0524 78.8909 30.5763V30.8133H77.4016C76.5824 30.8133 75.9122 30.8028 75.9122 30.79C75.9122 30.7772 75.9262 30.6521 75.9434 30.5121C76.0536 29.6121 76.4328 29.0778 77.0631 28.9344C77.2787 28.8854 77.6783 28.898 77.9131 28.9613Z" fill="white"/>
</svg>
