<svg width="127" height="40" viewBox="0 0 127 40" fill="none" xmlns="http://www.w3.org/2000/svg">
<path d="M36.3987 25.4804C36.3987 25.4804 35.5605 33.9182 35.3877 35.3928H38.1891C38.1891 35.3928 38.5185 33.1055 39.2849 26.6175C39.4251 25.4411 39.6175 23.0818 39.6175 23.0818L36.3987 25.4804Z" fill="white"/>
<path d="M28.7835 3.77816C32.3774 2.88359 34.9636 4.55804 36.1409 11.7998C36.4834 14.1001 36.6464 16.4234 36.6334 18.7466C37.7194 17.8881 38.7565 17.0525 39.7446 16.2399C39.6631 13.4546 39.3239 10.6857 38.7369 7.96264C37.4846 2.37896 33.9363 0 30.3229 0C29.8076 0.00327681 29.2923 0.0524289 28.7803 0.140903L28.7835 3.77816Z" fill="white"/>
<path d="M30.3232 0C26.1423 0 18.5174 3.61432 10.8013 12.0521C2.09373 21.5745 0 29.0555 0 32.9745C0 36.8936 2.59596 40 7.31175 40C12.0275 40 19.5871 37.0083 30.8222 29.4126C42.0572 21.817 52.927 12.3077 52.927 12.3077L50.5821 6.89113C48.1656 8.83428 37.5534 19.1071 23.38 28.2821C9.774 37.0869 5.44957 35.632 4.85602 34.5048C4.35378 33.5512 3.33953 30.1696 8.85432 21.2403C14.3691 12.311 22.956 5.9769 27.3163 4.25985C28.2719 3.85025 29.2894 3.61432 30.3265 3.56189L30.3232 0Z" fill="white"/>
<path d="M124.176 18.6912V35.3865H127V18.6912H124.176Z" fill="white"/>
<path d="M72.3769 26.0378V23.7703H63.2845V26.2737H68.9819L63.1182 33.024L64.1389 35.3833H72.566V32.8798H66.3696L72.3769 26.0378Z" fill="white"/>
<path d="M52.8844 18.6912L45.6934 35.3865H48.8731L50.5331 31.4511H58.0372L59.6972 35.3865H62.8769L55.6891 18.6912H52.8844ZM51.6191 28.8755L54.2835 22.5545L56.948 28.8755H51.6191Z" fill="white"/>
<path d="M112.305 23.5081C108.721 23.5081 106.369 26.1066 106.369 29.5669C106.369 33.1452 108.694 35.6486 112.256 35.6486C114.441 35.6486 116.195 34.7672 117.311 33.2402L115.223 31.6902C114.545 32.6372 113.44 33.1746 112.279 33.1222C110.681 33.2074 109.317 31.9819 109.216 30.3795H117.81V29.2097C117.813 25.6085 115.722 23.5081 112.305 23.5081ZM109.265 28.3512C109.575 26.7292 110.641 25.7527 112.184 25.7527C113.655 25.7527 114.747 26.6112 114.985 28.3512H109.265Z" fill="white"/>
<path d="M119.424 35.3865H122.248V18.6912H119.424V35.3865Z" fill="white"/>
<path d="M100.078 26.0607C101.36 26.0443 102.517 26.834 102.974 28.0399L105.42 26.7292C104.422 24.6779 102.857 23.5081 100.006 23.5081C96.396 23.5081 93.999 26.0115 93.999 29.5669C93.999 33.1222 96.3504 35.6486 99.9345 35.6486C102.498 35.6486 104.35 34.4559 105.417 32.4996L102.971 31.1889C102.377 32.3587 101.428 33.096 100.075 33.096C98.2224 33.096 96.8689 31.5461 96.8689 29.5669C96.8689 27.5877 98.2256 26.0607 100.078 26.0607Z" fill="white"/>
<path d="M89.3712 25.4644H89.182V23.7703H86.3545V35.3866H89.1787V29.9963C89.1787 27.8991 90.2941 26.2771 92.0258 26.2771C92.4531 26.2673 92.877 26.3328 93.2847 26.4671V23.7015C92.9651 23.6327 92.6389 23.5999 92.3128 23.6065C91.0474 23.5639 89.8832 24.3012 89.3712 25.4644Z" fill="white"/>
<path d="M79.3076 23.5081C75.7234 23.5081 73.3721 26.1066 73.3721 29.5669C73.3721 33.1452 75.6973 35.6486 79.2586 35.6486C81.4437 35.6486 83.1982 34.7672 84.3136 33.2402L82.2231 31.6902C81.5448 32.6372 80.4392 33.1746 79.2782 33.1222C77.6802 33.2074 76.317 31.9819 76.2159 30.3795H84.8093V29.2097C84.8158 25.6085 82.7254 23.5081 79.3076 23.5081ZM76.2681 28.3512C76.5779 26.7292 77.6443 25.7527 79.1869 25.7527C80.6577 25.7527 81.7502 26.6112 81.9883 28.3512H76.2681Z" fill="white"/>
</svg>
