<svg width="184" height="40" viewBox="0 0 184 40" fill="none" xmlns="http://www.w3.org/2000/svg">
<g clip-path="url(#clip0)">
<path d="M126.976 34.7876H128.497C128.754 34.7876 128.993 34.8109 129.209 34.8576C129.424 34.9043 129.611 34.9802 129.763 35.0736C129.914 35.1728 130.037 35.3012 130.124 35.4588C130.212 35.6164 130.252 35.809 130.252 36.0308C130.252 36.2877 130.177 36.5153 130.037 36.7196C129.891 36.9239 129.669 37.064 129.366 37.1457V37.1749C129.739 37.2332 130.031 37.3617 130.241 37.5659C130.451 37.7702 130.556 38.0504 130.556 38.4006C130.556 38.6516 130.509 38.8676 130.416 39.0543C130.322 39.2411 130.188 39.3987 130.019 39.5213C129.844 39.6497 129.64 39.7373 129.401 39.8015C129.162 39.8657 128.9 39.8948 128.614 39.8948H126.987V34.7876H126.976ZM128.381 36.9706C128.824 36.9706 129.139 36.8947 129.331 36.7429C129.518 36.5912 129.617 36.3752 129.617 36.0892C129.617 35.809 129.518 35.6048 129.314 35.488C129.115 35.3654 128.812 35.3012 128.416 35.3012H127.629V36.9706H128.381ZM128.509 39.3929C128.952 39.3929 129.296 39.3112 129.541 39.1477C129.786 38.9843 129.908 38.7275 129.908 38.3773C129.908 38.0621 129.792 37.8286 129.553 37.6768C129.314 37.5309 128.97 37.455 128.515 37.455H127.623V39.3929H128.509Z" fill="white"/>
<path d="M133.052 34.3325C132.929 34.3325 132.824 34.2916 132.737 34.2157C132.649 34.1399 132.608 34.0348 132.608 33.9122C132.608 33.7955 132.649 33.6963 132.737 33.6145C132.824 33.5387 132.929 33.4978 133.052 33.4978C133.18 33.4978 133.285 33.5387 133.367 33.6145C133.455 33.6904 133.496 33.7896 133.496 33.9122C133.496 34.0406 133.449 34.1399 133.367 34.2157C133.28 34.2975 133.175 34.3325 133.052 34.3325ZM132.731 34.7877H133.379V39.9067H132.731V34.7877Z" fill="white"/>
<path d="M138.76 39.9065L137.529 37.7411H136.602V39.9065H135.955V34.7876H137.553C137.815 34.7876 138.054 34.8109 138.276 34.8635C138.497 34.916 138.684 34.9977 138.847 35.1086C139.005 35.2254 139.127 35.3713 139.214 35.5522C139.302 35.7332 139.349 35.955 139.349 36.2235C139.349 36.6262 139.244 36.9414 139.04 37.1865C138.83 37.4259 138.556 37.5893 138.206 37.6768L139.5 39.9124H138.76V39.9065ZM136.596 37.2157H137.454C137.856 37.2157 138.159 37.134 138.375 36.9706C138.591 36.8072 138.695 36.5562 138.695 36.2235C138.695 35.8849 138.591 35.6515 138.375 35.5114C138.159 35.3771 137.856 35.3071 137.454 35.3071H136.596V37.2157Z" fill="white"/>
<path d="M141.973 34.3325C141.85 34.3325 141.739 34.2916 141.658 34.2157C141.57 34.1399 141.529 34.0348 141.529 33.9122C141.529 33.7955 141.576 33.6963 141.658 33.6145C141.745 33.5387 141.85 33.4978 141.973 33.4978C142.095 33.4978 142.201 33.5387 142.288 33.6145C142.376 33.6904 142.417 33.7896 142.417 33.9122C142.417 34.0406 142.37 34.1399 142.288 34.2157C142.201 34.2975 142.095 34.3325 141.973 34.3325ZM141.652 34.7877H142.3V39.9067H141.652V34.7877Z" fill="white"/>
<path d="M144.87 34.7876H145.541L147.389 38.0037L147.943 39.066H147.972C147.955 38.8034 147.937 38.5349 147.92 38.2605C147.902 37.9804 147.89 37.706 147.89 37.4375V34.7876H148.503V39.9065H147.832L145.978 36.6846L145.424 35.6281H145.395C145.418 35.8908 145.436 36.1534 145.453 36.4219C145.471 36.6904 145.482 36.9589 145.482 37.2274V39.9065H144.864V34.7876H144.87Z" fill="white"/>
<path d="M150.788 37.3501C150.788 36.9416 150.846 36.568 150.957 36.2411C151.074 35.9143 151.231 35.6341 151.435 35.4065C151.639 35.1788 151.878 34.9979 152.158 34.8811C152.438 34.7586 152.741 34.7002 153.068 34.7002C153.383 34.7002 153.651 34.7644 153.884 34.8928C154.117 35.0212 154.31 35.1671 154.461 35.3306L154.094 35.745C153.96 35.5991 153.808 35.4823 153.645 35.3948C153.482 35.3072 153.289 35.2664 153.074 35.2664C152.829 35.2664 152.607 35.3131 152.409 35.4123C152.211 35.5115 152.042 35.6458 151.902 35.8267C151.762 36.0077 151.651 36.2236 151.575 36.4804C151.499 36.7373 151.459 37.0233 151.459 37.3385C151.459 37.6595 151.494 37.9513 151.569 38.2081C151.645 38.465 151.75 38.6868 151.884 38.8677C152.018 39.0487 152.182 39.1887 152.38 39.288C152.572 39.3872 152.794 39.4339 153.039 39.4339C153.289 39.4339 153.505 39.3872 153.692 39.288C153.878 39.1887 154.053 39.0487 154.217 38.8677L154.584 39.2646C154.38 39.4981 154.152 39.679 153.896 39.8133C153.639 39.9417 153.348 40.0059 153.021 40.0059C152.701 40.0059 152.403 39.9475 152.129 39.825C151.855 39.7082 151.616 39.5331 151.418 39.3055C151.22 39.0778 151.062 38.8035 150.951 38.4708C150.846 38.1381 150.788 37.7645 150.788 37.3501Z" fill="white"/>
<path d="M157.028 34.3325C156.905 34.3325 156.8 34.2916 156.712 34.2157C156.625 34.1399 156.584 34.0348 156.584 33.9122C156.584 33.7955 156.625 33.6963 156.712 33.6145C156.8 33.5387 156.905 33.4978 157.028 33.4978C157.15 33.4978 157.255 33.5387 157.343 33.6145C157.43 33.6904 157.471 33.7896 157.471 33.9122C157.471 34.0406 157.425 34.1399 157.343 34.2157C157.255 34.2975 157.15 34.3325 157.028 34.3325ZM156.707 34.7877H157.354V39.9067H156.707V34.7877Z" fill="white"/>
<path d="M162.671 34.7876H164.193C164.455 34.7876 164.688 34.8109 164.904 34.8576C165.12 34.9043 165.306 34.9802 165.458 35.0736C165.61 35.1728 165.732 35.3012 165.819 35.4588C165.907 35.6164 165.948 35.809 165.948 36.0308C165.948 36.2877 165.872 36.5153 165.732 36.7196C165.586 36.9239 165.365 37.064 165.061 37.1457V37.1749C165.435 37.2332 165.726 37.3617 165.936 37.5659C166.146 37.7702 166.245 38.0504 166.245 38.4006C166.245 38.6516 166.198 38.8676 166.105 39.0543C166.012 39.2411 165.878 39.3987 165.709 39.5213C165.534 39.6497 165.33 39.7373 165.091 39.8015C164.852 39.8657 164.589 39.8948 164.304 39.8948H162.677V34.7876H162.671ZM164.076 36.9706C164.519 36.9706 164.834 36.8947 165.021 36.7429C165.213 36.5912 165.306 36.3752 165.306 36.0892C165.306 35.809 165.207 35.6048 165.009 35.488C164.805 35.3654 164.508 35.3012 164.105 35.3012H163.318V36.9706H164.076ZM164.21 39.3929C164.653 39.3929 164.997 39.3112 165.242 39.1477C165.487 38.9843 165.61 38.7275 165.61 38.3773C165.61 38.0621 165.493 37.8286 165.254 37.6768C165.015 37.5309 164.671 37.455 164.216 37.455H163.324V39.3929H164.21Z" fill="white"/>
<path d="M170.764 38.3481H168.904L168.409 39.9124H167.75L169.482 34.7935H170.216L171.948 39.9124H171.254L170.764 38.3481ZM170.601 37.8228L170.362 37.0406C170.269 36.7546 170.176 36.4686 170.094 36.1885C170.006 35.9025 169.925 35.6165 169.843 35.3188H169.814C169.738 35.6165 169.657 35.9083 169.575 36.1885C169.493 36.4686 169.4 36.7546 169.307 37.0406L169.068 37.8228H170.601Z" fill="white"/>
<path d="M173.837 34.7876H174.507L176.356 38.0037L176.91 39.066H176.939C176.927 38.8034 176.91 38.5349 176.886 38.2605C176.869 37.9804 176.857 37.706 176.857 37.4375V34.7876H177.475V39.9065H176.805L174.951 36.6846L174.397 35.6281H174.367C174.391 35.8908 174.408 36.1534 174.426 36.4219C174.443 36.6904 174.455 36.9589 174.455 37.2274V39.9065H173.837V34.7876Z" fill="white"/>
<path d="M180.053 34.7876H180.7V37.3558H180.723L182.852 34.7876H183.586L181.989 36.7371L183.837 39.9065H183.108L181.58 37.2449L180.7 38.2839V39.9065H180.053V34.7876Z" fill="white"/>
<path d="M45.6367 16.1564L54.7151 25.6763V25.8923H50.3246L42.4356 17.5339V25.8923H38.8789V7.02173H42.4356V15.0007L49.5958 7.02173H54.0154V7.12096L45.6367 16.1564Z" fill="white"/>
<path d="M64.1498 19.6703C64.1498 18.001 63.0128 16.2091 61.1994 16.2091C59.3802 16.2091 58.2666 18.0068 58.2666 19.6703C58.2666 21.3397 59.3802 23.1608 61.1994 23.1608C63.0128 23.1608 64.1498 21.3397 64.1498 19.6703ZM67.2808 25.8866H63.7941V24.7484H63.7474C62.9894 25.7348 61.6775 26.2952 60.3889 26.2952C56.7564 26.2952 54.6807 22.9798 54.6807 19.6178C54.6807 16.3317 56.7797 13.0688 60.3365 13.0688C61.6251 13.0688 62.937 13.6233 63.7941 14.639V13.4774H67.2808V25.8866Z" fill="white"/>
<path d="M79.5015 19.6701C79.5015 18.0008 78.3937 16.2089 76.5745 16.2089C74.7553 16.2089 73.6474 18.0066 73.6474 19.6701C73.6474 21.3395 74.7611 23.1606 76.5745 23.1606C78.3937 23.1606 79.5015 21.3395 79.5015 19.6701ZM73.9973 14.6154C74.8078 13.6523 76.1138 13.0745 77.4316 13.0745C80.9417 13.0745 83.0932 16.3665 83.0932 19.6234C83.0932 23.0088 81.0233 26.3008 77.3558 26.3008C76.0963 26.3008 74.7553 25.7404 74.0498 24.7307H74.0031V32.5112H70.4639V13.4714H74.0031V14.6154H73.9973Z" fill="white"/>
<path d="M89.0699 25.8866H85.5307V13.4716H89.0699V25.8866ZM89.4023 8.26509C89.4023 9.42662 88.4693 10.3664 87.3032 10.3664C86.1429 10.3664 85.21 9.42662 85.21 8.26509C85.21 7.1269 86.1429 6.16382 87.3032 6.16382C88.4693 6.16966 89.4023 7.1269 89.4023 8.26509Z" fill="white"/>
<path d="M96.3468 25.8864H92.8133V16.4599H91.5947V13.4714H92.8133V9.28052H96.3468V13.4714H98.5216V16.4599H96.3468V25.8864Z" fill="white"/>
<path d="M108.522 19.6703C108.522 18.001 107.385 16.2091 105.566 16.2091C103.746 16.2091 102.633 18.0068 102.633 19.6703C102.633 21.3397 103.746 23.1608 105.566 23.1608C107.385 23.1608 108.522 21.3397 108.522 19.6703ZM111.653 25.8866H108.166V24.7484H108.119C107.362 25.7348 106.05 26.2952 104.761 26.2952C101.123 26.2952 99.0527 22.9798 99.0527 19.6178C99.0527 16.3317 101.152 13.0688 104.709 13.0688C105.997 13.0688 107.309 13.6233 108.166 14.639V13.4774H111.653V25.8866Z" fill="white"/>
<path d="M118.369 4.45361H114.83V25.8924H118.369V4.45361Z" fill="white"/>
<path d="M151.12 19.6703C151.12 18.001 149.983 16.2091 148.17 16.2091C146.351 16.2091 145.243 18.0068 145.243 19.6703C145.243 21.3397 146.351 23.1608 148.17 23.1608C149.983 23.1608 151.12 21.3397 151.12 19.6703ZM154.252 25.8866H150.765V24.7484H150.712C149.954 25.7348 148.637 26.2952 147.354 26.2952C143.715 26.2952 141.646 22.9798 141.646 19.6178C141.646 16.3317 143.745 13.0688 147.301 13.0688C148.59 13.0688 149.902 13.6233 150.765 14.639V13.4774H154.252V25.8866Z" fill="white"/>
<path d="M160.969 14.6154H161.021C161.756 13.5006 162.992 13.0745 164.252 13.0745C167.587 13.0745 168.543 15.4267 168.543 18.3101V25.8922H165.01V19.3141C165.01 17.8257 165.085 15.9053 163.091 15.9053C160.998 15.9053 160.969 18.2576 160.969 19.7518V25.8922H157.43V13.4714H160.969V14.6154Z" fill="white"/>
<path d="M175.242 18.0243H175.289L179.003 13.4774H183.604L178.368 18.9407L184 25.8865H179.353L175.289 20.6042H175.242V25.8865H171.703V4.44775H175.242V18.0243Z" fill="white"/>
<path d="M130.211 22.9038H132.532C134.526 22.9038 136.246 22.647 136.246 20.1721C136.246 17.6973 134.223 17.5981 132.357 17.5981H130.211V22.9038ZM130.211 14.7614H132.205C134.025 14.7614 134.905 14.2302 134.905 12.2574C134.905 10.3137 133.791 9.80588 132.229 9.80588H130.211V14.7614ZM126.497 6.82324H132.66C136.194 6.82324 138.368 8.21825 138.368 12.0064C138.368 13.3664 137.89 14.9365 136.701 15.7011C138.951 16.1038 139.954 18.3802 139.954 20.4757C139.954 24.2171 137.331 25.8864 133.873 25.8864H126.497V6.82324Z" fill="white"/>
<path d="M0.145508 32.6631H32.4827V32.6573L16.3199 16.4717L0.145508 32.6631Z" fill="white"/>
<path d="M0.00583072 0.145996H0V32.5114L16.1744 16.3258L0.00583072 0.145996Z" fill="white"/>
<path fill-rule="evenodd" clip-rule="evenodd" d="M32.4827 0H0.151367V0.00583686L16.3141 16.1914L32.4827 0.00583686V0Z" fill="white"/>
</g>
<defs>
<clipPath id="clip0">
<rect width="184" height="40" fill="white"/>
</clipPath>
</defs>
</svg>
