<svg width="98" height="40" viewBox="0 0 98 40" fill="none" xmlns="http://www.w3.org/2000/svg">
<g clip-path="url(#clip0)">
<path d="M49.4987 31.9818C50.9492 31.9818 51.6744 31.5949 51.6744 30.6725C51.6744 29.6381 50.885 29.2652 49.3063 29.2652H48.1152V31.9846L49.4987 31.9818ZM49.0999 27.3869C50.2909 27.3869 50.885 27.1766 50.885 26.1561C50.885 25.1861 50.2407 24.7965 48.9548 24.7965H48.1152V27.3841L49.0999 27.3869ZM45.3622 22.6938H49.3537C52.1374 22.6938 53.5879 23.6975 53.5879 25.8506C53.5767 26.6804 53.1472 27.4485 52.4443 27.8887V27.9195C53.599 28.3064 54.3884 29.3829 54.4079 30.6053C54.4079 32.6938 53.1834 34.132 49.8335 34.132H45.3594L45.3622 22.6938Z" fill="white"/>
<path d="M60.5694 31.8865V30.4931L59.2473 30.5268C58.4579 30.5408 57.8805 30.7987 57.8805 31.4463C57.8805 31.9649 58.3798 32.192 58.8595 32.192C59.4425 32.164 60.0143 32.0603 60.5694 31.8865ZM55.2725 31.6089C55.2725 29.3745 57.3031 28.9232 59.0381 28.9232H60.5694V28.3737C60.5694 27.5971 60.0701 27.3729 58.9767 27.3729C58.0897 27.4037 57.211 27.5326 56.3519 27.7597L55.8192 25.8029C56.9488 25.3403 58.1566 25.0992 59.3783 25.0908C62.1007 25.0908 63.1941 25.8674 63.1941 27.8579V31.7911C63.1941 32.0855 63.4842 32.15 63.9835 32.164L63.8887 34.2021C63.6767 34.2217 63.4675 34.2217 63.2583 34.2217C62.1984 34.2217 61.0687 34.0423 60.826 33.2826C60.1845 33.7844 59.264 34.2834 58.2989 34.2834C56.3659 34.2806 55.2725 33.3723 55.2725 31.6089Z" fill="white"/>
<path d="M65.3026 25.3011H67.9887V26.1898C68.5187 25.7861 69.6818 25.074 70.8533 25.074C73.6064 25.074 73.8017 26.5935 73.8017 28.6007V34.1348H71.1267V28.8278C71.1267 27.6139 70.8533 27.4037 69.9524 27.4037C69.2718 27.4149 68.5996 27.5747 67.9859 27.8746V34.1348H65.2998V25.3011H65.3026Z" fill="white"/>
<path d="M75.5371 21.9341H78.2232V28.5671L80.6583 25.2983H83.5397L80.3347 29.3773L84.0696 34.1348H80.7531L78.2232 30.4931V34.1348H75.5371V21.9341Z" fill="white"/>
<path d="M26.9606 5.8562H33.9729V17.3H22.5869V14.718L28.8768 8.39895L29.1865 8.09057L26.9606 5.8562Z" fill="white"/>
<path d="M19.898 -0.000244141L27.9508 8.09059L19.898 16.1814L18.085 14.3564V4.98153H14.9414L19.898 -0.000244141Z" fill="white"/>
<path d="M5.8291 5.8562V12.9041L7.74258 10.981L8.05219 10.6726L14.6461 17.3H17.2151V5.8562H5.8291Z" fill="white"/>
<path d="M-0.000976562 19.9998L8.05179 11.9089L16.1018 19.9998L14.2859 21.8248H4.95844V24.9815L-0.000976562 19.9998Z" fill="white"/>
<path d="M5.8291 34.1432V22.6995H17.2151V25.2815L10.9252 31.6005L10.6156 31.9089L10.9252 32.2173L12.8387 34.1432H5.8291Z" fill="white"/>
<path d="M19.9004 39.9998L11.8477 31.9089L19.9004 23.8181L21.7135 25.6404V35.018H24.8598L19.9004 39.9998Z" fill="white"/>
<path d="M33.9728 34.1432H22.584V22.6995H25.1529L31.4401 29.0213L31.7497 29.3269L32.0565 29.0185L33.9728 27.0953V34.1432Z" fill="white"/>
<path d="M31.7502 28.0935L23.7002 19.9998L25.5133 18.1748H34.8435V15.0181L39.8002 19.9998L31.7502 28.0935Z" fill="white"/>
<path d="M49.0377 11.9396C50.7419 11.9396 51.35 11.0509 51.35 9.98842C51.35 8.839 50.887 8.01758 49.4254 8.01758H48.106V11.9396H49.0377ZM45.3613 5.87012H49.7768C52.3291 5.87012 54.1616 7.37278 54.1616 9.92114C54.1616 12.1639 52.3318 14.0535 48.9428 14.0535H48.106V17.2803H45.3613V5.87012Z" fill="white"/>
<path d="M65.7207 16.6495L66.4933 14.6815C67.4501 15.0459 68.471 15.2225 69.4947 15.2001C70.8614 15.2001 71.4862 14.7796 71.4862 14.0871C71.4862 12.2312 66.0889 12.7303 66.0889 8.85866C66.0889 6.66354 68.1614 5.71035 70.1697 5.71035C71.397 5.67671 72.6159 5.94304 73.7177 6.48692L72.9311 8.39048C72.0692 8.09051 71.1627 7.93351 70.2506 7.9223C69.1125 7.9223 68.7555 8.35964 68.7555 8.84184C68.7555 10.3585 74.2505 10.3585 74.2505 13.9918C74.2505 16.4925 71.8739 17.4625 69.5281 17.4625C67.6676 17.4569 66.5742 17.1177 65.7207 16.6495Z" fill="white"/>
<path d="M75.6924 5.87012H78.4231V10.5015H82.8888V5.87012H85.6168V17.2803H82.8888V12.5816H78.4231V17.2775H75.6924V5.87012Z" fill="white"/>
<path d="M91.1794 11.9537L92.3202 7.56342L93.4583 11.9537H91.1794ZM94.1807 5.87012H90.457L86.6328 17.2803H89.4612L90.5379 13.9385H94.1026L95.1793 17.2803H98.0049L94.1807 5.87012Z" fill="white"/>
<path d="M58.3345 11.9537L59.4726 7.56061L60.6134 11.9509L58.3345 11.9537ZM61.3359 5.87012H57.6093L53.7852 17.2803H56.6163L57.6902 13.9385H61.2578L62.3316 17.2803H65.16L61.3359 5.87012Z" fill="white"/>
</g>
<defs>
<clipPath id="clip0">
<rect width="98" height="40" fill="white"/>
</clipPath>
</defs>
</svg>
