<svg width="100" height="24" viewBox="0 0 100 24" fill="none" xmlns="http://www.w3.org/2000/svg">
<path d="M2.61016 6.37637C1.98479 6.37637 1.48036 6.22582 1.09688 5.92471C0.713398 5.6177 0.46561 5.20737 0.353516 4.69372H1.10573C1.21782 5.03025 1.40071 5.28412 1.6544 5.45534C1.91399 5.62656 2.23257 5.71216 2.61016 5.71216C3.11753 5.71216 3.49511 5.60589 3.7429 5.39335C3.99069 5.1808 4.11458 4.91807 4.11458 4.60515C4.11458 4.40442 4.06148 4.24206 3.95529 4.11807C3.85499 3.99409 3.7193 3.89372 3.54821 3.81697C3.38302 3.73431 3.19128 3.66641 2.97299 3.61328C2.7606 3.56014 2.54231 3.50405 2.31812 3.44501C2.09983 3.38597 1.88154 3.31807 1.66325 3.24132C1.45086 3.15866 1.25912 3.05239 1.08803 2.9225C0.922838 2.79261 0.787144 2.63025 0.68095 2.43542C0.580655 2.23468 0.530507 1.98376 0.530507 1.68265C0.530507 1.4524 0.574755 1.23395 0.66325 1.0273C0.757646 0.820662 0.893339 0.643541 1.07033 0.49594C1.24732 0.342435 1.46561 0.221402 1.7252 0.132841C1.98479 0.0442801 2.27977 0 2.61016 0C3.16473 0 3.62786 0.129889 3.99954 0.389667C4.37712 0.643541 4.62196 1.0155 4.73405 1.50553H3.98184C3.89334 1.25756 3.737 1.05682 3.51281 0.903319C3.28862 0.74391 2.98774 0.664205 2.61016 0.664205C2.16768 0.664205 1.83434 0.761622 1.61015 0.956455C1.39186 1.15129 1.28272 1.39335 1.28272 1.68265C1.28272 1.8952 1.33287 2.06937 1.43316 2.20516C1.53936 2.33505 1.67505 2.44427 1.84024 2.53284C2.01133 2.61549 2.20308 2.68634 2.41546 2.74538C2.63375 2.79852 2.85204 2.85461 3.07033 2.91365C3.29452 2.97269 3.51281 3.04058 3.7252 3.11734C3.94349 3.18818 4.13523 3.28855 4.30042 3.41844C4.47151 3.54243 4.60721 3.69888 4.7075 3.88781C4.8137 4.07674 4.86679 4.31586 4.86679 4.60515C4.86679 4.83541 4.81665 5.05977 4.71635 5.27822C4.62196 5.49076 4.47741 5.67969 4.28272 5.84501C4.09393 6.00441 3.85794 6.1343 3.57476 6.23467C3.29747 6.32914 2.97594 6.37637 2.61016 6.37637Z" fill="white"/>
<path d="M5.83886 1.68265H6.50258V6.28781H5.83886V1.68265ZM6.17515 1.01845C6.04535 1.01845 5.93326 0.974167 5.83886 0.885607C5.75037 0.797046 5.70612 0.687821 5.70612 0.557932C5.70612 0.428043 5.75037 0.318819 5.83886 0.230258C5.92736 0.135793 6.03945 0.0885606 6.17515 0.0885606C6.30494 0.0885606 6.41409 0.135793 6.50258 0.230258C6.59108 0.318819 6.63532 0.428043 6.63532 0.557932C6.63532 0.681917 6.59108 0.791142 6.50258 0.885607C6.41409 0.974167 6.30494 1.01845 6.17515 1.01845Z" fill="white"/>
<path d="M9.20032 6.28781C8.86403 6.28781 8.58675 6.18154 8.36846 5.96899C8.15607 5.75054 8.04987 5.47305 8.04987 5.13652V2.30258H7.34191V1.68265H8.04987L8.13837 0.442803H8.71359V1.68265H9.90828V2.30258H8.71359V5.13652C8.71359 5.29002 8.76374 5.41696 8.86403 5.51733C8.96433 5.6177 9.09117 5.66788 9.24457 5.66788H9.90828V6.28781H9.20032Z" fill="white"/>
<path d="M12.7021 6.37637C12.3894 6.37637 12.1033 6.32618 11.8437 6.22582C11.5841 6.11954 11.3599 5.96604 11.1711 5.7653C10.9883 5.55866 10.8437 5.30774 10.7375 5.01253C10.6313 4.71733 10.5782 4.3749 10.5782 3.98523C10.5782 3.59556 10.6284 3.25313 10.7287 2.95793C10.8349 2.66272 10.9794 2.41475 11.1623 2.21402C11.3511 2.00738 11.5723 1.85387 11.826 1.7535C12.0797 1.64723 12.357 1.59409 12.6579 1.59409C13.0119 1.59409 13.3186 1.66199 13.5782 1.79778C13.8378 1.92767 14.0532 2.09889 14.2242 2.31143C14.4012 2.51808 14.531 2.74833 14.6136 3.00221C14.6962 3.25018 14.7375 3.48929 14.7375 3.71955C14.7375 3.78449 14.7346 3.84353 14.7287 3.89667C14.7228 3.94981 14.7169 3.99704 14.711 4.03837C14.7051 4.0856 14.6992 4.12693 14.6933 4.16235H11.2419C11.2655 4.69372 11.413 5.09224 11.6844 5.35792C11.9617 5.6236 12.3009 5.75644 12.7021 5.75644C13.2331 5.75644 13.6313 5.53504 13.8968 5.09224H14.6048C14.4514 5.51733 14.2065 5.8391 13.8703 6.05755C13.534 6.2701 13.1446 6.37637 12.7021 6.37637ZM14.0738 3.58671C14.0266 3.1439 13.8732 2.80442 13.6136 2.56826C13.354 2.3321 13.0355 2.21402 12.6579 2.21402C12.2803 2.21402 11.9617 2.3321 11.7021 2.56826C11.4425 2.80442 11.2891 3.1439 11.2419 3.58671H14.0738Z" fill="white"/>
<path d="M19.9083 6.37637C19.572 6.37637 19.2741 6.31438 19.0145 6.19039C18.7608 6.06641 18.5573 5.89224 18.4039 5.66788H18.3596L18.2711 6.28781H17.7401V0.0885606H18.4039V2.2583H18.4481C18.6015 2.05756 18.7991 1.89815 19.041 1.78007C19.2829 1.65608 19.572 1.59409 19.9083 1.59409C20.1974 1.59409 20.4629 1.64723 20.7048 1.7535C20.9466 1.85387 21.1561 2.00738 21.3331 2.21402C21.5101 2.41475 21.6487 2.66272 21.749 2.95793C21.8493 3.25313 21.8994 3.59556 21.8994 3.98523C21.8994 4.3749 21.8493 4.71733 21.749 5.01253C21.6487 5.30774 21.5101 5.55866 21.3331 5.7653C21.1561 5.96604 20.9466 6.11954 20.7048 6.22582C20.4629 6.32618 20.1974 6.37637 19.9083 6.37637ZM19.8198 5.75644C20.2446 5.75644 20.5868 5.60589 20.8463 5.30479C21.1059 5.00368 21.2357 4.56383 21.2357 3.98523C21.2357 3.40663 21.1059 2.96678 20.8463 2.66568C20.5868 2.36457 20.2446 2.21402 19.8198 2.21402C19.395 2.21402 19.0528 2.36457 18.7932 2.66568C18.5337 2.96678 18.4039 3.40663 18.4039 3.98523C18.4039 4.56383 18.5337 5.00368 18.7932 5.30479C19.0528 5.60589 19.395 5.75644 19.8198 5.75644Z" fill="white"/>
<path d="M24.1568 6.28781L22.2541 1.68265H22.9621L24.4665 5.35792H24.5108L25.9709 1.68265H26.6789L24.1568 8.05902H23.4488L24.1568 6.28781Z" fill="white"/>
<path d="M3.06947 20.2965V21.7514C3.06947 22.1736 3.10711 22.4671 3.18427 22.6374C3.26143 22.8059 3.39128 22.891 3.5776 22.891C3.78461 22.891 4.01045 22.8494 4.25134 22.7642C4.65596 22.795 4.85921 22.9689 4.85921 23.286C4.85921 23.6864 4.58633 23.8875 4.03868 23.8875C3.95022 23.8875 3.7131 23.8603 3.32353 23.8078C2.93397 23.7553 2.63662 23.7281 2.4296 23.7281C2.25458 23.7281 1.97041 23.7534 1.5752 23.8078C1.18187 23.8603 0.929686 23.8875 0.820533 23.8875C0.272884 23.8857 0 23.6846 0 23.2842C0 22.9689 0.191959 22.795 0.573996 22.7624C0.76031 22.8258 0.984263 22.8566 1.24774 22.8566C1.48863 22.8566 1.63918 22.757 1.69941 22.5558C1.75963 22.3547 1.78974 22.0558 1.78974 21.6554V15.0804C1.78974 14.6691 1.75775 14.3665 1.69188 14.1708C1.62601 13.9752 1.46793 13.8791 1.21574 13.8791C1.10659 13.8791 0.999318 13.8918 0.895811 13.919C0.792303 13.9462 0.67374 13.9697 0.542003 13.9897C0.180668 13.9697 0 13.7741 0 13.4063C0.0112917 13.216 0.0959797 13.0765 0.254064 12.9877C0.412148 12.899 0.551413 12.8537 0.67374 12.8537C0.76031 12.8537 0.91463 12.8845 1.13294 12.9479C1.35124 13.0113 1.50556 13.0421 1.59213 13.0421C1.72387 13.0421 1.89889 13.0113 2.1172 12.9479C2.33551 12.8845 2.49547 12.8537 2.59333 12.8537C2.86622 12.8537 3.0036 13.091 3.0036 13.5657V13.8809C3.53996 13.0584 4.42636 12.6489 5.6628 12.6489C6.68094 12.6707 7.55417 13.033 8.28249 13.7396C9.0108 14.4462 9.35708 15.4898 9.32509 16.8686C9.2931 18.3434 8.89224 19.4486 8.12628 20.1806C7.36033 20.9125 6.45699 21.2785 5.41627 21.2785C4.93449 21.2785 4.48282 21.1934 4.06126 21.0249C3.64158 20.8564 3.31036 20.6136 3.06947 20.2965ZM3.06947 16.8668V17.7673C3.06947 18.4104 3.22755 18.9794 3.5456 19.474C3.86365 19.9686 4.42071 20.2222 5.22054 20.2331C6.17281 20.2639 6.84844 19.9903 7.24741 19.4106C7.64638 18.8308 7.86846 18.1242 7.91174 17.2926C7.96632 16.2381 7.79882 15.3793 7.41114 14.7162C7.02158 14.0531 6.40618 13.7197 5.56494 13.7197C4.71053 13.7197 4.08196 13.9625 3.67734 14.4462C3.27272 14.9336 3.06947 15.7399 3.06947 16.8668Z" fill="white"/>
<path d="M16.8796 15.1132C16.9455 14.9864 16.9775 14.8505 16.9775 14.7019C16.9775 14.4066 16.8382 14.1547 16.5578 13.9428C16.2793 13.7326 15.9142 13.6257 15.4663 13.6257C14.8754 13.6257 14.3917 13.8558 14.0134 14.3142C13.6352 14.7726 13.447 15.5027 13.447 16.5028V18.5411C13.447 19.0991 13.4827 19.4887 13.5542 19.7115C13.6257 19.9326 13.7707 20.054 13.989 20.0757C14.1866 20.0123 14.4331 19.9815 14.7286 19.9815C15.0786 19.9815 15.2706 20.1609 15.3026 20.5196C15.3251 20.6573 15.2593 20.7823 15.105 20.8983C14.9506 21.0142 14.7813 21.0722 14.5968 21.0722C14.4764 21.0831 14.2336 21.0595 13.8666 21.0015C13.4997 20.9435 13.1684 20.9146 12.873 20.9146C12.6979 20.9146 12.4138 20.9399 12.0186 20.9943C11.6252 21.0468 11.3617 21.074 11.23 21.074C10.6711 21.074 10.3925 20.8693 10.3925 20.458C10.3925 20.3004 10.4603 20.1808 10.5977 20.1029C10.7351 20.0232 10.8687 19.9851 11.0004 19.9851C11.2526 19.9851 11.4653 20.0159 11.6403 20.0793C11.8925 20.0684 12.0487 20.0032 12.1089 19.8818C12.1691 19.7604 12.1992 19.5412 12.1992 19.226V14.9229C12.1992 14.2272 12.0129 13.8793 11.6403 13.8793C11.5631 13.8793 11.2789 13.9101 10.7859 13.9736C10.3925 13.9319 10.1893 13.7634 10.178 13.4681C10.1667 13.2996 10.2326 13.1546 10.3756 13.0332C10.5186 12.9118 10.6767 12.8521 10.8517 12.8521C10.9496 12.8521 11.1152 12.8829 11.3448 12.9463C11.5744 13.0097 11.7494 13.0405 11.8699 13.0405C11.9132 13.0405 12.0505 13.0151 12.2801 12.9608C12.5097 12.9082 12.6848 12.881 12.8052 12.881C13.1327 12.881 13.2813 13.1927 13.2494 13.8141H13.2813C13.5109 13.4246 13.8365 13.1329 14.2581 12.9372C14.6796 12.7415 15.1257 12.6455 15.5961 12.6455C16.0441 12.6455 16.4769 12.7397 16.8928 12.93C17.3087 13.1202 17.64 13.3829 17.8865 13.7199C18.133 14.0569 18.2554 14.4464 18.2554 14.8903C18.2554 15.2907 18.1575 15.6386 17.9599 15.9339C17.7623 16.2292 17.5157 16.4086 17.2203 16.472C17.1657 16.472 17.0716 16.4938 16.9417 16.5354C16.46 16.5137 16.1363 16.2673 15.9725 15.7926C15.9725 15.6132 16.0346 15.4502 16.1607 15.3034C16.2868 15.1567 16.4487 15.0824 16.6444 15.0824C16.7103 15.0824 16.7573 15.0842 16.7837 15.0896C16.8157 15.0951 16.8458 15.1023 16.8796 15.1132Z" fill="white"/>
<path d="M19.1118 16.4408C19.2097 15.2088 19.635 14.263 20.384 13.6035C21.133 12.9458 22.0119 12.6269 23.0188 12.6469C23.7621 12.6469 24.434 12.79 25.0306 13.0745C25.6271 13.3589 26.1052 13.8227 26.4665 14.4659C26.8278 15.1091 27.0254 15.9099 27.0574 16.8684C27.0894 18.2272 26.713 19.3089 25.9245 20.1079C25.136 20.9087 24.1893 21.3091 23.0846 21.3091H23.0526C22.2528 21.3091 21.5414 21.1189 20.9185 20.7402C20.2956 20.3615 19.8175 19.8017 19.4901 19.0643C19.1607 18.3269 19.0347 17.4518 19.1118 16.4408ZM20.4574 16.93C20.4687 18.0261 20.7039 18.8505 21.1631 19.4031C21.6223 19.9557 22.2189 20.2329 22.9529 20.2329C23.7075 20.2329 24.3568 19.9647 24.8988 19.4266C25.4408 18.8885 25.7118 18.0787 25.7118 16.9916C25.7118 14.8736 24.88 13.7829 23.2164 13.7195C22.3845 13.6887 21.7146 13.9496 21.2045 14.5022C20.6964 15.0548 20.4348 15.8429 20.4254 16.8647C20.448 16.8865 20.4574 16.8992 20.4574 16.9046C20.4574 16.9119 20.4574 16.9191 20.4574 16.93Z" fill="white"/>
<path d="M30.9826 20.2954V21.7503C30.9826 22.1724 31.0202 22.466 31.0974 22.6363C31.1745 22.8048 31.3044 22.8899 31.4907 22.8899C31.6977 22.8899 31.9235 22.8482 32.1644 22.7631C32.569 22.7939 32.7723 22.9678 32.7723 23.2849C32.7723 23.6853 32.4994 23.8864 31.9518 23.8864C31.8633 23.8864 31.6262 23.8592 31.2366 23.8067C30.8471 23.7541 30.5497 23.727 30.3427 23.727C30.1677 23.727 29.8835 23.7523 29.4883 23.8067C29.095 23.8592 28.8428 23.8864 28.7336 23.8864C28.186 23.8864 27.9131 23.6853 27.9131 23.2849C27.9131 22.9696 28.105 22.7957 28.4871 22.7631C28.6734 22.8265 28.8973 22.8573 29.1608 22.8573C29.4017 22.8573 29.5523 22.7576 29.6125 22.5565C29.6727 22.3554 29.7028 22.0565 29.7028 21.6561V15.0792C29.7028 14.668 29.6708 14.3654 29.605 14.1697C29.5391 13.974 29.381 13.878 29.1288 13.878C29.0197 13.878 28.9124 13.8907 28.8089 13.9179C28.7054 13.9451 28.5868 13.9686 28.4551 13.9885C28.0938 13.9668 27.9131 13.7729 27.9131 13.4033C27.9244 13.2131 28.0091 13.0736 28.1671 12.9848C28.3252 12.896 28.4645 12.8507 28.5868 12.8507C28.6734 12.8507 28.8277 12.8815 29.046 12.9449C29.2643 13.0084 29.4186 13.0392 29.5052 13.0392C29.637 13.0392 29.812 13.0084 30.0303 12.9449C30.2486 12.8815 30.4086 12.8507 30.5064 12.8507C30.7793 12.8507 30.9167 13.0881 30.9167 13.5628V13.878C31.453 13.0555 32.3394 12.646 33.5759 12.646C34.594 12.6677 35.4673 13.0301 36.1956 13.7367C36.9239 14.4433 37.2702 15.4869 37.2382 16.8657C37.2062 18.3405 36.8053 19.4457 36.0394 20.1776C35.2734 20.9096 34.3701 21.2756 33.3294 21.2756C32.8476 21.2756 32.3959 21.1904 31.9743 21.0219C31.5528 20.8553 31.2216 20.6125 30.9826 20.2954ZM30.9826 16.8657V17.7661C30.9826 18.4093 31.1406 18.9782 31.4587 19.4729C31.7767 19.9675 32.3338 20.2211 33.1336 20.232C34.0859 20.2628 34.7615 19.9892 35.1605 19.4094C35.5595 18.8297 35.7815 18.1231 35.8248 17.2915C35.8794 16.237 35.7119 15.3782 35.3242 14.7151C34.9347 14.052 34.3193 13.7186 33.478 13.7186C32.6236 13.7186 31.995 13.9614 31.5904 14.4451C31.1839 14.9325 30.9826 15.7387 30.9826 16.8657Z" fill="white"/>
<path d="M40.4052 14.4642C40.4052 14.4425 40.4711 14.4914 40.6028 14.6074C40.7346 14.7233 40.8004 14.9027 40.8004 15.1455C40.8004 15.5984 40.4993 15.8466 39.8971 15.8883C39.8538 15.8666 39.7879 15.8575 39.6995 15.8575C39.1857 15.7633 38.9053 15.4209 38.862 14.8302C38.9053 14.3664 39.1104 13.9551 39.4774 13.5964C39.8444 13.2376 40.2829 12.9767 40.791 12.8137C41.2991 12.6506 41.811 12.5945 42.3267 12.647C43.422 12.7412 44.1879 13.0257 44.6246 13.5004C45.0631 13.9751 45.2701 14.6762 45.2494 15.602L45.1515 18.905C45.1515 19.2945 45.1816 19.6061 45.2418 19.838C45.3021 20.0699 45.4752 20.2221 45.7594 20.2964C46.0229 20.2439 46.1885 20.1261 46.26 19.9413C46.3315 19.7565 46.3673 19.4956 46.3673 19.1586V18.606C46.3673 18.1114 46.5423 17.8632 46.8923 17.8632C47.2744 17.8632 47.4663 18.0371 47.4663 18.385V19.222V19.8706C47.423 20.3345 47.2386 20.6787 46.9168 20.9052C46.5931 21.1317 46.196 21.2458 45.7255 21.2458C45.3096 21.2458 44.9313 21.1371 44.5926 20.9215C44.2538 20.7059 44.0675 20.4341 44.0336 20.108C43.7814 20.4975 43.4145 20.7965 42.9327 21.0012C42.4509 21.2059 41.9315 21.3092 41.3725 21.3092C40.6932 21.3092 40.0665 21.1588 39.4925 20.8581C38.9185 20.5573 38.559 20.166 38.4179 19.6804C38.3746 19.501 38.3294 19.2528 38.2861 18.9376C38.3181 17.8831 38.8451 17.1511 39.8632 16.7399C40.1474 16.613 40.5577 16.5188 41.094 16.4554C41.6304 16.392 42.1046 16.3376 42.5149 16.2887C42.9252 16.2416 43.2187 16.1655 43.3938 16.0586C43.7325 15.8593 43.9019 15.5531 43.9019 15.1418C43.9019 14.7106 43.7231 14.3646 43.3674 14.1073C43.0117 13.85 42.6033 13.7196 42.1441 13.7196C41.7508 13.7196 41.3669 13.7939 40.9943 13.9406C40.6254 14.091 40.4278 14.2649 40.4052 14.4642ZM43.9038 16.8359C43.5744 17.1421 42.9703 17.3522 42.0896 17.4682C41.2088 17.5842 40.6009 17.7001 40.2678 17.8161C39.9347 17.932 39.7334 18.2745 39.6694 18.8434C39.6261 19.2963 39.7729 19.6369 40.1135 19.8634C40.4523 20.0899 40.8851 20.2131 41.4102 20.2348C41.9465 20.204 42.4283 20.0917 42.8555 19.9033C43.2489 19.704 43.5123 19.4231 43.6441 19.0662C43.7758 18.7075 43.8473 18.2708 43.8567 17.7545C43.8642 17.2363 43.8812 16.9301 43.9038 16.8359Z" fill="white"/>
<path d="M49.4518 19.65C49.0246 19.5558 48.6934 19.3656 48.4581 19.0811C48.2229 18.7967 48.0949 18.4706 48.0723 18.101C48.1156 17.3219 48.5654 16.811 49.4179 16.5682C49.145 16.146 48.9964 15.6931 48.9738 15.2093C48.9738 14.5027 49.2749 13.8994 49.8771 13.3993C50.4793 12.8993 51.234 12.6492 52.143 12.6492C52.4065 12.6492 52.717 12.6764 53.0783 12.729C53.1103 12.1818 53.3079 11.7832 53.6693 11.535C54.0306 11.2868 54.4634 11.1636 54.9659 11.1636C55.4364 11.1636 55.8636 11.2813 56.2456 11.5187C56.6296 11.756 56.8196 12.1003 56.8196 12.5532C56.8196 12.8377 56.7462 13.0424 56.5976 13.1692C56.4489 13.2961 56.2231 13.4066 55.9163 13.5008C55.7413 13.5008 55.5926 13.441 55.4722 13.3196C55.3517 13.1982 55.2859 13.0642 55.2746 12.9174C55.3066 12.6547 55.4383 12.459 55.6679 12.3322C55.5249 12.122 55.2896 12.0169 54.9622 12.0169C54.71 12.0169 54.4973 12.1093 54.3223 12.2941C54.1473 12.4789 54.0588 12.7507 54.0588 13.1076C54.4747 13.3812 54.7928 13.7164 55.0111 14.1114C55.2294 14.5063 55.3385 14.9104 55.3385 15.3198C55.3385 16.0373 55.0393 16.6606 54.4446 17.1932C53.848 17.7259 53.1009 17.9977 52.2032 18.0067C51.7327 17.9651 51.3281 17.9071 50.9875 17.8328C50.8896 17.802 50.7635 17.7567 50.6092 17.6987C50.4568 17.6408 50.3006 17.59 50.1406 17.5484C49.9825 17.5067 49.8639 17.4849 49.7868 17.4849C49.6118 17.4849 49.497 17.5465 49.4424 17.6661C49.3878 17.7875 49.3332 17.9741 49.2787 18.2278C49.2787 18.4706 49.4311 18.6572 49.7379 18.7894C50.0446 18.9217 50.564 18.9924 51.298 19.0032C51.4504 18.9815 51.697 18.9724 52.0376 18.9724C53.4171 18.9308 54.4616 19.1536 55.1729 19.6446C55.8843 20.1338 56.24 20.7534 56.24 21.5017C56.24 22.3877 55.8072 23.0236 54.9433 23.415C54.0776 23.8045 53.1103 24.0002 52.0376 24.0002C50.9762 24.0002 50.0352 23.8099 49.2128 23.4313C48.3923 23.0526 47.9425 22.4203 47.8672 21.5343C47.9105 20.5958 48.4355 19.9907 49.4443 19.7171V19.65H49.4518ZM52.2107 20.0758C51.2585 20.0976 50.5283 20.2262 50.0183 20.4635C49.5101 20.7009 49.2542 21.0343 49.2542 21.4673C49.2542 21.8894 49.4951 22.2464 49.9769 22.5417C50.4586 22.837 51.1041 22.9838 51.9153 22.9838C52.6266 22.9838 53.3117 22.8787 53.9685 22.6667C54.6253 22.4565 54.9377 22.0652 54.9038 21.4963C54.9038 21.0542 54.6742 20.7027 54.215 20.4454C53.7539 20.19 53.0858 20.0668 52.2107 20.0758ZM50.3231 15.2401C50.2911 15.7565 50.4511 16.1678 50.8068 16.4721C51.1625 16.7783 51.5859 16.9305 52.079 16.9305C52.4065 16.9523 52.7245 16.8961 53.0313 16.7638C53.338 16.6316 53.5864 16.4432 53.7784 16.1949C53.9704 15.9467 54.0663 15.6659 54.0663 15.3488C54.0776 14.8107 53.8913 14.4013 53.5074 14.1168C53.1235 13.8324 52.6586 13.6892 52.111 13.6892C51.6292 13.6675 51.2189 13.8034 50.8802 14.0914C50.5414 14.3831 50.3551 14.7654 50.3231 15.2401Z" fill="white"/>
<path d="M59.3037 14.4642C59.3037 14.4425 59.3696 14.4914 59.5013 14.6074C59.6331 14.7233 59.6989 14.9027 59.6989 15.1455C59.6989 15.5984 59.3978 15.8466 58.7956 15.8883C58.7523 15.8666 58.6864 15.8575 58.598 15.8575C58.0842 15.7633 57.8038 15.4209 57.7605 14.8302C57.8038 14.3664 58.0089 13.9551 58.3759 13.5964C58.7429 13.2376 59.1814 12.9767 59.6895 12.8137C60.1977 12.6506 60.7095 12.5945 61.2252 12.647C62.3205 12.7412 63.0865 13.0257 63.5231 13.5004C63.9616 13.9751 64.1686 14.6762 64.1479 15.602L64.05 18.905C64.05 19.2945 64.0801 19.6061 64.1403 19.838C64.2006 20.0699 64.3737 20.2221 64.6579 20.2964C64.9214 20.2439 65.087 20.1261 65.1585 19.9413C65.23 19.7565 65.2658 19.4956 65.2658 19.1586V18.606C65.2658 18.1114 65.4408 17.8632 65.7908 17.8632C66.1729 17.8632 66.3648 18.0371 66.3648 18.385V19.222V19.8706C66.3215 20.3345 66.1371 20.6787 65.8153 20.9052C65.4916 21.1317 65.0945 21.2458 64.6259 21.2458C64.21 21.2458 63.8317 21.1371 63.493 20.9215C63.1542 20.7059 62.9679 20.4341 62.934 20.108C62.6818 20.4975 62.3149 20.7965 61.8331 21.0012C61.3513 21.2059 60.8319 21.3092 60.2729 21.3092C59.5935 21.3092 58.9669 21.1588 58.3929 20.8581C57.8189 20.5573 57.4594 20.166 57.3183 19.6804C57.275 19.501 57.2298 19.2528 57.1865 18.9376C57.2185 17.8831 57.7455 17.1511 58.7636 16.7399C59.0478 16.613 59.458 16.5188 59.9944 16.4554C60.5308 16.392 61.005 16.3376 61.4153 16.2887C61.8255 16.2416 62.1191 16.1655 62.2942 16.0586C62.6329 15.8593 62.8023 15.5531 62.8023 15.1418C62.8023 14.7106 62.6235 14.3646 62.2678 14.1073C61.9121 13.85 61.5037 13.7196 61.0445 13.7196C60.6512 13.7196 60.2673 13.7939 59.8947 13.9406C59.522 14.091 59.3263 14.2649 59.3037 14.4642ZM62.8004 16.8359C62.4711 17.1421 61.8669 17.3522 60.9862 17.4682C60.1054 17.5842 59.4976 17.7001 59.1645 17.8161C58.8314 17.932 58.63 18.2745 58.566 18.8434C58.5227 19.2963 58.6695 19.6369 59.0101 19.8634C59.3489 20.0899 59.7817 20.2131 60.3068 20.2348C60.8432 20.204 61.3249 20.0917 61.7521 19.9033C62.1455 19.704 62.409 19.4231 62.5407 19.0662C62.6724 18.7075 62.7439 18.2708 62.7533 17.7545C62.7628 17.2363 62.7778 16.9301 62.8004 16.8359Z" fill="white"/>
<path d="M69.696 13.8153H69.728C70.0009 13.4475 70.4017 13.1522 70.9268 12.9293C71.4519 12.7083 71.9826 12.614 72.5189 12.6448C73.2736 12.6756 73.9831 12.884 74.6456 13.2699C75.308 13.654 75.6392 14.4114 75.6392 15.5383V19.0622C75.6392 19.4101 75.6712 19.6656 75.7371 19.8286C75.803 19.9917 75.929 20.0841 76.1154 20.1058C76.345 20.0424 76.5915 20.0116 76.855 20.0116C77.2389 20.0116 77.429 20.1801 77.429 20.5171C77.429 20.8867 77.1824 21.0697 76.6894 21.0697C76.6235 21.0697 76.3864 21.0425 75.9742 20.99C75.5639 20.9375 75.2497 20.9103 75.0295 20.9103C74.8112 20.9103 74.4988 20.932 74.0941 20.9737C73.6895 21.0154 73.3997 21.0371 73.2247 21.0371C72.7975 21.0371 72.5848 20.874 72.5848 20.5479C72.5848 20.1892 72.7655 20.0098 73.1268 20.0098C73.3131 20.0098 73.5051 20.0316 73.7008 20.0732C73.7874 20.0732 73.8438 20.0841 73.8645 20.104C74.192 20.0823 74.3576 19.6728 74.3576 18.8702V15.6343C74.3576 15.2448 74.2729 14.9024 74.1035 14.607C73.9342 14.3117 73.6933 14.0852 73.3809 13.9276C73.0685 13.77 72.6883 13.7011 72.2404 13.7229C71.6382 13.7229 71.0962 13.9077 70.6144 14.2755C70.1326 14.6451 69.8917 15.3662 69.8917 16.4406V19.0641C69.8917 19.4427 69.9425 19.7181 70.0479 19.8866C70.1514 20.0551 70.3359 20.1185 70.5975 20.0768C70.62 20.0768 70.684 20.066 70.7951 20.046C70.9042 20.0243 70.9964 20.0152 71.0736 20.0152C71.4556 20.0152 71.6476 20.1837 71.6476 20.5207C71.6476 20.8903 71.4123 21.0733 70.9419 21.0733C70.8986 21.0733 70.6765 21.0462 70.2775 20.9936C69.8786 20.9411 69.5586 20.9139 69.3177 20.9139C69.0656 20.9139 68.723 20.9393 68.2921 20.9936C67.8592 21.0462 67.6052 21.0733 67.528 21.0733C67.3097 21.0733 67.1384 21.028 67.0199 20.9393C66.8994 20.8505 66.8392 20.6892 66.8392 20.4573C66.8392 20.1421 67.0255 19.9826 67.3981 19.9826C67.5619 19.9826 67.7971 20.0243 68.1039 20.1095C68.3222 20.0986 68.4614 20.0152 68.5235 19.8558C68.5838 19.6982 68.6139 19.4137 68.6139 19.0025V14.7955C68.6139 14.4784 68.5781 14.2483 68.5066 14.0997C68.4351 13.953 68.3015 13.8787 68.1039 13.8787C68.0154 13.8787 67.7915 13.9095 67.4301 13.9729C67.0255 13.9312 66.8223 13.7627 66.8223 13.4674C66.8223 13.3732 66.875 13.2536 66.9785 13.1123C67.082 12.9692 67.2212 12.8822 67.3981 12.8514C67.5073 12.8405 67.6522 12.8695 67.8329 12.9384C68.0135 13.0072 68.2074 13.0416 68.4163 13.0416C68.4709 13.0416 68.6045 13.0163 68.819 12.9619C69.0317 12.9094 69.1992 12.8822 69.3196 12.8822C69.4721 12.8822 69.5737 12.9184 69.6226 12.9927C69.6715 13.067 69.696 13.2138 69.696 13.4348V13.8153Z" fill="white"/>
<path d="M84.2758 13.815H84.3078V12.0449C84.3078 11.4977 84.2306 11.1589 84.0782 11.0339C84.0349 10.9922 83.9521 10.9705 83.8316 10.9705C83.5362 10.9705 83.3122 11.0013 83.1579 11.0647C82.742 11.0339 82.5274 10.8491 82.518 10.5121C82.518 10.3544 82.5726 10.2222 82.6818 10.1171C82.7909 10.012 82.9283 9.95947 83.092 9.95947C83.3103 9.95947 83.5305 9.98303 83.7488 10.0301C83.9671 10.0772 84.1309 10.1008 84.2419 10.1008C84.2852 10.1008 84.3191 10.1117 84.3398 10.1316C84.4715 10.1099 84.5788 10.0863 84.6597 10.0609C84.7425 10.0356 84.8404 10.0102 84.9552 9.99027C85.07 9.96853 85.1659 9.95947 85.2431 9.95947C85.4727 9.95947 85.5875 10.1751 85.5875 10.6081V19.033C85.5875 19.7396 85.7456 20.1074 86.0636 20.14C86.0862 20.14 86.1897 20.1146 86.376 20.0603C86.5624 20.0077 86.6828 19.9805 86.7374 19.9805C87.142 19.9805 87.3452 20.1599 87.3452 20.5186C87.3452 20.8882 87.1759 21.0712 86.8371 21.0712C86.7938 21.0712 86.6452 21.0441 86.393 20.9915C86.1408 20.939 85.9394 20.9118 85.7851 20.9118C85.6647 20.9118 85.5085 20.9372 85.3165 20.9915C85.1245 21.0441 85.0022 21.0712 84.9476 21.0712C84.7387 21.0712 84.6032 21.0241 84.5374 20.9281C84.4715 20.8339 84.4169 20.6654 84.3736 20.4226C84.3962 20.3592 84.4056 20.2759 84.4056 20.169H84.3736C84.144 20.5168 83.7959 20.7995 83.331 21.0151C82.8662 21.2307 82.3374 21.3285 81.7464 21.3068C80.6511 21.2542 79.7741 20.8719 79.1117 20.1599C78.4492 19.4479 78.086 18.4659 78.0202 17.2121C77.9769 16.2011 78.1218 15.355 78.4549 14.6756C78.788 13.9962 79.2434 13.4925 79.8174 13.1664C80.3914 12.8402 81.0125 12.6663 81.6806 12.6446C82.2395 12.6446 82.7665 12.7442 83.2652 12.9453C83.7658 13.1464 84.1008 13.4363 84.2758 13.815ZM79.3676 16.9295C79.3996 17.9731 79.6386 18.7866 80.0809 19.3718C80.525 19.957 81.1179 20.2432 81.8631 20.2324C82.6291 20.2106 83.2294 19.9769 83.6604 19.5294C84.0932 19.0819 84.3097 18.2158 84.3097 16.9295C84.3209 15.8225 84.1045 15.0162 83.6604 14.5107C83.2162 14.0052 82.6008 13.7425 81.8123 13.7208C81.1122 13.7208 80.525 14.0052 80.0564 14.5741C79.586 15.143 79.3451 15.875 79.3338 16.7718C79.3563 16.8135 79.3676 16.8661 79.3676 16.9295Z" fill="white"/>
<path d="M89.8427 14.4642C89.8427 14.4425 89.9086 14.4914 90.0403 14.6074C90.1721 14.7233 90.2379 14.9027 90.2379 15.1455C90.2379 15.5984 89.9368 15.8466 89.3346 15.8883C89.2913 15.8666 89.2254 15.8575 89.137 15.8575C88.6232 15.7633 88.3428 15.4209 88.2995 14.8302C88.3428 14.3664 88.5479 13.9551 88.9149 13.5964C89.2819 13.2376 89.7185 12.9767 90.2285 12.8137C90.7366 12.6506 91.2485 12.5945 91.7642 12.647C92.8595 12.7412 93.6254 13.0257 94.0621 13.5004C94.5006 13.9751 94.7076 14.6762 94.685 15.602L94.5871 18.9068C94.5871 19.2963 94.6172 19.6079 94.6775 19.8398C94.7377 20.0718 94.9089 20.2239 95.195 20.2982C95.4585 20.2457 95.6241 20.1279 95.6956 19.9431C95.7671 19.7583 95.8029 19.4974 95.8029 19.1604V18.6078C95.8029 18.1132 95.9779 17.865 96.3279 17.865C96.71 17.865 96.9019 18.0389 96.9019 18.3868V19.2238V19.8725C96.8587 20.3363 96.6742 20.6805 96.3524 20.907C96.0287 21.1335 95.6335 21.2476 95.1611 21.2476C94.7452 21.2476 94.3669 21.1389 94.0282 20.9233C93.6894 20.7077 93.5031 20.4359 93.4692 20.1098C93.2171 20.4993 92.8501 20.7983 92.3702 21.003C91.8884 21.2078 91.369 21.311 90.81 21.311C90.1307 21.311 89.504 21.1606 88.93 20.8599C88.356 20.5591 87.9965 20.1678 87.8554 19.6822C87.8121 19.5029 87.7669 19.2546 87.7236 18.9394C87.7556 17.8849 88.2826 17.1529 89.2988 16.7417C89.583 16.6148 89.9933 16.5206 90.5296 16.4572C91.066 16.3938 91.5402 16.3394 91.9505 16.2905C92.3608 16.2434 92.6544 16.1673 92.8294 16.0604C93.1681 15.8611 93.3375 15.5549 93.3375 15.1437C93.3375 14.7125 93.1587 14.3664 92.803 14.1091C92.4473 13.8518 92.039 13.7214 91.5798 13.7214C91.1864 13.7214 90.8025 13.7957 90.4299 13.9424C90.061 14.091 89.8653 14.2649 89.8427 14.4642ZM93.3394 16.8359C93.0119 17.1421 92.4059 17.3522 91.5252 17.4682C90.6444 17.5842 90.0366 17.7001 89.7034 17.8161C89.3703 17.932 89.169 18.2745 89.105 18.8434C89.0617 19.2963 89.2085 19.6369 89.5491 19.8634C89.8879 20.0899 90.3207 20.2131 90.8458 20.2348C91.3822 20.204 91.8639 20.0917 92.2911 19.9033C92.6845 19.704 92.9479 19.4231 93.0797 19.0662C93.2114 18.7075 93.2829 18.2708 93.2923 17.7545C93.3018 17.2363 93.3187 16.9301 93.3394 16.8359Z" fill="white"/>
<path d="M98.0915 14.0222C98.6279 13.3482 98.9403 12.7521 99.0268 12.2358C99.0588 12.0673 99.0325 11.9694 98.944 11.9441C98.8556 11.9187 98.6956 11.8933 98.4604 11.8734C98.2251 11.8517 98.0388 11.7991 97.9014 11.7158C97.7641 11.6324 97.6587 11.4676 97.5815 11.2266C97.5702 11.1632 97.5627 11.1052 97.557 11.0527C97.5514 11.0001 97.5382 10.9421 97.5156 10.8787C97.5269 10.5091 97.6775 10.2392 97.9673 10.0652C98.2571 9.8913 98.5338 9.8152 98.7972 9.83513C99.7062 9.95109 100.1 10.6305 99.9791 11.8734C99.902 12.6108 99.5632 13.3591 98.961 14.1182C98.7088 14.4552 98.4961 14.6237 98.3211 14.6237C98.1122 14.6237 97.9937 14.5186 97.9598 14.3067C98.0144 14.149 98.0576 14.053 98.0915 14.0222Z" fill="white"/>
</svg>
