<svg width="89" height="80" viewBox="0 0 89 80" fill="none" xmlns="http://www.w3.org/2000/svg">
<g clip-path="url(#clip0)">
<path d="M60.664 59.8573C76.0293 59.8573 88.4853 47.4013 88.4853 32.0361C88.4853 16.6708 76.0293 4.21484 60.664 4.21484C45.2988 4.21484 32.8428 16.6708 32.8428 32.0361C32.8428 47.4013 45.2988 59.8573 60.664 59.8573Z" fill="#E9EAEB"/>
<path d="M42.5805 75.159C58.714 75.159 71.7928 62.0802 71.7928 45.9467C71.7928 29.8132 58.714 16.7344 42.5805 16.7344C26.447 16.7344 13.3682 29.8132 13.3682 45.9467C13.3682 62.0802 26.447 75.159 42.5805 75.159Z" fill="white"/>
<path d="M42.5805 16.7344C26.4442 16.7344 13.3682 29.8104 13.3682 45.9467C13.3682 62.083 26.4442 75.159 42.5805 75.159C58.7168 75.159 71.7928 62.083 71.7928 45.9467C71.7928 29.8104 58.7029 16.7344 42.5805 16.7344ZM42.5805 68.2037C30.2835 68.2037 20.3235 58.2437 20.3235 45.9467C20.3235 33.6497 30.2835 23.6897 42.5805 23.6897C54.8775 23.6897 64.8375 33.6497 64.8375 45.9467C64.8375 58.2437 54.8636 68.2037 42.5805 68.2037Z" fill="white"/>
<path d="M42.58 30.645C34.1223 30.645 27.2783 37.489 27.2783 45.9467C27.2783 54.4044 34.1223 61.2484 42.58 61.2484C51.0377 61.2484 57.8817 54.4044 57.8817 45.9467C57.8817 37.489 51.0238 30.645 42.58 30.645ZM42.58 54.2931C37.9756 54.2931 34.2336 50.5511 34.2336 45.9467C34.2336 41.3423 37.9756 37.6003 42.58 37.6003C47.1844 37.6003 50.9264 41.3423 50.9264 45.9467C50.9264 50.5511 47.1844 54.2931 42.58 54.2931Z" fill="white"/>
<path d="M42.5801 47.3377C42.2184 47.3377 41.8706 47.1985 41.5924 46.9342C41.0499 46.3917 41.0499 45.5154 41.5924 44.9728L80.5422 6.0231C81.0847 5.48058 81.9611 5.48058 82.5036 6.0231C83.0461 6.56561 83.0461 7.44198 82.5036 7.98449L43.5538 46.9342C43.2895 47.1985 42.9279 47.3377 42.5801 47.3377Z" fill="#BB0000"/>
<path d="M42.5802 55.6843C37.2107 55.6843 32.8428 51.3164 32.8428 45.9469C32.8428 40.5774 37.2107 36.2095 42.5802 36.2095C43.0393 36.2095 43.5122 36.2512 44.0686 36.3347C44.8337 36.446 45.3484 37.1693 45.2232 37.9205C45.098 38.6717 44.3886 39.2003 43.6374 39.0751C43.2201 39.0055 42.8862 38.9777 42.5663 38.9777C38.727 38.9777 35.611 42.0937 35.611 45.933C35.611 49.7723 38.727 52.8883 42.5663 52.8883C46.4056 52.8883 49.5216 49.7723 49.5216 45.933C49.5216 45.6131 49.4938 45.2792 49.4242 44.8758C49.299 44.1246 49.8276 43.4013 50.5788 43.29C51.3439 43.1787 52.0533 43.6934 52.1646 44.4446C52.2481 45.001 52.2898 45.4739 52.2898 45.9469C52.3176 51.3164 47.9497 55.6843 42.5802 55.6843Z" fill="#BB0000"/>
<path d="M42.5804 62.6394C33.3716 62.6394 25.8877 55.1555 25.8877 45.9467C25.8877 36.7378 33.3716 29.2539 42.5804 29.2539C45.1678 29.2539 47.6439 29.8382 49.967 30.9788C50.6625 31.3127 50.9407 32.1473 50.593 32.8428C50.2591 33.5245 49.4245 33.8166 48.7289 33.4688C46.7954 32.5229 44.7366 32.036 42.5804 32.036C34.9157 32.036 28.6698 38.2819 28.6698 45.9467C28.6698 53.6114 34.9157 59.8573 42.5804 59.8573C50.2452 59.8573 56.4911 53.6114 56.4911 45.9467C56.4911 43.7905 56.0042 41.7178 55.0583 39.7982C54.7244 39.1026 55.0026 38.2819 55.6843 37.9341C56.3798 37.5864 57.2005 37.8785 57.5483 38.5601C58.6889 40.8693 59.2732 43.3593 59.2732 45.9467C59.2732 55.1555 51.7754 62.6394 42.5804 62.6394Z" fill="#BB0000"/>
<path d="M42.5799 76.55C25.7063 76.55 11.9766 62.8202 11.9766 45.9466C11.9766 29.073 25.7063 15.3433 42.5799 15.3433C48.9371 15.3433 55.0578 17.2907 60.2603 20.991C60.8863 21.4361 61.0393 22.2986 60.5942 22.9246C60.1491 23.5505 59.2866 23.7035 58.6606 23.2584C53.931 19.9059 48.3807 18.1254 42.5939 18.1254C27.2504 18.1254 14.7726 30.6032 14.7726 45.9466C14.7726 61.2901 27.2504 73.7679 42.5939 73.7679C57.9373 73.7679 70.4151 61.2901 70.4151 45.9466C70.4151 40.1598 68.6345 34.6095 65.2821 29.8799C64.8369 29.2539 64.99 28.3775 65.6159 27.9463C66.2419 27.5011 67.1183 27.6542 67.5495 28.2801C71.2358 33.4827 73.1972 39.5895 73.1972 45.9605C73.1833 62.8202 59.4535 76.55 42.5799 76.55Z" fill="#BB0000"/>
<path d="M42.5797 69.595C29.5454 69.595 18.9316 58.9811 18.9316 45.9469C18.9316 32.9126 29.5454 22.2988 42.5797 22.2988C47.0311 22.2988 51.3851 23.5647 55.1688 25.9712C55.8226 26.3746 56.0035 27.2371 55.6 27.8909C55.1827 28.5447 54.3342 28.7394 53.6804 28.3221C50.3418 26.2077 46.5025 25.081 42.5797 25.081C31.0756 25.081 21.7138 34.4428 21.7138 45.9469C21.7138 57.451 31.0756 66.8128 42.5797 66.8128C54.0838 66.8128 63.4456 57.451 63.4456 45.9469C63.4456 42.0241 62.3328 38.1848 60.2045 34.8462C59.7871 34.1924 59.9819 33.3439 60.6357 32.9265C61.2895 32.5092 62.138 32.704 62.5554 33.3578C64.948 37.1415 66.2278 41.4955 66.2278 45.9469C66.2278 58.9811 55.614 69.595 42.5797 69.595Z" fill="#BB0000"/>
<path d="M77.3561 2.82373L69.0098 11.1701V19.5165H77.3561L85.7025 11.1701L78.7472 9.77904L77.3561 2.82373Z" fill="white"/>
<path d="M77.9269 20.9077H67.6191V10.586L78.2051 0L79.93 8.59677L88.5268 10.3217L77.9269 20.9077ZM70.4013 18.1255H76.7862L82.893 12.0188L77.5791 10.9616L76.5219 5.64771L70.4152 11.7545V18.1255H70.4013Z" fill="#BB0000"/>
<path d="M60.33 15.719C60.0935 15.719 59.857 15.6633 59.6344 15.5381C54.3484 12.4917 48.2973 10.8781 42.1627 10.8781C36.362 10.8781 30.6308 12.3248 25.5534 15.0513C24.8718 15.4129 24.0371 15.1625 23.6755 14.4809C23.3138 13.7993 23.5642 12.9647 24.2319 12.603C29.6988 9.65393 35.9029 8.08203 42.1627 8.08203C48.7981 8.08203 55.3221 9.82086 61.0255 13.1177C61.6932 13.5072 61.9158 14.3557 61.5402 15.0234C61.2898 15.4686 60.8168 15.719 60.33 15.719Z" fill="#BCC0C4"/>
<path d="M26.193 80.0001C25.9843 80.0001 25.7756 79.9583 25.5809 79.861C12.5049 73.4621 4.36719 60.4417 4.36719 45.8912C4.36719 39.5062 5.99473 33.1908 9.05507 27.6405C9.43065 26.9728 10.2792 26.7224 10.9469 27.098C11.6146 27.4736 11.865 28.3221 11.4894 28.9898C8.65166 34.1367 7.14931 39.9792 7.14931 45.8912C7.14931 59.3845 14.675 71.445 26.805 77.371C27.5006 77.7048 27.7788 78.5395 27.4449 79.235C27.2084 79.7219 26.7076 80.0001 26.193 80.0001Z" fill="#BCC0C4"/>
<path d="M58.9106 79.6103C58.4098 79.6103 57.9229 79.3321 57.6725 78.8591C57.3248 78.1775 57.5891 77.3429 58.2707 76.9812C66.464 72.7246 72.7656 65.2685 75.5477 56.4909C75.7842 55.7536 76.5632 55.3502 77.3004 55.5867C78.0377 55.8231 78.4411 56.6021 78.2046 57.3394C75.1999 66.8125 68.3976 74.8668 59.5505 79.4573C59.3418 79.5686 59.1192 79.6103 58.9106 79.6103Z" fill="#BCC0C4"/>
<path d="M77.356 37.8787C76.7439 37.8787 76.1736 37.4753 76.0067 36.8493C75.4085 34.5958 74.5739 32.384 73.5306 30.2974C73.1828 29.6158 73.461 28.7811 74.1566 28.4334C74.8521 28.0856 75.6867 28.3777 76.0206 29.0593C77.1473 31.3268 78.0515 33.7055 78.6914 36.1398C78.8862 36.8771 78.441 37.6422 77.7038 37.8369C77.5925 37.8648 77.4673 37.8787 77.356 37.8787Z" fill="#BCC0C4"/>
<path d="M71.5006 79.3182C71.125 79.3182 70.7494 79.1652 70.4712 78.8592C69.9565 78.2888 69.9982 77.4125 70.5686 76.8978C79.3044 68.9965 84.3123 57.715 84.3123 45.9466C84.3123 44.4582 84.2288 42.9559 84.0758 41.4813C83.9923 40.7162 84.5488 40.0346 85.3138 39.9512C86.0928 39.8677 86.7605 40.4241 86.844 41.1892C87.0109 42.7611 87.0944 44.3608 87.0944 45.9466C87.0944 58.494 81.7527 70.5267 72.4326 78.9566C72.1683 79.2069 71.8344 79.3182 71.5006 79.3182Z" fill="#BCC0C4"/>
<path d="M1.39067 34.5124C1.25156 34.5124 1.11245 34.4985 0.973347 34.4568C0.236084 34.2342 -0.167325 33.4552 0.0552455 32.7179C4.27016 19.1551 14.8283 8.33262 28.2938 3.78384C29.0172 3.53345 29.8101 3.92295 30.0605 4.66021C30.3109 5.38356 29.9214 6.17647 29.1841 6.42686C16.5672 10.6696 6.6767 20.8104 2.72609 33.5387C2.53134 34.1368 1.98882 34.5124 1.39067 34.5124Z" fill="#BCC0C4"/>
</g>
<defs>
<clipPath id="clip0">
<rect width="88.5272" height="80" fill="white"/>
</clipPath>
</defs>
</svg>
