<svg width="101" height="80" viewBox="0 0 101 80" fill="none" xmlns="http://www.w3.org/2000/svg">
<g clip-path="url(#clip0)">
<path d="M50.1271 69.6927C63.9694 69.6927 75.1908 58.4713 75.1908 44.6291C75.1908 30.7868 63.9694 19.5654 50.1271 19.5654C36.2849 19.5654 25.0635 30.7868 25.0635 44.6291C25.0635 58.4713 36.2849 69.6927 50.1271 69.6927Z" fill="#E9EAEB"/>
<path d="M63.1448 80C62.5339 80 61.9386 79.6397 61.688 79.0288C61.359 78.2299 61.7506 77.3057 62.5495 76.9924C76.2249 71.4 85.0598 58.3043 85.0598 43.6264C85.0598 33.7262 81.0966 24.484 73.8908 17.6229C73.2642 17.0276 73.2486 16.0407 73.8438 15.4141C74.4391 14.7875 75.426 14.7719 76.0526 15.3671C83.8693 22.8236 88.1928 32.8647 88.1928 43.642C88.1928 59.5888 78.5902 73.8281 63.74 79.906C63.5364 79.9687 63.3328 80 63.1448 80Z" fill="#BB0000"/>
<path d="M82.8662 63.2074C88.8032 64.1003 95.7113 62.7218 97.4971 51.1769C90.1347 50.049 84.2134 54.4978 82.8662 63.2074Z" fill="white"/>
<path d="M85.6861 64.9932C84.7149 64.9932 83.6967 64.9149 82.6315 64.7583C82.2242 64.6956 81.8483 64.4763 81.5976 64.1317C81.347 63.7871 81.253 63.3798 81.3157 62.9725C82.7412 53.7146 89.336 48.3573 97.7167 49.6261C98.124 49.6888 98.4999 49.9081 98.7506 50.2527C99.0012 50.5817 99.0952 51.0046 99.0325 51.4119C97.6697 60.3565 93.0799 64.9932 85.6861 64.9932ZM84.7306 61.829C90.6675 62.2049 94.2078 59.2286 95.6489 52.5554C90.2133 52.4301 86.1718 55.8137 84.7306 61.829Z" fill="#BB0000"/>
<path d="M70.8994 75.1283C75.7085 78.7155 82.4444 80.7519 89.5248 71.4001C83.5879 66.967 76.2411 68.0948 70.8994 75.1283Z" fill="white"/>
<path d="M78.7315 79.718C75.8805 79.718 72.9356 78.6058 69.9593 76.3971C69.6303 76.1464 69.411 75.7705 69.3483 75.3632C69.2857 74.9559 69.3953 74.533 69.646 74.204C75.3166 66.7319 83.6816 65.1028 90.4645 70.1781C90.7934 70.4288 91.0127 70.8047 91.0754 71.212C91.138 71.6193 91.0284 72.0423 90.7777 72.3712C87.0652 77.2586 82.9924 79.718 78.7315 79.718ZM73.2019 74.7993C78.2616 77.9322 82.7887 76.961 87.2375 71.7603C82.5224 69.066 77.353 70.1781 73.2019 74.7993Z" fill="#BB0000"/>
<path d="M87.4564 45.9134C93.4403 45.2868 99.7689 42.2165 98.547 30.5933C91.1376 31.3452 86.5321 37.1411 87.4564 45.9134Z" fill="white"/>
<path d="M87.4408 47.48C86.6419 47.48 85.9683 46.8848 85.89 46.0702C85.3731 41.1984 86.4383 36.9846 88.9446 33.883C91.1847 31.1103 94.4586 29.4342 98.3748 29.0269C99.2207 28.9329 100.004 29.5595 100.098 30.4211C100.662 35.7471 99.7533 39.9139 97.3879 42.8276C95.2575 45.4593 91.9679 47.0257 87.6131 47.48C87.5505 47.48 87.5035 47.48 87.4408 47.48ZM97.106 32.4105C94.7563 32.9588 92.7982 34.1336 91.3883 35.8568C89.6809 37.9558 88.835 40.7912 88.9133 44.1121C91.6233 43.5951 93.6127 42.5143 94.9599 40.8381C96.5264 38.8957 97.247 36.0604 97.106 32.4105Z" fill="#BB0000"/>
<path d="M84.7152 30.4524C89.8375 27.3351 94.2237 21.8681 88.0674 11.8896C81.7232 15.7275 80.0784 22.9333 84.7152 30.4524Z" fill="white"/>
<path d="M84.7152 32.003C84.1826 32.003 83.6813 31.7367 83.3837 31.2511C80.799 27.0529 79.9218 22.7921 80.8616 18.9229C81.6919 15.461 83.9006 12.563 87.2685 10.5266C88.0048 10.088 88.9603 10.3073 89.4146 11.0435C92.2343 15.6176 93.2212 19.7845 92.3439 23.4187C91.5607 26.6926 89.258 29.5123 85.5297 31.768C85.2634 31.9403 84.9815 32.003 84.7152 32.003ZM87.5505 14.1295C85.6707 15.6176 84.4176 17.5131 83.8849 19.6592C83.2584 22.2908 83.7126 25.2201 85.2321 28.1965C87.4409 26.583 88.7724 24.7659 89.2736 22.6825C89.8689 20.2544 89.2893 17.3721 87.5505 14.1295Z" fill="#BB0000"/>
<path d="M76.2879 17.216C77.776 11.4357 77.0711 4.48054 65.6515 1.56689C63.8031 8.7257 67.6879 15.0229 76.2879 17.216Z" fill="white"/>
<path d="M76.2876 18.7821C76.1622 18.7821 76.0369 18.7665 75.8959 18.7351C71.0712 17.5133 67.437 15.0383 65.3849 11.5763C63.5834 8.53738 63.1448 4.93448 64.116 1.17494C64.3353 0.344702 65.1812 -0.172235 66.0115 0.0470716C71.2748 1.37858 74.9091 3.69696 76.8358 6.93957C78.5433 9.83755 78.8722 13.4248 77.7914 17.6073C77.6347 18.3122 76.9925 18.7821 76.2876 18.7821ZM66.8574 3.54032C66.5597 5.89003 66.9827 8.0831 68.0949 9.97854C69.4891 12.3283 71.9014 14.1297 75.1127 15.2262C75.5513 12.5632 75.238 10.3702 74.1572 8.53738C72.857 6.35997 70.4133 4.68384 66.8574 3.54032Z" fill="#BB0000"/>
<path d="M37.1105 80.0001C36.9068 80.0001 36.7189 79.9687 36.5152 79.8747C21.665 73.7968 12.0625 59.5732 12.0625 43.6108C12.0625 32.8334 16.3703 22.7923 24.2027 15.3359C24.8293 14.7406 25.8162 14.7563 26.4114 15.3829C27.0067 16.0095 26.991 16.9963 26.3644 17.5916C19.1586 24.4528 15.1955 33.695 15.1955 43.5951C15.1955 58.273 24.0304 71.3688 37.7057 76.9611C38.5046 77.2901 38.8963 78.1986 38.5673 78.9975C38.3167 79.6398 37.7371 80.0001 37.1105 80.0001Z" fill="#BB0000"/>
<path d="M17.3887 63.2074C11.4518 64.1003 4.5436 62.7218 2.75781 51.1769C10.1203 50.049 16.0415 54.4978 17.3887 63.2074Z" fill="white"/>
<path d="M14.5532 64.9933C7.17511 64.9933 2.58534 60.3408 1.20684 51.3963C1.14418 50.989 1.25383 50.566 1.4888 50.2371C1.73944 49.9081 2.09973 49.6731 2.52268 49.6105C10.919 48.3416 17.5139 53.699 18.9237 62.9569C18.9864 63.3641 18.8767 63.7871 18.6417 64.116C18.4068 64.445 18.0308 64.68 17.6079 64.7426C16.5583 64.915 15.5244 64.9933 14.5532 64.9933ZM4.60609 52.5711C6.04725 59.2286 9.57183 62.2206 15.5244 61.8447C14.0833 55.8137 10.0731 52.4301 4.60609 52.5711Z" fill="#BB0000"/>
<path d="M29.3403 75.1283C24.5312 78.7155 17.7953 80.7519 10.7148 71.4001C16.6675 66.967 24.0142 68.0948 29.3403 75.1283Z" fill="white"/>
<path d="M21.5076 79.718C17.2468 79.718 13.1739 77.2587 9.4614 72.3556C9.21076 72.0266 9.10111 71.6037 9.16377 71.1964C9.22643 70.7891 9.44573 70.4132 9.77469 70.1625C16.5575 65.1028 24.9225 66.7163 30.5932 74.1884C30.8438 74.5173 30.9535 74.9403 30.8908 75.3476C30.8281 75.7548 30.6088 76.1308 30.2799 76.3814C27.3036 78.6058 24.3743 79.718 21.5076 79.718ZM13.0173 71.7603C17.4661 76.9454 21.9776 77.9323 27.0529 74.7993C22.9018 70.1782 17.7324 69.066 13.0173 71.7603Z" fill="#BB0000"/>
<path d="M12.7981 45.9139C6.81417 45.2873 0.485603 42.217 1.70746 30.5938C9.11689 31.3457 13.7223 37.1416 12.7981 45.9139Z" fill="white"/>
<path d="M12.7983 47.4801C12.7513 47.4801 12.6886 47.4801 12.6416 47.4644C8.28683 47.0101 4.99723 45.4436 2.86682 42.812C0.5171 39.8983 -0.391457 35.7315 0.15681 30.4055C0.250799 29.5439 1.00271 28.9173 1.87994 29.0113C5.79613 29.4186 9.0544 31.0947 11.3101 33.8674C13.8165 36.969 14.8817 41.1828 14.3648 46.0546C14.2708 46.8848 13.5972 47.4801 12.7983 47.4801ZM3.14878 32.4105C2.99213 36.0604 3.71271 38.8958 5.29486 40.8539C6.65769 42.53 8.64712 43.6109 11.3415 44.1278C11.4198 40.8069 10.5739 37.9715 8.86642 35.8725C7.47226 34.118 5.51416 32.9431 3.14878 32.4105Z" fill="#BB0000"/>
<path d="M15.5392 30.4524C10.4169 27.3351 6.03073 21.8681 12.187 11.8896C18.5312 15.7275 20.176 22.9333 15.5392 30.4524Z" fill="white"/>
<path d="M15.5393 32.003C15.2574 32.003 14.9754 31.9247 14.7248 31.768C10.9966 29.5123 8.70951 26.6926 7.9106 23.4187C7.03338 19.7845 8.02026 15.6176 10.8399 11.0435C11.2942 10.3073 12.2497 10.088 12.986 10.5266C16.3383 12.563 18.5627 15.461 19.3929 18.9229C20.3328 22.7921 19.4555 27.0686 16.8709 31.2511C16.5732 31.7524 16.072 32.003 15.5393 32.003ZM12.6884 14.1295C10.9652 17.3721 10.3856 20.2544 10.9652 22.6981C11.4665 24.7815 12.798 26.5986 15.0067 28.2121C16.5262 25.2358 16.9962 22.3065 16.3539 19.6748C15.837 17.5131 14.5838 15.6176 12.6884 14.1295Z" fill="#BB0000"/>
<path d="M23.951 17.216C22.4629 11.4357 23.1834 4.48054 34.6031 1.56689C36.4515 8.7257 32.5667 15.0229 23.951 17.216Z" fill="white"/>
<path d="M23.9514 18.7821C23.2464 18.7821 22.6198 18.3122 22.4319 17.6073C21.351 13.4248 21.68 9.83755 23.3874 6.93957C25.2985 3.69696 28.9484 1.37858 34.2118 0.0470716C35.0577 -0.172235 35.9036 0.344702 36.1072 1.17494C37.0784 4.93448 36.6398 8.53738 34.8227 11.5763C32.7706 15.0383 29.1521 17.4976 24.3273 18.7351C24.2177 18.7665 24.0767 18.7821 23.9514 18.7821ZM33.3972 3.54032C29.8413 4.68384 27.3976 6.35997 26.0974 8.53738C25.0166 10.3702 24.6876 12.5632 25.1419 15.2262C28.3532 14.1297 30.7655 12.3283 32.1597 9.97854C33.2719 8.0831 33.6948 5.89003 33.3972 3.54032Z" fill="#BB0000"/>
<path d="M30.0452 68.126C29.6692 68.126 29.2933 67.985 28.9956 67.7187C22.5104 61.7818 18.7979 53.3698 18.7979 44.6289C18.7979 32.8176 25.3301 22.1343 35.8411 16.7299C36.6087 16.3383 37.5486 16.6359 37.9559 17.4035C38.3475 18.1711 38.0499 19.1109 37.2823 19.5182C27.8051 24.3743 21.9308 34.0081 21.9308 44.6289C21.9308 52.4926 25.2831 60.0587 31.1104 65.4004C31.7526 65.98 31.7996 66.9825 31.2044 67.6091C30.8911 67.9537 30.4681 68.126 30.0452 68.126Z" fill="#BB0000"/>
<path d="M70.1781 68.1262C69.7551 68.1262 69.3322 67.9539 69.0189 67.6249C68.4393 66.9826 68.4706 65.9958 69.1129 65.4162C74.9402 60.0745 78.2924 52.4927 78.2924 44.6447C78.2924 33.7733 72.2145 24.0455 62.4397 19.2834C61.6565 18.9074 61.3432 17.9676 61.7191 17.1843C62.0951 16.4011 63.035 16.0878 63.8182 16.4637C74.6895 21.7584 81.4254 32.5515 81.4254 44.6447C81.4254 53.3856 77.7128 61.7976 71.2276 67.7346C70.93 67.9852 70.554 68.1262 70.1781 68.1262Z" fill="#BB0000"/>
<path d="M50.1121 27.4136L55.4381 38.7079L67.3434 39.9297L58.7277 48.937L60.7642 60.3096L50.1121 55.2812L39.4601 60.3409L41.4965 48.937L32.8809 39.9297L44.7861 38.7079L50.1121 27.4136Z" fill="white"/>
<path d="M39.4595 61.9075C39.1149 61.9075 38.786 61.7978 38.504 61.5785C38.034 61.2182 37.8147 60.6386 37.9087 60.059L39.8042 49.4383L31.7368 41.0107C31.3295 40.5721 31.1885 39.9455 31.3922 39.3815C31.5958 38.8176 32.1128 38.426 32.708 38.3633L43.736 37.2355L48.6861 26.7401C48.9524 26.1918 49.5007 25.8472 50.0959 25.8472C50.6912 25.8472 51.2551 26.1918 51.5058 26.7401L56.4558 37.2355L67.4838 38.3633C68.0791 38.426 68.5804 38.8176 68.7997 39.3815C69.0033 39.9455 68.878 40.5721 68.455 41.0107L60.3877 49.454L62.2831 60.0277C62.3928 60.6073 62.1578 61.1869 61.6879 61.5472C61.2179 61.9075 60.5913 61.9701 60.0587 61.7195L50.0803 57.0044L40.1018 61.7508C39.9295 61.8448 39.6945 61.9075 39.4595 61.9075ZM36.2326 41.1517L42.6395 47.8405C42.9841 48.2008 43.1408 48.7021 43.0468 49.2033L41.543 57.6153L49.438 53.8558C49.861 53.6521 50.3622 53.6521 50.7852 53.8558L58.6802 57.584L57.1764 49.2033C57.0824 48.7177 57.2391 48.2008 57.5837 47.8405L63.9906 41.136L55.2653 40.2431C54.717 40.1804 54.2471 39.8515 54.0121 39.3502L50.1116 31.0635L46.2111 39.3502C45.9761 39.8515 45.5061 40.1804 44.9579 40.2431L36.2326 41.1517Z" fill="#BB0000"/>
</g>
<defs>
<clipPath id="clip0">
<rect width="100.255" height="80" fill="white"/>
</clipPath>
</defs>
</svg>
