<svg width="82" height="80" viewBox="0 0 82 80" fill="none" xmlns="http://www.w3.org/2000/svg">
<g clip-path="url(#clip0)">
<path d="M40.6554 80.0002C53.6929 80.0002 64.2619 69.4312 64.2619 56.3937C64.2619 43.3561 53.6929 32.7871 40.6554 32.7871C27.6178 32.7871 17.0488 43.3561 17.0488 56.3937C17.0488 69.4312 27.6178 80.0002 40.6554 80.0002Z" fill="#E9EAEB"/>
<path d="M78.6886 2.62305H2.62305V57.705H78.6886V2.62305Z" fill="white"/>
<path d="M26.2298 59.0165H10.4921C9.77083 59.0165 9.18066 58.4263 9.18066 57.705C9.18066 56.9837 9.77083 56.3936 10.4921 56.3936H26.2298C26.9512 56.3936 27.5413 56.9837 27.5413 57.705C27.5413 58.4263 26.9512 59.0165 26.2298 59.0165Z" fill="#BB0000"/>
<path d="M6.55738 60.3278H1.31148C0.590164 60.3278 0 59.7377 0 59.0164V53.7705C0 53.0491 0.590164 52.459 1.31148 52.459C2.03279 52.459 2.62295 53.0491 2.62295 53.7705V57.7049H6.55738C7.27869 57.7049 7.86885 58.2951 7.86885 59.0164C7.86885 59.7377 7.27869 60.3278 6.55738 60.3278Z" fill="#BB0000"/>
<path d="M1.31148 7.86885C0.590164 7.86885 0 7.27869 0 6.55738V1.31148C0 0.590164 0.590164 0 1.31148 0H6.55738C7.27869 0 7.86885 0.590164 7.86885 1.31148C7.86885 2.03279 7.27869 2.62295 6.55738 2.62295H2.62295V6.55738C2.62295 7.27869 2.03279 7.86885 1.31148 7.86885Z" fill="#BB0000"/>
<path d="M2.623 51.1474C1.90169 51.1474 1.31152 50.5572 1.31152 49.8359V10.4917C1.31152 9.77034 1.90169 9.18018 2.623 9.18018C3.34431 9.18018 3.93447 9.77034 3.93447 10.4917V49.8359C3.93447 50.5572 3.34431 51.1474 2.623 51.1474Z" fill="#BB0000"/>
<path d="M70.8197 59.0165H55.082C54.3607 59.0165 53.7705 58.4263 53.7705 57.705C53.7705 56.9837 54.3607 56.3936 55.082 56.3936H70.8197C71.541 56.3936 72.1312 56.9837 72.1312 57.705C72.1312 58.4263 71.541 59.0165 70.8197 59.0165Z" fill="#BB0000"/>
<path d="M70.82 3.93447H10.4921C9.77083 3.93447 9.18066 3.34431 9.18066 2.623C9.18066 1.90169 9.77083 1.31152 10.4921 1.31152H70.82C71.5413 1.31152 72.1315 1.90169 72.1315 2.623C72.1315 3.34431 71.5413 3.93447 70.82 3.93447Z" fill="#BB0000"/>
<path d="M79.9998 60.3278H74.7539C74.0325 60.3278 73.4424 59.7377 73.4424 59.0164C73.4424 58.2951 74.0325 57.7049 74.7539 57.7049H78.6883V53.7705C78.6883 53.0491 79.2785 52.459 79.9998 52.459C80.7211 52.459 81.3112 53.0491 81.3112 53.7705V59.0164C81.3112 59.7377 80.7211 60.3278 79.9998 60.3278Z" fill="#BB0000"/>
<path d="M79.9998 7.86885C79.2785 7.86885 78.6883 7.27869 78.6883 6.55738V2.62295H74.7539C74.0325 2.62295 73.4424 2.03279 73.4424 1.31148C73.4424 0.590164 74.0325 0 74.7539 0H79.9998C80.7211 0 81.3112 0.590164 81.3112 1.31148V6.55738C81.3112 7.27869 80.7211 7.86885 79.9998 7.86885Z" fill="#BB0000"/>
<path d="M78.6884 51.1474C77.9671 51.1474 77.377 50.5572 77.377 49.8359V10.4917C77.377 9.77034 77.9671 9.18018 78.6884 9.18018C79.4097 9.18018 79.9999 9.77034 79.9999 10.4917V49.8359C79.9999 50.5572 79.4097 51.1474 78.6884 51.1474Z" fill="#BB0000"/>
<path d="M35.4102 55.082V74.7542L40.6561 70.8197L45.902 74.7542V55.082H35.4102Z" fill="white"/>
<path d="M45.9019 76.0656C45.6265 76.0656 45.3511 75.9738 45.115 75.8033L40.656 72.459L36.197 75.8033C35.8036 76.1049 35.2658 76.1443 34.8199 75.9213C34.374 75.7115 34.0986 75.2525 34.0986 74.7541V55.082C34.0986 54.3607 34.6888 53.7705 35.4101 53.7705H45.9019C46.6232 53.7705 47.2134 54.3607 47.2134 55.082V74.7541C47.2134 75.2525 46.938 75.7115 46.4921 75.9213C46.3085 76.0262 46.0986 76.0656 45.9019 76.0656ZM40.656 69.5082C40.9314 69.5082 41.2068 69.6 41.4429 69.7705L44.5904 72.1312V56.3935H36.7216V72.1312L39.8691 69.7705C40.1052 69.6 40.3806 69.5082 40.656 69.5082Z" fill="#BB0000"/>
<path d="M40.656 40.9048C42.7806 37.7441 47.7118 39.79 46.9774 43.5277C50.7151 42.7933 52.761 47.7244 49.6003 49.849C52.761 51.9736 50.7151 56.9048 46.9774 56.1703C47.7118 59.9081 42.7806 61.954 40.656 58.7933C38.5315 61.954 33.6003 59.9081 34.3347 56.1703C30.597 56.9048 28.5511 51.9736 31.7118 49.849C28.5511 47.7244 30.597 42.7933 34.3347 43.5277C33.6003 39.7769 38.5315 37.7441 40.656 40.9048Z" fill="white"/>
<path d="M43.4885 61.6391C42.4655 61.6391 41.4688 61.2981 40.6557 60.6686C39.3311 61.6915 37.5868 61.9407 35.9213 61.2588C34.2688 60.5768 33.1934 59.1604 32.9836 57.4948C31.3311 57.285 29.9147 56.2227 29.2196 54.5571C28.5377 52.9047 28.7868 51.1473 29.8098 49.8227C28.7868 48.4981 28.5377 46.7538 29.2196 45.0883C29.9016 43.4358 31.318 42.3604 32.9836 42.1506C33.1934 40.4981 34.2557 39.0817 35.9213 38.3866C37.5737 37.7047 39.3311 37.9538 40.6557 38.9768C41.9803 37.9538 43.7245 37.7047 45.3901 38.3866C47.0426 39.0686 48.118 40.485 48.3278 42.1506C49.9803 42.3604 51.3967 43.4227 52.0918 45.0883C52.7737 46.7407 52.5245 48.4981 51.5016 49.8227C52.5245 51.1473 52.7737 52.8915 52.0918 54.5571C51.4098 56.2096 49.9934 57.285 48.3278 57.4948C48.118 59.1473 47.0557 60.5637 45.3901 61.2588C44.7606 61.521 44.118 61.6391 43.4885 61.6391ZM40.6557 57.4555C41.0885 57.4555 41.495 57.6784 41.7442 58.0325C42.4786 59.121 43.5934 59.1604 44.3803 58.8325C45.1803 58.5047 45.9409 57.6915 45.6786 56.4063C45.6 55.9735 45.7311 55.5407 46.0327 55.226C46.3475 54.9112 46.7803 54.7801 47.2131 54.8719C48.5114 55.1342 49.3114 54.3604 49.6393 53.5735C49.9672 52.7735 49.9278 51.6719 48.8393 50.9374C48.4721 50.6883 48.2622 50.2817 48.2622 49.8489C48.2622 49.4161 48.4852 49.0096 48.8393 48.7604C49.9278 48.026 49.9672 46.9112 49.6393 46.1243C49.3114 45.3243 48.4983 44.5637 47.2131 44.826C46.7803 44.9047 46.3475 44.7735 46.0327 44.4719C45.718 44.1571 45.5868 43.7243 45.6786 43.2915C45.9278 42.0063 45.1803 41.1932 44.3803 40.8653C43.5934 40.5374 42.4786 40.5768 41.7442 41.6653C41.259 42.3866 40.0524 42.3866 39.5672 41.6653C38.8327 40.5768 37.718 40.5374 36.9311 40.8653C36.1311 41.1932 35.3704 42.0063 35.6327 43.2915C35.7114 43.7243 35.5803 44.1571 35.2786 44.4719C34.977 44.7866 34.5311 44.9178 34.0983 44.826C32.8 44.5768 32 45.3374 31.6721 46.1243C31.3442 46.9243 31.3836 48.026 32.4721 48.7604C32.8393 49.0096 33.0491 49.4161 33.0491 49.8489C33.0491 50.2817 32.8262 50.6883 32.4721 50.9374C31.3836 51.6719 31.3442 52.7866 31.6721 53.5735C32 54.3735 32.8 55.1342 34.0983 54.8719C34.5311 54.7932 34.9639 54.9243 35.2786 55.226C35.5934 55.5407 35.7245 55.9735 35.6327 56.4063C35.3836 57.6915 36.1311 58.5047 36.9311 58.8325C37.718 59.1604 38.8327 59.121 39.5672 58.0325C39.8163 57.6784 40.2229 57.4555 40.6557 57.4555Z" fill="#BB0000"/>
<path d="M70.4134 52.4064C68.8659 52.4064 66.9511 51.6195 65.0888 50.8457C63.7511 50.2949 62.2429 49.6654 61.5085 49.6654C60.6429 49.6654 59.7118 50.2424 58.7282 50.8588C58.0068 51.3047 57.2593 51.7769 56.4331 52.0916C55.7511 52.3539 55.0036 52.0129 54.7413 51.3309C54.479 50.649 54.82 49.9014 55.5019 49.6391C56.0921 49.4162 56.6954 49.0359 57.338 48.6424C58.5314 47.8949 59.8954 47.0424 61.5085 47.0424C62.7544 47.0424 64.3675 47.7113 66.0855 48.4195C67.397 48.9572 70.138 50.085 70.7019 49.7178C70.8855 49.167 69.7577 47.1605 69.2068 46.19C68.315 44.6162 67.5413 43.2391 67.5413 42.0588C67.5413 40.5113 68.5773 39.3047 69.4954 38.2293C70.138 37.4687 70.82 36.6818 70.82 36.1047C70.82 35.5277 70.1511 34.7408 69.4954 33.9801C68.5773 32.9178 67.5413 31.6982 67.5413 30.1506C67.5413 28.6031 68.5773 27.3965 69.4954 26.3211C70.1511 25.5605 70.82 24.7736 70.82 24.1965C70.82 23.6195 70.1511 22.8326 69.4954 22.0719C68.5773 21.0096 67.5413 19.79 67.5413 18.2424C67.5413 17.049 68.315 15.685 69.2068 14.1113C69.7577 13.1408 70.8855 11.1342 70.7282 10.5834C70.138 10.2162 67.397 11.3441 66.0855 11.8818C64.3675 12.59 62.7544 13.2588 61.5085 13.2588C59.8954 13.2588 58.5314 12.4064 57.338 11.6588C56.3544 11.0687 55.4232 10.4916 54.5577 10.4916C53.6921 10.4916 52.7609 11.0687 51.7773 11.685C50.5839 12.4326 49.22 13.285 47.6068 13.285C45.9937 13.285 44.6298 12.4326 43.4364 11.685C42.4527 11.0687 41.5216 10.4916 40.656 10.4916C39.7905 10.4916 38.8593 11.0687 37.8757 11.685C36.6823 12.4326 35.3183 13.285 33.7052 13.285C32.0921 13.285 30.7282 12.4326 29.5347 11.685C28.5511 11.0687 27.62 10.4916 26.7544 10.4916C25.8888 10.4916 24.9577 11.0687 23.9741 11.685C22.7806 12.4326 21.4167 13.285 19.8036 13.285C18.5577 13.285 16.9445 12.6162 15.2265 11.908C13.915 11.3703 11.1741 10.2293 10.6101 10.6096C10.4265 11.1605 11.5544 13.167 12.1052 14.1375C12.997 15.7113 13.7708 17.0883 13.7708 18.2687C13.7708 19.8162 12.7347 21.0228 11.8167 22.0982C11.1609 22.8588 10.4921 23.6457 10.4921 24.2227C10.4921 24.7998 11.1609 25.5867 11.8167 26.3473C12.7347 27.4096 13.7708 28.6293 13.7708 30.1768C13.7708 31.7244 12.7347 32.9309 11.8167 34.0064C11.1609 34.7539 10.4921 35.5277 10.4921 36.1047C10.4921 36.6818 11.1609 37.4687 11.8167 38.2293C12.7347 39.2916 13.7708 40.5113 13.7708 42.0588C13.7708 43.2523 12.997 44.6162 12.1052 46.19C11.5544 47.1605 10.4265 49.167 10.5839 49.7178C11.1741 50.0982 13.915 48.9572 15.2265 48.4195C16.9445 47.7113 18.5577 47.0424 19.8036 47.0424C21.4167 47.0424 22.7806 47.8949 23.9741 48.6424C24.4986 48.9703 24.997 49.285 25.4823 49.508C26.138 49.8096 26.4265 50.5965 26.1249 51.2523C25.8232 51.908 25.0364 52.1965 24.3806 51.8949C23.738 51.5932 23.1478 51.226 22.5708 50.8719C21.5872 50.2555 20.656 49.6785 19.7905 49.6785C19.0691 49.6785 17.5478 50.308 16.2101 50.8588C13.4036 52.0129 10.4921 53.2195 8.8134 51.6719C6.8593 50.1244 8.41996 47.3572 9.79701 44.9309C10.3216 43.9998 11.1216 42.5834 11.1216 42.085C11.1216 41.508 10.4527 40.7211 9.79701 39.9605C8.90521 38.8719 7.86914 37.6523 7.86914 36.1047C7.86914 34.5572 8.90521 33.3506 9.82324 32.2752C10.4659 31.5146 11.1478 30.7277 11.1478 30.1506C11.1478 29.5736 10.479 28.7867 9.82324 28.026C8.90521 26.9769 7.86914 25.7703 7.86914 24.2227C7.86914 22.6752 8.90521 21.4687 9.82324 20.3932C10.479 19.6326 11.1478 18.8457 11.1478 18.2687C11.1478 17.7703 10.3478 16.3539 9.82324 15.4228C8.44619 12.9965 6.88553 10.2293 8.90521 8.61619C10.5183 7.13423 13.4167 8.32767 16.2232 9.48177C17.5609 10.0326 19.0691 10.6621 19.8036 10.6621C20.6691 10.6621 21.6003 10.085 22.5839 9.46865C23.7773 8.72111 25.1413 7.86865 26.7544 7.86865C28.3675 7.86865 29.7314 8.72111 30.9249 9.46865C31.9085 10.085 32.8396 10.6621 33.7052 10.6621C34.5708 10.6621 35.5019 10.085 36.4855 9.46865C37.679 8.72111 39.0429 7.86865 40.656 7.86865C42.2691 7.86865 43.6331 8.72111 44.8265 9.46865C45.8101 10.085 46.7413 10.6621 47.6068 10.6621C48.4724 10.6621 49.4036 10.085 50.3872 9.46865C51.5806 8.72111 52.9314 7.86865 54.5577 7.86865C56.1839 7.86865 57.5347 8.72111 58.7282 9.46865C59.7118 10.085 60.6429 10.6621 61.5085 10.6621C62.2298 10.6621 63.7511 10.0326 65.0888 9.48177C67.8954 8.32767 70.7937 7.12111 72.4855 8.66865C74.4396 10.2162 72.8134 13.1014 71.5019 15.4096C70.9773 16.3408 70.1773 17.7572 70.1773 18.2555C70.1773 18.8326 70.8462 19.6195 71.5019 20.3801C72.42 21.4424 73.456 22.6621 73.456 24.2096C73.456 25.7572 72.42 26.9637 71.5019 28.0391C70.8462 28.7998 70.1773 29.5867 70.1773 30.1637C70.1773 30.7408 70.8462 31.5277 71.5019 32.2883C72.42 33.3506 73.456 34.5703 73.456 36.1178C73.456 37.6654 72.42 38.8719 71.5019 39.9473C70.8593 40.708 70.1773 41.4949 70.1773 42.0719C70.1773 42.5703 70.9773 43.9867 71.5019 44.9178C72.8134 47.2391 74.4396 50.1113 72.4068 51.7244C71.8691 52.2096 71.1872 52.4064 70.4134 52.4064Z" fill="#BB0000"/>
<path d="M48.5248 31.4755H32.7871C32.0657 31.4755 31.4756 30.8853 31.4756 30.164C31.4756 29.4427 32.0657 28.8525 32.7871 28.8525H48.5248C49.2461 28.8525 49.8362 29.4427 49.8362 30.164C49.8362 30.8853 49.2461 31.4755 48.5248 31.4755Z" fill="#BB0000"/>
<path d="M53.7705 26.2294H27.541C26.8197 26.2294 26.2295 25.6392 26.2295 24.9179C26.2295 24.1966 26.8197 23.6064 27.541 23.6064H53.7705C54.4918 23.6064 55.082 24.1966 55.082 24.9179C55.082 25.6392 54.4918 26.2294 53.7705 26.2294Z" fill="#BB0000"/>
<path d="M40.6561 53.7707C42.829 53.7707 44.5905 52.0092 44.5905 49.8363C44.5905 47.6634 42.829 45.9019 40.6561 45.9019C38.4832 45.9019 36.7217 47.6634 36.7217 49.8363C36.7217 52.0092 38.4832 53.7707 40.6561 53.7707Z" fill="white"/>
<path d="M40.6561 55.0821C37.7577 55.0821 35.4102 52.7346 35.4102 49.8362C35.4102 46.9379 37.7577 44.5903 40.6561 44.5903C43.5544 44.5903 45.902 46.9379 45.902 49.8362C45.902 52.7346 43.5544 55.0821 40.6561 55.0821ZM40.6561 47.2133C39.2134 47.2133 38.0331 48.3936 38.0331 49.8362C38.0331 51.2789 39.2134 52.4592 40.6561 52.4592C42.0987 52.4592 43.279 51.2789 43.279 49.8362C43.279 48.3936 42.0987 47.2133 40.6561 47.2133Z" fill="#BB0000"/>
</g>
<defs>
<clipPath id="clip0">
<rect width="81.3115" height="80" fill="white"/>
</clipPath>
</defs>
</svg>
