<svg width="96" height="96" viewBox="0 0 96 96" fill="none" xmlns="http://www.w3.org/2000/svg">
<path d="M48 13.125C28.7344 13.125 13.125 28.875 13.125 48C13.125 67.2656 28.7344 82.875 48 82.875C67.125 82.875 82.875 67.2656 82.875 48C82.875 28.875 67.125 13.125 48 13.125ZM48 78.375C31.2656 78.375 17.625 64.875 17.625 48C17.625 31.4062 31.125 17.625 48 17.625C64.5938 17.625 78.375 31.2656 78.375 48C78.375 64.7344 64.7344 78.375 48 78.375ZM67.8281 39.8438C68.5312 39.1406 68.5312 38.0156 67.8281 37.4531L66.7031 36.1875C66 35.4844 64.875 35.4844 64.3125 36.1875L41.25 58.9688L31.5469 49.2656C30.9844 48.5625 29.8594 48.5625 29.1562 49.2656L28.0312 50.3906C27.3281 51.0938 27.3281 52.0781 28.0312 52.7812L40.125 65.0156C40.6875 65.5781 41.8125 65.5781 42.5156 65.0156L67.8281 39.8438Z" fill="white"/>
</svg>
