<svg width="96" height="96" viewBox="0 0 96 96" fill="none" xmlns="http://www.w3.org/2000/svg">
<path d="M48 25.5C40.5469 25.5 34.5 31.6875 34.5 39C34.5 46.4531 40.5469 52.5 48 52.5C55.3125 52.5 61.5 46.4531 61.5 39C61.5 31.6875 55.3125 25.5 48 25.5ZM48 48C42.9375 48 39 44.0625 39 39C39 34.0781 42.9375 30 48 30C52.9219 30 57 34.0781 57 39C57 44.0625 52.9219 48 48 48ZM72.6094 50.3906C74.5781 48.4219 75.4219 45.3281 74.7188 42.6562C73.7344 39.2812 73.7344 39.8438 74.7188 36.3281C75.4219 33.6562 74.5781 30.7031 72.6094 28.5938C70.2188 26.2031 70.5 26.625 69.5156 23.25C68.8125 20.4375 66.7031 18.3281 64.0312 17.4844C60.6562 16.6406 61.0781 16.9219 58.6875 14.3906C56.7188 12.4219 53.7656 11.5781 50.9531 12.2812C47.7188 13.2656 48.1406 13.2656 44.9062 12.2812C42.2344 11.5781 39.1406 12.4219 37.1719 14.3906C34.7812 16.9219 35.2031 16.6406 31.9688 17.4844C29.1562 18.3281 27.0469 20.4375 26.3438 23.25C25.3594 26.625 25.6406 26.2031 23.25 28.5938C21.2812 30.7031 20.4375 33.6562 21.1406 36.3281C22.125 39.7031 22.125 39.2812 21.1406 42.6562C20.4375 45.4688 21.2812 48.4219 23.25 50.3906C25.6406 52.9219 25.3594 52.5 26.3438 55.7344C26.625 56.8594 27.1875 57.8438 27.75 58.6875L21.1406 75.1406C20.4375 76.6875 21.5625 78.2344 23.1094 78.2344C23.25 78.2344 22.8281 78.2344 30.7031 77.9531L35.7656 83.2969C36.1875 83.8594 36.75 84 37.4531 84C38.2969 84 39.1406 83.5781 39.5625 82.7344L46.875 64.5938C47.1562 64.4531 47.5781 64.3125 48 64.3125C48.2812 64.3125 48.7031 64.4531 48.9844 64.4531L56.4375 82.7344C56.7188 83.5781 57.5625 84 58.4062 84C59.1094 84 59.6719 83.8594 60.0938 83.2969L65.1562 77.9531C73.0312 78.2344 72.6094 78.2344 72.75 78.2344C74.2969 78.2344 75.4219 76.6875 74.7188 75.1406L68.1094 58.6875C68.6719 57.8438 69.2344 56.8594 69.5156 55.7344C70.5 52.3594 70.2188 52.9219 72.6094 50.3906ZM36.6094 77.6719C33.5156 74.4375 34.3594 75.2812 32.5312 73.4531C30 73.4531 31.2656 73.4531 26.625 73.5938L31.5469 61.3594C31.6875 61.3594 31.8281 61.5 31.9688 61.5C34.9219 62.3438 34.7812 62.0625 36.3281 63.75C37.7344 65.1562 39.5625 65.8594 41.3906 66L36.6094 77.6719ZM69.2344 73.5938C64.5938 73.4531 65.8594 73.4531 63.3281 73.4531C61.5 75.2812 62.3438 74.4375 59.25 77.6719L54.4688 66C56.2969 65.8594 58.125 65.1562 59.5312 63.75C61.0781 62.0625 60.9375 62.3438 64.0312 61.5C64.0312 61.5 64.1719 61.3594 64.3125 61.3594L69.2344 73.5938ZM65.1562 54.6094C64.875 55.875 63.8906 56.8594 62.7656 57.1406C59.3906 57.9844 58.8281 57.9844 56.2969 60.5156C55.1719 61.6406 53.4844 61.9219 52.0781 61.0781C49.5469 59.3906 46.3125 59.3906 43.7812 61.0781C42.375 61.9219 40.6875 61.6406 39.5625 60.5156C37.1719 58.125 36.4688 57.9844 33.0938 57.1406C31.9688 56.8594 30.9844 55.875 30.7031 54.6094C29.5781 50.3906 29.5781 50.3906 26.4844 47.1562C25.5 46.3125 25.2188 45.0469 25.5 43.7812C26.625 39.5625 26.7656 39.5625 25.5 35.2031C25.2188 33.9375 25.6406 32.6719 26.4844 31.8281C29.5781 28.5938 29.5781 28.7344 30.7031 24.375C30.9844 23.1094 31.9688 22.2656 33.0938 21.8438C37.4531 20.7188 37.3125 20.8594 40.4062 17.625C41.1094 16.7812 42.375 16.3594 43.6406 16.6406C48 17.9062 47.8594 17.9062 52.2188 16.6406C53.3438 16.3594 54.6094 16.7812 55.4531 17.625C58.5469 20.8594 58.5469 20.7188 62.7656 21.8438C63.8906 22.2656 64.875 23.1094 65.1562 24.375C66.2812 28.7344 66.2812 28.5938 69.375 31.8281C70.3594 32.6719 70.6406 33.9375 70.3594 35.2031C69.0938 39.5625 69.0938 39.5625 70.3594 43.7812C70.6406 45.0469 70.2188 46.3125 69.375 47.1562C66.2812 50.3906 66.2812 50.25 65.1562 54.6094Z" fill="white"/>
</svg>
