<svg width="96" height="96" viewBox="0 0 96 96" fill="none" xmlns="http://www.w3.org/2000/svg">
<path d="M65.5 12H29.5C22.0469 12 16 18.0469 16 25.5V75C16 79.9219 20.0781 84 25 84H70C74.9219 84 79 79.9219 79 75V25.5C79 18.0469 72.9531 12 65.5 12ZM74.5 75C74.5 77.5312 72.5312 79.5 70 79.5H25C22.4688 79.5 20.5 77.5312 20.5 75V39H74.5V75ZM74.5 34.5H20.5V25.5C20.5 20.5781 24.5781 16.5 29.5 16.5H65.5C70.4219 16.5 74.5 20.5781 74.5 25.5V34.5ZM29.5 75H65.5C68.0312 75 70 73.0312 70 70.5V48C70 45.4688 68.0312 43.5 65.5 43.5H29.5C26.9688 43.5 25 45.4688 25 48V70.5C25 73.0312 26.9688 75 29.5 75ZM29.5 48H65.5V70.5H29.5V48ZM58.75 52.5H36.25C34.9844 52.5 34 53.4844 34 54.75C34 56.0156 34.9844 57 36.25 57H58.75C60.0156 57 61 56.0156 61 54.75C61 53.4844 60.0156 52.5 58.75 52.5ZM27.25 25.5C25.9844 25.5 25 26.4844 25 27.75C25 29.0156 25.9844 30 27.25 30C28.5156 30 29.5 29.0156 29.5 27.75C29.5 26.4844 28.5156 25.5 27.25 25.5ZM40.75 25.5C39.4844 25.5 38.5 26.4844 38.5 27.75C38.5 29.0156 39.4844 30 40.75 30C42.0156 30 43 29.0156 43 27.75C43 26.4844 42.0156 25.5 40.75 25.5ZM54.25 25.5C52.9844 25.5 52 26.4844 52 27.75C52 29.0156 52.9844 30 54.25 30C55.5156 30 56.5 29.0156 56.5 27.75C56.5 26.4844 55.5156 25.5 54.25 25.5ZM67.75 25.5C66.4844 25.5 65.5 26.4844 65.5 27.75C65.5 29.0156 66.4844 30 67.75 30C69.0156 30 70 29.0156 70 27.75C70 26.4844 69.0156 25.5 67.75 25.5Z" fill="white"/>
</svg>
