<svg width="32" height="32" viewBox="0 0 32 32" fill="none" xmlns="http://www.w3.org/2000/svg">
<rect width="32" height="32" fill="white" fill-opacity="0.01"/>
<path d="M27.625 16C27.625 9.57812 22.4219 4.375 16 4.375C9.57812 4.375 4.375 9.57812 4.375 16C4.375 21.8125 8.59375 26.6406 14.1719 27.4844V19.375H11.2188V16H14.1719V13.4688C14.1719 10.5625 15.9062 8.92188 18.5312 8.92188C19.8438 8.92188 21.1562 9.15625 21.1562 9.15625V12.0156H19.7031C18.25 12.0156 17.7812 12.9062 17.7812 13.8438V16H21.0156L20.5 19.375H17.7812V27.4844C23.3594 26.6406 27.625 21.8125 27.625 16Z" fill="#4267B2"/>
</svg>
