<svg width="37" height="40" viewBox="0 0 37 40" fill="none" xmlns="http://www.w3.org/2000/svg">
<g clip-path="url(#clip0)">
<path d="M26.659 24.9659C26.2045 24.9659 25.8408 24.6022 25.8408 24.1477V15.8522C25.8408 15.3977 26.2045 15.0341 26.659 15.0341C27.1135 15.0341 27.4772 15.3977 27.4772 15.8522V24.1477C27.4772 24.6022 27.1135 24.9659 26.659 24.9659Z" fill="white"/>
<path d="M30.2501 22.8977C30.1137 22.8977 29.966 22.8636 29.841 22.784L22.6592 18.6363C22.2728 18.409 22.1364 17.909 22.3637 17.5227C22.591 17.1363 23.091 17 23.4773 17.2272L30.6592 21.375C31.0455 21.6022 31.1819 22.1022 30.9546 22.4886C30.8069 22.75 30.5342 22.8977 30.2501 22.8977Z" fill="white"/>
<path d="M23.0682 22.8977C22.7842 22.8977 22.5114 22.75 22.3637 22.4886C22.1364 22.1022 22.2728 21.6022 22.6592 21.375L29.841 17.2272C30.2273 17 30.7273 17.1363 30.9546 17.5227C31.1819 17.909 31.0455 18.409 30.6592 18.6363L23.4773 22.784C23.3523 22.8636 23.2046 22.8977 23.0682 22.8977Z" fill="white"/>
<path d="M13.341 26.75C13.1365 26.75 12.9206 26.6818 12.7501 26.5341C10.2842 24.375 10.7615 21.5568 12.2387 19.8409C12.7842 19.2159 13.0456 18.3636 12.966 17.5568C12.8865 16.7727 12.4774 16.0795 11.7842 15.5568C11.3865 15.2613 11.3183 14.6932 11.6137 14.3068C11.9092 13.9091 12.4774 13.8409 12.8637 14.1363C13.9546 14.9659 14.6024 16.0909 14.7387 17.375C14.8751 18.6704 14.4433 20.0227 13.5796 21.0227C12.6592 22.0909 12.2615 23.75 13.9206 25.2045C14.2956 25.5341 14.3296 26.0909 14.0001 26.4659C13.841 26.6477 13.591 26.75 13.341 26.75ZM18.4887 24.4773C18.2501 24.4773 18.0228 24.3863 17.8524 24.2045C16.0228 22.3182 16.341 19.9318 17.466 18.3977C18.0569 17.5909 18.3751 15.8977 17.1592 14.8182C16.7956 14.4886 16.7615 13.9204 17.091 13.5568C17.4206 13.1932 17.9887 13.1591 18.3524 13.4886C20.216 15.1591 20.091 17.8409 18.8978 19.4659C18.2728 20.3182 17.9546 21.75 19.1251 22.9659C19.466 23.3182 19.466 23.8863 19.1024 24.2273C18.9433 24.3977 18.716 24.4773 18.4887 24.4773ZM7.42056 24.4773C7.18192 24.4773 6.95465 24.3863 6.78419 24.2045C4.95465 22.3182 5.27283 19.9318 6.39783 18.3977C6.98874 17.5909 7.30692 15.8977 6.09101 14.8182C5.71601 14.4886 5.68192 13.9204 6.01147 13.5568C6.34101 13.1932 6.90919 13.1591 7.27283 13.4886C9.13647 15.1591 9.01147 17.8409 7.81829 19.4659C7.19329 20.3182 6.8751 21.75 8.04556 22.9659C8.38647 23.3182 8.38647 23.8863 8.02283 24.2273C7.86374 24.3977 7.63647 24.4773 7.42056 24.4773Z" fill="white"/>
<path d="M28.9434 6.43176C28.0456 6.43176 27.3184 5.70449 27.3184 4.80676C27.3184 3.90904 28.0456 3.18176 28.9434 3.18176C29.8411 3.18176 30.5684 3.90904 30.5684 4.80676C30.5684 5.70449 29.8411 6.43176 28.9434 6.43176ZM28.9434 3.99994V4.81813C28.9547 4.81813 28.9547 4.81813 28.9547 4.80676L28.9434 3.99994Z" fill="white"/>
<path d="M24.5112 6.43176C23.6135 6.43176 22.8862 5.70449 22.8862 4.80676C22.8862 3.90904 23.6135 3.18176 24.5112 3.18176C25.409 3.18176 26.1362 3.90904 26.1362 4.80676C26.1362 5.70449 25.409 6.43176 24.5112 6.43176ZM24.5112 3.99994V4.81813C24.5226 4.81813 24.5226 4.81813 24.5226 4.80676L24.5112 3.99994Z" fill="white"/>
<path d="M20.0684 6.43176C19.1706 6.43176 18.4434 5.70449 18.4434 4.80676C18.4434 3.90904 19.1706 3.18176 20.0684 3.18176C20.9661 3.18176 21.6934 3.90904 21.6934 4.80676C21.6934 5.70449 20.9661 6.43176 20.0684 6.43176ZM20.0684 3.99994V4.81813C20.0797 4.81813 20.0797 4.80676 20.0797 4.80676L20.0684 3.99994Z" fill="white"/>
<path d="M15.6362 6.43176C14.7385 6.43176 14.0112 5.70449 14.0112 4.80676C14.0112 3.90904 14.7385 3.18176 15.6362 3.18176C16.534 3.18176 17.2612 3.90904 17.2612 4.80676C17.2612 5.70449 16.534 6.43176 15.6362 6.43176ZM15.6362 3.99994V4.81813C15.6476 4.81813 15.6476 4.80676 15.6476 4.80676L15.6362 3.99994Z" fill="white"/>
<path d="M7.59082 6.43176C6.69309 6.43176 5.96582 5.70449 5.96582 4.80676C5.96582 3.90904 6.69309 3.18176 7.59082 3.18176C8.48855 3.18176 9.21582 3.90904 9.21582 4.80676C9.21582 5.70449 8.48855 6.43176 7.59082 6.43176ZM7.59082 3.99994V4.81813C7.60218 4.81813 7.60218 4.80676 7.60218 4.80676L7.59082 3.99994Z" fill="white"/>
<path d="M33.8295 39.9999H2.71591C1.60227 39.9999 0 38.409 0 37.284V32.3863C0 31.9318 0.363636 31.5681 0.818182 31.5681C1.27273 31.5681 1.63636 31.9318 1.63636 32.3863V37.284C1.69318 37.5681 2.43182 38.3068 2.73864 38.3636H33.8182C34.1023 38.3068 34.8409 37.5681 34.8977 37.2499V32.3863C34.8977 31.9318 35.2614 31.5681 35.7159 31.5681C36.1705 31.5681 36.5341 31.9318 36.5341 32.3863V37.284C36.5455 38.409 34.9432 39.9999 33.8295 39.9999Z" fill="white"/>
<path d="M35.7273 32.9772H0.818182C0.363636 32.9772 0 32.6136 0 32.159V8.74994C0 8.2954 0.363636 7.93176 0.818182 7.93176H35.7273C36.1818 7.93176 36.5455 8.2954 36.5455 8.74994V32.159C36.5455 32.6136 36.1705 32.9772 35.7273 32.9772ZM1.63636 31.3409H34.9091V9.56813H1.63636V31.3409Z" fill="white"/>
<path d="M35.7273 9.32955C35.2727 9.32955 34.9091 8.96591 34.9091 8.51136V2.71591C34.8523 2.43182 34.1136 1.69318 33.8068 1.63636H2.72727C2.44318 1.69318 1.70455 2.43182 1.64773 2.73864V8.51136C1.64773 8.96591 1.28409 9.32955 0.829545 9.32955C0.375 9.32955 0 8.96591 0 8.51136V2.71591C0 1.60227 1.60227 0 2.71591 0H33.8295C34.9432 0 36.5455 1.60227 36.5455 2.71591V8.51136C36.5455 8.96591 36.1705 9.32955 35.7273 9.32955Z" fill="white"/>
</g>
<defs>
<clipPath id="clip0">
<rect width="36.5455" height="40" fill="white"/>
</clipPath>
</defs>
</svg>
