<svg width="40" height="40" viewBox="0 0 40 40" fill="none" xmlns="http://www.w3.org/2000/svg">
<path d="M25.4234 16.8877C25.4234 17.3429 25.0607 17.7071 24.6073 17.7071H15.3923C14.9389 17.7071 14.5762 17.3429 14.5762 16.8877C14.5762 16.4325 14.9389 16.0684 15.3923 16.0684H24.6073C25.0607 16.0684 25.4234 16.4325 25.4234 16.8877Z" fill="white"/>
<path d="M30.9666 18.5149C31.8617 18.5149 32.5874 17.7863 32.5874 16.8876C32.5874 15.9888 31.8617 15.2603 30.9666 15.2603C30.0714 15.2603 29.3457 15.9888 29.3457 16.8876C29.3457 17.7863 30.0714 18.5149 30.9666 18.5149Z" fill="white"/>
<path d="M34.99 18.5149C35.8852 18.5149 36.6109 17.7863 36.6109 16.8876C36.6109 15.9888 35.8852 15.2603 34.99 15.2603C34.0948 15.2603 33.3691 15.9888 33.3691 16.8876C33.3691 17.7863 34.0948 18.5149 34.99 18.5149Z" fill="white"/>
<path d="M39.5012 12.9047C39.2065 12.5405 38.6284 12.0967 37.563 12.0967H36.7015C36.7242 12.0398 36.7242 11.9715 36.7242 11.9033V3.90327C36.7242 2.86771 36.3275 1.88905 35.5794 1.13798C34.8426 0.409673 33.8679 0 32.8364 0H7.22009C6.1773 0 5.20252 0.409673 4.46577 1.14936C3.72901 1.87767 3.3323 2.85633 3.3323 3.90327V11.9033C3.3323 11.9715 3.34364 12.0398 3.35497 12.0967H2.26684C1.32607 12.0967 0.793339 12.5178 0.509973 12.8592C0.0225825 13.4623 -0.113433 14.3385 0.101925 15.3513L3.559 37.4737C3.70635 38.4068 5.05517 40 6.1773 40H33.8339C34.956 40 36.3048 38.4068 36.4522 37.4737L39.8979 15.4196C40.1133 14.3499 39.9886 13.5078 39.5012 12.9047ZM4.96449 11.9033V3.90327C4.96449 3.30014 5.19119 2.73115 5.6219 2.29872C6.05262 1.87767 6.61935 1.63869 7.22009 1.63869H32.8364C33.4371 1.63869 34.0039 1.87767 34.4346 2.29872C34.8653 2.73115 35.092 3.30014 35.092 3.90327V11.9033C35.092 11.9715 35.1033 12.0398 35.126 12.0967H33.6412C33.6638 11.9829 33.6752 11.8464 33.6412 11.7212C32.7911 7.84068 29.2887 5.02987 25.3215 5.02987C23.4853 5.02987 21.7284 5.59886 20.2549 6.69132C20.1756 6.7596 20.1076 6.82788 20.0623 6.91892C18.5774 5.72404 16.7185 5.02987 14.735 5.02987C10.7678 5.02987 7.26543 7.84068 6.41533 11.7212C6.38132 11.8464 6.39266 11.9829 6.41533 12.0967H4.94182C4.95316 12.0398 4.96449 11.9715 4.96449 11.9033ZM30.6035 11.6188C29.7874 9.41109 27.6678 7.92034 25.3215 7.92034C24.1087 7.92034 22.9526 8.30725 21.9665 9.03556C21.9665 9.03556 21.9665 9.03556 21.9551 9.04694C21.7284 8.68279 21.4791 8.34139 21.2071 8.03414C21.2184 8.02276 21.2184 8.02276 21.2297 8.01138C22.4199 7.13513 23.8367 6.66856 25.3215 6.66856C28.5292 6.66856 31.3629 8.94452 32.0543 12.074C32.0543 12.0853 32.0543 12.0967 32.0543 12.0967H30.6375C30.6715 11.9488 30.6715 11.7781 30.6035 11.6188ZM22.6806 10.4808C22.7712 10.4467 22.8619 10.4125 22.9413 10.3442C23.6327 9.83215 24.4601 9.55903 25.3215 9.55903C26.9537 9.55903 28.4386 10.5832 29.0506 12.0967H23.0546C23.0886 11.9829 23.0886 11.8464 23.0546 11.7212C22.9639 11.2888 22.8392 10.8791 22.6806 10.4808ZM20.0282 11.6188C19.2008 9.41109 17.0812 7.92034 14.735 7.92034C12.3887 7.92034 10.2691 9.41109 9.45302 11.6188C9.38501 11.7781 9.38501 11.9488 9.41901 12.0967H8.00218C8.00218 12.0967 8.00218 12.0853 8.00218 12.074C8.70493 8.94452 11.5273 6.66856 14.735 6.66856C17.9427 6.66856 20.7763 8.94452 21.4678 12.074C21.4678 12.0853 21.4678 12.0967 21.4678 12.0967H20.0509C20.0849 11.9488 20.0849 11.7781 20.0282 11.6188ZM18.4641 12.0967H11.0059C11.6179 10.5832 13.1028 9.55903 14.735 9.55903C16.3672 9.55903 17.8633 10.5832 18.4641 12.0967ZM38.2997 15.101C38.2884 15.1238 38.2884 15.1351 38.2884 15.1465L34.8426 37.2233C34.7633 37.542 34.0719 38.2816 33.8339 38.3613H6.22264C5.92794 38.2816 5.23652 37.542 5.16852 37.2233L1.70011 15.0555C1.57543 14.4296 1.65477 14.0427 1.77945 13.8947C1.8588 13.7923 2.02882 13.7354 2.26684 13.7354H37.563C37.7896 13.7354 38.0957 13.7696 38.2317 13.9403C38.3904 14.1223 38.4131 14.5661 38.2997 15.101Z" fill="white"/>
<path d="M25.4234 16.8877C25.4234 17.3429 25.0607 17.7071 24.6073 17.7071H15.3923C14.9389 17.7071 14.5762 17.3429 14.5762 16.8877C14.5762 16.4325 14.9389 16.0684 15.3923 16.0684H24.6073C25.0607 16.0684 25.4234 16.4325 25.4234 16.8877Z" fill="white"/>
<path d="M30.9666 18.5149C31.8617 18.5149 32.5874 17.7863 32.5874 16.8876C32.5874 15.9888 31.8617 15.2603 30.9666 15.2603C30.0714 15.2603 29.3457 15.9888 29.3457 16.8876C29.3457 17.7863 30.0714 18.5149 30.9666 18.5149Z" fill="white"/>
<path d="M34.99 18.5149C35.8852 18.5149 36.6109 17.7863 36.6109 16.8876C36.6109 15.9888 35.8852 15.2603 34.99 15.2603C34.0948 15.2603 33.3691 15.9888 33.3691 16.8876C33.3691 17.7863 34.0948 18.5149 34.99 18.5149Z" fill="white"/>
<path d="M34.99 18.5149C35.8852 18.5149 36.6109 17.7863 36.6109 16.8876C36.6109 15.9888 35.8852 15.2603 34.99 15.2603C34.0948 15.2603 33.3691 15.9888 33.3691 16.8876C33.3691 17.7863 34.0948 18.5149 34.99 18.5149Z" fill="white"/>
<path d="M34.9902 16.0796V16.8989C35.0016 16.8989 35.0016 16.8989 35.0016 16.8876L34.9902 16.0796Z" fill="white"/>
<path d="M30.9666 18.5149C31.8617 18.5149 32.5874 17.7863 32.5874 16.8876C32.5874 15.9888 31.8617 15.2603 30.9666 15.2603C30.0714 15.2603 29.3457 15.9888 29.3457 16.8876C29.3457 17.7863 30.0714 18.5149 30.9666 18.5149Z" fill="white"/>
<path d="M30.9668 16.0796V16.8989C30.9782 16.8989 30.9782 16.8989 30.9782 16.8876L30.9668 16.0796Z" fill="white"/>
<path d="M25.4234 16.8877C25.4234 17.3429 25.0607 17.7071 24.6073 17.7071H15.3923C14.9389 17.7071 14.5762 17.3429 14.5762 16.8877C14.5762 16.4325 14.9389 16.0684 15.3923 16.0684H24.6073C25.0607 16.0684 25.4234 16.4325 25.4234 16.8877Z" fill="white"/>
</svg>
