<svg width="24" height="40" viewBox="0 0 24 40" fill="none" xmlns="http://www.w3.org/2000/svg">
<path d="M4.72843 27.2868V34.2234C4.72843 34.6828 4.36821 35.0617 3.91793 35.0617C3.46765 35.0617 3.10742 34.6828 3.10742 34.2234V27.2868C3.10742 26.8389 3.46765 26.46 3.91793 26.46C4.36821 26.46 4.72843 26.8389 4.72843 27.2868Z" fill="white"/>
<path d="M24 2.46914C24 1.42406 22.6041 0 21.591 0H2.42026C1.40713 0 0 1.42406 0 2.46914V23.497C0 23.5314 0.011257 23.5659 0.011257 23.5889C0.011257 23.6233 0 23.6578 0 23.6922V37.5309C0 38.5759 1.40713 40 2.42026 40H21.591C22.6041 40 24 38.5759 24 37.5309L23.9775 37.4734C23.9887 37.4045 24 37.3241 24 37.2552V2.46914ZM1.62101 2.51507C1.6773 2.2739 2.20638 1.73414 2.45403 1.65375H21.5347C21.7824 1.71117 22.3227 2.2739 22.379 2.46914V22.6701H1.62101V2.51507ZM22.3902 37.4849C22.3227 37.7376 21.7824 38.2888 21.591 38.3463L2.47655 38.3577C2.24015 38.2888 1.68856 37.7261 1.62101 37.5309V24.3239H22.379V37.2552C22.379 37.3241 22.3902 37.3816 22.4015 37.4505L22.3902 37.4849ZM20.0938 6.10968C19.8687 5.71921 19.3734 5.5814 18.9906 5.81108L16.6492 7.1892V4.43296C16.6492 3.97359 16.2777 3.60609 15.8274 3.60609C15.3884 3.60609 15.0169 3.97359 15.0169 4.43296V7.1892L12.6754 5.81108C12.2927 5.5814 11.7974 5.71921 11.5722 6.10968C11.3471 6.51163 11.4822 7.01694 11.8649 7.24663L14.2064 8.62475L11.8649 10.0029C11.4822 10.2326 11.3471 10.7379 11.5722 11.1283C11.7974 11.5188 12.2927 11.6566 12.6754 11.4269L15.0169 10.0488V12.8165C15.0169 13.2644 15.3884 13.6434 15.8274 13.6434C16.2777 13.6434 16.6492 13.2644 16.6492 12.8165V10.0488L18.9906 11.4269C19.3734 11.6566 19.8687 11.5303 20.0938 11.1283C20.319 10.7379 20.1839 10.2326 19.7899 10.0029L17.4484 8.62475L19.7899 7.24663C20.1839 7.01694 20.319 6.51163 20.0938 6.10968ZM3.91745 11.9322C3.46717 11.9322 3.10694 12.3112 3.10694 12.7591V19.6957C3.10694 20.155 3.46717 20.5225 3.91745 20.5225C4.36773 20.5225 4.72795 20.155 4.72795 19.6957V12.7591C4.72795 12.3112 4.36773 11.9322 3.91745 11.9322Z" fill="white"/>
<path d="M4.72843 27.2868V34.2234C4.72843 34.6828 4.36821 35.0617 3.91793 35.0617C3.46765 35.0617 3.10742 34.6828 3.10742 34.2234V27.2868C3.10742 26.8389 3.46765 26.46 3.91793 26.46C4.36821 26.46 4.72843 26.8389 4.72843 27.2868Z" fill="white"/>
<path d="M4.72843 12.759V19.6955C4.72843 20.1549 4.36821 20.5224 3.91793 20.5224C3.46765 20.5224 3.10742 20.1549 3.10742 19.6955V12.759C3.10742 12.3111 3.46765 11.9321 3.91793 11.9321C4.36821 11.9321 4.72843 12.3111 4.72843 12.759Z" fill="white"/>
<path d="M20.0937 11.1282C19.8686 11.5302 19.3733 11.6565 18.9905 11.4268L16.6491 10.0487V12.8164C16.6491 13.2643 16.2776 13.6433 15.8273 13.6433C15.3883 13.6433 15.0168 13.2643 15.0168 12.8164V10.0487L12.6753 11.4268C12.2926 11.6565 11.7973 11.5187 11.5721 11.1282C11.347 10.7377 11.4821 10.2324 11.8648 10.0027L14.2063 8.62462L11.8648 7.2465C11.4821 7.01681 11.347 6.5115 11.5721 6.10955C11.7973 5.71908 12.2926 5.58127 12.6753 5.81095L15.0168 7.18907V4.43283C15.0168 3.97346 15.3883 3.60596 15.8273 3.60596C16.2776 3.60596 16.6491 3.97346 16.6491 4.43283V7.18907L18.9905 5.81095C19.3733 5.58127 19.8686 5.71908 20.0937 6.10955C20.3189 6.5115 20.1838 7.01681 19.7898 7.2465L17.4483 8.62462L19.7898 10.0027C20.1838 10.2324 20.3189 10.7377 20.0937 11.1282Z" fill="white"/>
<path d="M4.72843 27.2868V34.2234C4.72843 34.6828 4.36821 35.0617 3.91793 35.0617C3.46765 35.0617 3.10742 34.6828 3.10742 34.2234V27.2868C3.10742 26.8389 3.46765 26.46 3.91793 26.46C4.36821 26.46 4.72843 26.8389 4.72843 27.2868Z" fill="white"/>
<path d="M4.72843 12.759V19.6955C4.72843 20.1549 4.36821 20.5224 3.91793 20.5224C3.46765 20.5224 3.10742 20.1549 3.10742 19.6955V12.759C3.10742 12.3111 3.46765 11.9321 3.91793 11.9321C4.36821 11.9321 4.72843 12.3111 4.72843 12.759Z" fill="white"/>
<path d="M20.0937 11.1282C19.8686 11.5302 19.3733 11.6565 18.9905 11.4268L16.6491 10.0487V12.8164C16.6491 13.2643 16.2776 13.6433 15.8273 13.6433C15.3883 13.6433 15.0168 13.2643 15.0168 12.8164V10.0487L12.6753 11.4268C12.2926 11.6565 11.7973 11.5187 11.5721 11.1282C11.347 10.7377 11.4821 10.2324 11.8648 10.0027L14.2063 8.62462L11.8648 7.2465C11.4821 7.01681 11.347 6.5115 11.5721 6.10955C11.7973 5.71908 12.2926 5.58127 12.6753 5.81095L15.0168 7.18907V4.43283C15.0168 3.97346 15.3883 3.60596 15.8273 3.60596C16.2776 3.60596 16.6491 3.97346 16.6491 4.43283V7.18907L18.9905 5.81095C19.3733 5.58127 19.8686 5.71908 20.0937 6.10955C20.3189 6.5115 20.1838 7.01681 19.7898 7.2465L17.4483 8.62462L19.7898 10.0027C20.1838 10.2324 20.3189 10.7377 20.0937 11.1282Z" fill="white"/>
</svg>
