<svg width="40" height="28" viewBox="0 0 40 28" fill="none" xmlns="http://www.w3.org/2000/svg">
<path d="M14.1795 14.9635C15.0102 13.6939 15.2378 11.7214 13.8836 10.1571C13.5877 9.80565 13.0529 9.77164 12.7001 10.0664C12.3587 10.3725 12.3132 10.8939 12.6205 11.2453C13.4512 12.2089 13.2236 13.3652 12.7798 14.0453C11.8922 15.3943 11.8125 17.6048 13.1895 18.9992C13.3488 19.1579 13.565 19.2486 13.7812 19.2486C13.9974 19.2486 14.2136 19.1579 14.373 18.9992C14.703 18.6818 14.703 18.149 14.3843 17.8202C13.565 17.004 13.7357 15.6324 14.1795 14.9635ZM22.2364 14.9635C23.0671 13.6939 23.2947 11.7214 21.9519 10.1571C21.6446 9.80565 21.1212 9.77164 20.7684 10.0664C20.4156 10.3725 20.3701 10.8939 20.6774 11.2453C21.5081 12.2089 21.2805 13.3538 20.8367 14.0453C19.9604 15.3943 19.8694 17.6048 21.2464 18.9992C21.417 19.1579 21.6333 19.2486 21.8495 19.2486C22.0543 19.2486 22.2705 19.1579 22.4412 18.9992C22.7599 18.6818 22.7712 18.149 22.4412 17.8202C21.6219 17.004 21.804 15.6324 22.2364 14.9635ZM17.969 14.4534C19.0956 12.9797 19.4142 10.7012 17.5821 8.89877C17.252 8.58136 16.7286 8.58136 16.3986 8.9101C16.0685 9.23885 16.0799 9.76031 16.4099 10.0891C17.5821 11.2453 17.2976 12.5716 16.6375 13.4332C15.4427 14.9862 15.3175 17.5482 17.1838 19.1352C17.3431 19.2712 17.5365 19.3393 17.73 19.3393C17.969 19.3393 18.1966 19.2372 18.3673 19.0445C18.6631 18.7044 18.629 18.1716 18.2762 17.8769C17.07 16.834 17.3772 15.2129 17.969 14.4534Z" fill="white"/>
<path d="M14.1795 14.9636C13.7357 15.6324 13.565 17.0041 14.3843 17.8203C14.703 18.149 14.703 18.6818 14.373 18.9992C14.2136 19.1579 13.9974 19.2486 13.7812 19.2486C13.565 19.2486 13.3488 19.1579 13.1895 18.9992C11.8125 17.6049 11.8922 15.3943 12.7798 14.0454C13.2236 13.3652 13.4512 12.2089 12.6205 11.2454C12.3132 10.8939 12.3587 10.3725 12.7001 10.0664C13.0529 9.77167 13.5877 9.80568 13.8836 10.1571C15.2378 11.7215 15.0102 13.6939 14.1795 14.9636Z" fill="white"/>
<path d="M17.9686 14.4534C17.3768 15.2129 17.0696 16.834 18.2758 17.8769C18.6286 18.1716 18.6627 18.7044 18.3669 19.0445C18.1962 19.2372 17.9686 19.3393 17.7296 19.3393C17.5361 19.3393 17.3427 19.2712 17.1834 19.1352C15.3171 17.5482 15.4422 14.9862 16.6371 13.4332C17.2972 12.5716 17.5816 11.2453 16.4095 10.0891C16.0795 9.76031 16.0681 9.23885 16.3981 8.9101C16.7282 8.58136 17.2516 8.58136 17.5816 8.89877C19.4138 10.7012 19.0952 12.9797 17.9686 14.4534Z" fill="white"/>
<path d="M22.2365 14.9636C21.804 15.6324 21.622 17.0041 22.4413 17.8203C22.7713 18.149 22.7599 18.6818 22.4413 18.9992C22.2706 19.1579 22.0544 19.2486 21.8496 19.2486C21.6333 19.2486 21.4171 19.1579 21.2464 18.9992C19.8695 17.6049 19.9605 15.3943 20.8368 14.0454C21.2806 13.3539 21.5082 12.2089 20.6774 11.2454C20.3702 10.8939 20.4157 10.3725 20.7685 10.0664C21.1212 9.77167 21.6447 9.80568 21.952 10.1571C23.2948 11.7215 23.0672 13.6939 22.2365 14.9636Z" fill="white"/>
<path d="M27.5387 4.50049H7.49891C5.9285 4.50049 4.64258 5.77012 4.64258 7.3345V20.6657C4.64258 22.2074 5.95126 23.4997 7.49891 23.4997H27.5387C29.1091 23.4997 30.3951 22.23 30.3951 20.6657V7.3345C30.3951 5.77012 29.1091 4.50049 27.5387 4.50049ZM28.7564 20.6657C28.7564 21.3345 28.2101 21.8673 27.5387 21.8673H7.49891C6.83888 21.8673 6.28127 21.3232 6.28127 20.6657V7.3345C6.28127 6.68834 6.83888 6.13288 7.49891 6.13288H27.5387C28.2101 6.13288 28.7564 6.67701 28.7564 7.3345V20.6657Z" fill="white"/>
<path d="M32.8076 14.748C32.8076 13.8525 33.5359 13.127 34.4349 13.127C35.3339 13.127 36.0622 13.8525 36.0622 14.748C36.0622 15.6322 35.3339 16.3577 34.4349 16.3577C33.5359 16.3577 32.8076 15.6322 32.8076 14.748Z" fill="white"/>
<path d="M32.8076 10.7124C32.8076 9.81681 33.5359 9.09131 34.4349 9.09131C35.3339 9.09131 36.0622 9.81681 36.0622 10.7124C36.0622 11.6079 35.3339 12.3334 34.4349 12.3334C33.5359 12.3334 32.8076 11.6079 32.8076 10.7124Z" fill="white"/>
<path d="M32.8076 6.67672C32.8076 5.78117 33.5359 5.05566 34.4349 5.05566C35.3339 5.05566 36.0622 5.78117 36.0622 6.67672C36.0622 7.57226 35.3339 8.29777 34.4349 8.29777C33.5359 8.29777 32.8076 7.57226 32.8076 6.67672Z" fill="white"/>
<path d="M34.4357 17.4121C32.8426 17.4121 31.5566 18.7044 31.5566 20.2801C31.5566 21.8672 32.8426 23.1481 34.4357 23.1481C36.0175 23.1481 37.3034 21.8672 37.3034 20.2801C37.3034 18.7044 36.0175 17.4121 34.4357 17.4121ZM34.4357 21.5158C33.7529 21.5158 33.1953 20.9603 33.1953 20.2801C33.1953 19.6 33.7529 19.0445 34.4357 19.0445C35.1185 19.0445 35.6647 19.6 35.6647 20.2801C35.6647 20.9603 35.1185 21.5158 34.4357 21.5158Z" fill="white"/>
<path d="M37.1664 0H2.84495C1.65007 0 0 1.64372 0 2.83401V25.166C0 26.3563 1.65007 28 2.84495 28H37.1664C38.3613 28 40 26.3563 40 25.166V2.83401C40 1.64372 38.3613 0 37.1664 0ZM38.3613 25.1547C38.3158 25.5061 37.4964 26.3109 37.1664 26.3676H2.85633C2.51494 26.3109 1.69559 25.4947 1.63869 25.166V2.84534C1.69559 2.50526 2.51494 1.68907 2.84495 1.63239H37.1437C37.4964 1.68907 38.3158 2.49393 38.3613 2.84534V25.1547Z" fill="white"/>
<path d="M14.1795 14.9636C13.7357 15.6324 13.565 17.0041 14.3843 17.8203C14.703 18.149 14.703 18.6818 14.373 18.9992C14.2136 19.1579 13.9974 19.2486 13.7812 19.2486C13.565 19.2486 13.3488 19.1579 13.1895 18.9992C11.8125 17.6049 11.8922 15.3943 12.7798 14.0454C13.2236 13.3652 13.4512 12.2089 12.6205 11.2454C12.3132 10.8939 12.3587 10.3725 12.7001 10.0664C13.0529 9.77167 13.5877 9.80568 13.8836 10.1571C15.2378 11.7215 15.0102 13.6939 14.1795 14.9636Z" fill="white"/>
<path d="M17.9686 14.4534C17.3768 15.2129 17.0696 16.834 18.2758 17.8769C18.6286 18.1716 18.6627 18.7044 18.3669 19.0445C18.1962 19.2372 17.9686 19.3393 17.7296 19.3393C17.5361 19.3393 17.3427 19.2712 17.1834 19.1352C15.3171 17.5482 15.4422 14.9862 16.6371 13.4332C17.2972 12.5716 17.5816 11.2453 16.4095 10.0891C16.0795 9.76031 16.0681 9.23885 16.3981 8.9101C16.7282 8.58136 17.2516 8.58136 17.5816 8.89877C19.4138 10.7012 19.0952 12.9797 17.9686 14.4534Z" fill="white"/>
<path d="M22.2365 14.9636C21.804 15.6324 21.622 17.0041 22.4413 17.8203C22.7713 18.149 22.7599 18.6818 22.4413 18.9992C22.2706 19.1579 22.0544 19.2486 21.8496 19.2486C21.6333 19.2486 21.4171 19.1579 21.2464 18.9992C19.8695 17.6049 19.9605 15.3943 20.8368 14.0454C21.2806 13.3539 21.5082 12.2089 20.6774 11.2454C20.3702 10.8939 20.4157 10.3725 20.7685 10.0664C21.1212 9.77167 21.6447 9.80568 21.952 10.1571C23.2948 11.7215 23.0672 13.6939 22.2365 14.9636Z" fill="white"/>
<path d="M27.5387 4.50049H7.49891C5.9285 4.50049 4.64258 5.77012 4.64258 7.3345V20.6657C4.64258 22.2074 5.95126 23.4997 7.49891 23.4997H27.5387C29.1091 23.4997 30.3951 22.23 30.3951 20.6657V7.3345C30.3951 5.77012 29.1091 4.50049 27.5387 4.50049ZM28.7564 20.6657C28.7564 21.3345 28.2101 21.8673 27.5387 21.8673H7.49891C6.83888 21.8673 6.28127 21.3232 6.28127 20.6657V7.3345C6.28127 6.68834 6.83888 6.13288 7.49891 6.13288H27.5387C28.2101 6.13288 28.7564 6.67701 28.7564 7.3345V20.6657Z" fill="white"/>
<path d="M32.8076 14.748C32.8076 13.8525 33.5359 13.127 34.4349 13.127C35.3339 13.127 36.0622 13.8525 36.0622 14.748C36.0622 15.6322 35.3339 16.3577 34.4349 16.3577C33.5359 16.3577 32.8076 15.6322 32.8076 14.748Z" fill="white"/>
<path d="M32.8076 10.7124C32.8076 9.81681 33.5359 9.09131 34.4349 9.09131C35.3339 9.09131 36.0622 9.81681 36.0622 10.7124C36.0622 11.6079 35.3339 12.3334 34.4349 12.3334C33.5359 12.3334 32.8076 11.6079 32.8076 10.7124Z" fill="white"/>
<path d="M32.8076 6.67672C32.8076 5.78117 33.5359 5.05566 34.4349 5.05566C35.3339 5.05566 36.0622 5.78117 36.0622 6.67672C36.0622 7.57226 35.3339 8.29777 34.4349 8.29777C33.5359 8.29777 32.8076 7.57226 32.8076 6.67672Z" fill="white"/>
<path d="M34.4357 17.4121C32.8426 17.4121 31.5566 18.7044 31.5566 20.2801C31.5566 21.8672 32.8426 23.1481 34.4357 23.1481C36.0175 23.1481 37.3034 21.8672 37.3034 20.2801C37.3034 18.7044 36.0175 17.4121 34.4357 17.4121ZM34.4357 21.5158C33.7529 21.5158 33.1953 20.9603 33.1953 20.2801C33.1953 19.6 33.7529 19.0445 34.4357 19.0445C35.1185 19.0445 35.6647 19.6 35.6647 20.2801C35.6647 20.9603 35.1185 21.5158 34.4357 21.5158Z" fill="white"/>
<path d="M14.1795 14.9636C13.7357 15.6324 13.565 17.0041 14.3843 17.8203C14.703 18.149 14.703 18.6818 14.373 18.9992C14.2136 19.1579 13.9974 19.2486 13.7812 19.2486C13.565 19.2486 13.3488 19.1579 13.1895 18.9992C11.8125 17.6049 11.8922 15.3943 12.7798 14.0454C13.2236 13.3652 13.4512 12.2089 12.6205 11.2454C12.3132 10.8939 12.3587 10.3725 12.7001 10.0664C13.0529 9.77167 13.5877 9.80568 13.8836 10.1571C15.2378 11.7215 15.0102 13.6939 14.1795 14.9636Z" fill="white"/>
<path d="M17.9686 14.4534C17.3768 15.2129 17.0696 16.834 18.2758 17.8769C18.6286 18.1716 18.6627 18.7044 18.3669 19.0445C18.1962 19.2372 17.9686 19.3393 17.7296 19.3393C17.5361 19.3393 17.3427 19.2712 17.1834 19.1352C15.3171 17.5482 15.4422 14.9862 16.6371 13.4332C17.2972 12.5716 17.5816 11.2453 16.4095 10.0891C16.0795 9.76031 16.0681 9.23885 16.3981 8.9101C16.7282 8.58136 17.2516 8.58136 17.5816 8.89877C19.4138 10.7012 19.0952 12.9797 17.9686 14.4534Z" fill="white"/>
<path d="M22.2365 14.9636C21.804 15.6324 21.622 17.0041 22.4413 17.8203C22.7713 18.149 22.7599 18.6818 22.4413 18.9992C22.2706 19.1579 22.0544 19.2486 21.8496 19.2486C21.6333 19.2486 21.4171 19.1579 21.2464 18.9992C19.8695 17.6049 19.9605 15.3943 20.8368 14.0454C21.2806 13.3539 21.5082 12.2089 20.6774 11.2454C20.3702 10.8939 20.4157 10.3725 20.7685 10.0664C21.1212 9.77167 21.6447 9.80568 21.952 10.1571C23.2948 11.7215 23.0672 13.6939 22.2365 14.9636Z" fill="white"/>
<path d="M27.5387 4.50049H7.49891C5.9285 4.50049 4.64258 5.77012 4.64258 7.3345V20.6657C4.64258 22.2074 5.95126 23.4997 7.49891 23.4997H27.5387C29.1091 23.4997 30.3951 22.23 30.3951 20.6657V7.3345C30.3951 5.77012 29.1091 4.50049 27.5387 4.50049ZM28.7564 20.6657C28.7564 21.3345 28.2101 21.8673 27.5387 21.8673H7.49891C6.83888 21.8673 6.28127 21.3232 6.28127 20.6657V7.3345C6.28127 6.68834 6.83888 6.13288 7.49891 6.13288H27.5387C28.2101 6.13288 28.7564 6.67701 28.7564 7.3345V20.6657Z" fill="white"/>
<path d="M14.1795 14.9636C13.7357 15.6324 13.565 17.0041 14.3843 17.8203C14.703 18.149 14.703 18.6818 14.373 18.9992C14.2136 19.1579 13.9974 19.2486 13.7812 19.2486C13.565 19.2486 13.3488 19.1579 13.1895 18.9992C11.8125 17.6049 11.8922 15.3943 12.7798 14.0454C13.2236 13.3652 13.4512 12.2089 12.6205 11.2454C12.3132 10.8939 12.3587 10.3725 12.7001 10.0664C13.0529 9.77167 13.5877 9.80568 13.8836 10.1571C15.2378 11.7215 15.0102 13.6939 14.1795 14.9636Z" fill="white"/>
<path d="M17.9686 14.4534C17.3768 15.2129 17.0696 16.834 18.2758 17.8769C18.6286 18.1716 18.6627 18.7044 18.3669 19.0445C18.1962 19.2372 17.9686 19.3393 17.7296 19.3393C17.5361 19.3393 17.3427 19.2712 17.1834 19.1352C15.3171 17.5482 15.4422 14.9862 16.6371 13.4332C17.2972 12.5716 17.5816 11.2453 16.4095 10.0891C16.0795 9.76031 16.0681 9.23885 16.3981 8.9101C16.7282 8.58136 17.2516 8.58136 17.5816 8.89877C19.4138 10.7012 19.0952 12.9797 17.9686 14.4534Z" fill="white"/>
<path d="M22.4413 17.8203C22.7713 18.149 22.7599 18.6818 22.4413 18.9992C22.2706 19.1579 22.0544 19.2486 21.8496 19.2486C21.6333 19.2486 21.4171 19.1579 21.2464 18.9992C19.8695 17.6049 19.9605 15.3943 20.8368 14.0454C21.2806 13.3539 21.5082 12.2089 20.6774 11.2454C20.3702 10.8939 20.4157 10.3725 20.7685 10.0664C21.1212 9.77167 21.6447 9.80568 21.952 10.1571C23.2948 11.7215 23.0672 13.6939 22.2365 14.9636C21.804 15.6324 21.622 17.0041 22.4413 17.8203Z" fill="white"/>
<path d="M34.4357 17.4121C32.8426 17.4121 31.5566 18.7044 31.5566 20.2801C31.5566 21.8672 32.8426 23.1481 34.4357 23.1481C36.0175 23.1481 37.3034 21.8672 37.3034 20.2801C37.3034 18.7044 36.0175 17.4121 34.4357 17.4121ZM34.4357 21.5158C33.7529 21.5158 33.1953 20.9603 33.1953 20.2801C33.1953 19.6 33.7529 19.0445 34.4357 19.0445C35.1185 19.0445 35.6647 19.6 35.6647 20.2801C35.6647 20.9603 35.1185 21.5158 34.4357 21.5158Z" fill="white"/>
<path d="M36.0622 14.748C36.0622 15.6322 35.3339 16.3577 34.4349 16.3577C33.5359 16.3577 32.8076 15.6322 32.8076 14.748C32.8076 13.8525 33.5359 13.127 34.4349 13.127C35.3339 13.127 36.0622 13.8525 36.0622 14.748Z" fill="white"/>
<path d="M34.4238 14.748C34.4238 14.7594 34.4238 14.7594 34.4352 14.7594L35.2432 14.748H34.4238Z" fill="white"/>
<path d="M36.0622 10.7124C36.0622 11.6079 35.3339 12.3334 34.4349 12.3334C33.5359 12.3334 32.8076 11.6079 32.8076 10.7124C32.8076 9.81681 33.5359 9.09131 34.4349 9.09131C35.3339 9.09131 36.0622 9.81681 36.0622 10.7124Z" fill="white"/>
<path d="M34.4238 10.7124C34.4238 10.7237 34.4238 10.7237 34.4352 10.7237L35.2432 10.7124H34.4238Z" fill="white"/>
<path d="M36.0622 6.67672C36.0622 7.57226 35.3339 8.29777 34.4349 8.29777C33.5359 8.29777 32.8076 7.57226 32.8076 6.67672C32.8076 5.78117 33.5359 5.05566 34.4349 5.05566C35.3339 5.05566 36.0622 5.78117 36.0622 6.67672Z" fill="white"/>
<path d="M34.4238 6.67676C34.4238 6.68809 34.4352 6.68809 34.4352 6.68809L35.2432 6.67676H34.4238Z" fill="white"/>
</svg>
