<svg width="30" height="40" viewBox="0 0 30 40" fill="none" xmlns="http://www.w3.org/2000/svg">
<g clip-path="url(#clip0)">
<path d="M11.4601 37.3875C10.1099 37.3875 9.01221 36.2898 9.01221 34.9397C9.01221 33.5895 10.1099 32.4918 11.4601 32.4918C12.8102 32.4918 13.9079 33.5895 13.9079 34.9397C13.9189 36.2898 12.8102 37.3875 11.4601 37.3875ZM11.4601 34.0615C10.9771 34.0615 10.5929 34.4567 10.5929 34.9287C10.5929 35.4117 10.9881 35.7959 11.4601 35.7959C11.9431 35.7959 12.3272 35.4007 12.3272 34.9287C12.3382 34.4567 11.9431 34.0615 11.4601 34.0615Z" fill="white"/>
<path d="M20.8344 24.5884C20.516 24.5884 20.2197 24.4018 20.0989 24.0835C19.9452 23.6773 20.1428 23.2163 20.549 23.0626C24.3909 21.5697 27.0363 19.3524 28.0023 16.8277C28.3536 15.9056 28.4633 14.9506 28.3206 14.0725C28.1889 13.2492 27.8267 12.4808 27.2888 11.8442C26.1472 10.516 24.2262 9.84636 22.0418 10.033C21.5918 10.0659 21.2295 9.74756 21.1856 9.30849C21.1527 8.86941 21.471 8.49619 21.9101 8.45228C24.6214 8.23275 27.0144 9.08895 28.4853 10.8123C29.2208 11.6685 29.7037 12.7113 29.8794 13.809C30.066 14.9616 29.9233 16.202 29.4732 17.3875C28.3426 20.3403 25.3788 22.876 21.1198 24.5335C21.021 24.5774 20.9222 24.5884 20.8344 24.5884Z" fill="white"/>
<path d="M16.6629 30.7794H5.85063C4.74196 30.7794 3.69915 30.3403 2.90881 29.561C2.1514 28.8036 1.69037 27.7717 1.60255 26.674L0.186523 7.95833C0.186523 7.94735 0.186523 7.91442 0.186523 7.88149C0.186523 7.84856 0.186523 7.82661 0.186523 7.79368C0.186523 7.2119 0.417039 6.66305 0.84514 6.24593C1.20738 5.88369 1.70134 5.66415 2.22824 5.62024C2.23921 5.62024 2.27214 5.62024 2.30507 5.62024C2.33801 5.62024 2.35996 5.62024 2.39289 5.62024H20.5378C20.5597 5.62024 20.6915 5.63122 20.7134 5.63122C21.2293 5.67512 21.7233 5.89466 22.0965 6.26788C22.5136 6.67403 22.7442 7.22287 22.7442 7.80465C22.7442 7.82661 22.7332 7.95833 22.7332 7.98028L21.3062 26.2569C21.2184 27.4534 20.7244 28.5621 19.9121 29.3853C19.9011 29.4073 19.8792 29.4183 19.8682 29.4402C19.012 30.2964 17.8704 30.7794 16.6629 30.7794ZM1.75623 7.76074C1.75623 7.7827 1.75623 7.80465 1.75623 7.83758L3.18323 26.5533C3.23812 27.2887 3.54547 27.9583 4.02846 28.4523C4.52242 28.9463 5.15908 29.2097 5.85063 29.2097H16.6629C17.4423 29.2097 18.1558 28.9243 18.7156 28.3755C18.7266 28.3645 18.7376 28.3425 18.7595 28.3315C19.3303 27.7607 19.6706 26.9814 19.7365 26.1471L21.1635 7.85954C21.1635 7.60707 21.0537 7.46437 20.9878 7.3985C20.8781 7.28874 20.7354 7.22287 20.5817 7.2119H2.45875C2.4368 7.2119 2.40387 7.2119 2.38191 7.2119C2.19531 7.2119 2.0526 7.27776 1.94284 7.38753C1.866 7.46437 1.77818 7.58511 1.75623 7.76074Z" fill="white"/>
<path d="M22.1405 4.69811H0.79034C0.351262 4.69811 0 4.34685 0 3.90777C0 3.46869 0.351262 3.11743 0.79034 3.11743H22.1405C22.5796 3.11743 22.9308 3.46869 22.9308 3.90777C22.9308 4.34685 22.5686 4.69811 22.1405 4.69811Z" fill="white"/>
<path d="M9.12186 4.08343C8.73767 4.08343 8.39739 3.79802 8.3425 3.41383C8.32055 3.24918 8.30957 3.08452 8.30957 2.40395C8.30957 1.31723 9.63778 0 11.2733 0C12.9199 0 14.2371 1.31723 14.2371 2.40395C14.2371 3.13941 14.2261 3.29308 14.2042 3.41383C14.1493 3.84193 13.7322 4.14929 13.3151 4.08343C12.887 4.01756 12.5796 3.62239 12.6455 3.19429C12.6564 3.0955 12.6564 2.98573 12.6564 2.40395C12.6345 2.21734 12.0747 1.59166 11.2733 1.59166C10.4611 1.59166 9.91221 2.21734 9.89025 2.41493C9.89025 2.97475 9.89025 3.0955 9.90123 3.18332C9.96709 3.61142 9.67071 4.01756 9.23163 4.08343C9.1987 4.08343 9.16577 4.08343 9.12186 4.08343Z" fill="white"/>
<path d="M15.4993 17.9473C13.4466 17.9473 11.8879 17.0692 10.4829 16.2788C9.49494 15.719 8.55092 15.1921 7.50811 14.9945C5.67496 14.6542 3.13928 15.4116 2.72216 16.8716C2.60141 17.2887 2.16233 17.5302 1.74521 17.4204C1.32809 17.2997 1.08659 16.8606 1.19636 16.4435C1.86596 14.0725 5.21393 12.9638 7.79351 13.4468C9.08879 13.6883 10.1865 14.303 11.2512 14.9067C12.8649 15.8178 14.4016 16.685 16.63 16.2569C20.0877 15.6092 20.5597 14.7091 20.7683 12.9638C20.8231 12.5357 21.2293 12.2283 21.6464 12.2722C22.0855 12.3271 22.3929 12.7223 22.338 13.1504C22.0087 15.9276 20.6365 17.1021 16.9154 17.8046C16.4324 17.9034 15.9604 17.9473 15.4993 17.9473Z" fill="white"/>
<path d="M20.966 40H1.96495C0.933116 40 0.0878906 39.1548 0.0878906 38.123C0.0878906 35.0933 1.80029 29.4402 5.07143 29.4402H17.8596C21.1307 29.4402 22.8431 35.0933 22.8431 38.123C22.8431 39.1548 21.9979 40 20.966 40ZM5.07143 31.0209C3.2273 31.0209 1.66857 35.3897 1.66857 38.123C1.66857 38.2766 1.81127 38.4193 1.96495 38.4193H20.966C21.1197 38.4193 21.2624 38.2766 21.2624 38.123C21.2624 35.3787 19.7037 31.0209 17.8596 31.0209H5.07143Z" fill="white"/>
</g>
<defs>
<clipPath id="clip0">
<rect width="29.9561" height="40" fill="white"/>
</clipPath>
</defs>
</svg>
