<svg width="32" height="32" viewBox="0 0 32 32" fill="none" xmlns="http://www.w3.org/2000/svg">
<rect width="32" height="32" fill="white" fill-opacity="0.01"/>
<path d="M10.6875 25V10.9844H6.32812V25H10.6875ZM8.48438 9.10938C9.89062 9.10938 11.0156 7.9375 11.0156 6.53125C11.0156 5.17188 9.89062 4.04688 8.48438 4.04688C7.125 4.04688 6 5.17188 6 6.53125C6 7.9375 7.125 9.10938 8.48438 9.10938ZM26.9531 25H27V17.3125C27 13.5625 26.1562 10.6562 21.75 10.6562C19.6406 10.6562 18.2344 11.8281 17.625 12.9062H17.5781V10.9844H13.4062V25H17.7656V18.0625C17.7656 16.2344 18.0938 14.5 20.3438 14.5C22.5938 14.5 22.6406 16.5625 22.6406 18.2031V25H26.9531Z" fill="#0E76A8"/>
</svg>
