<svg width="63" height="40" viewBox="0 0 63 40" fill="none" xmlns="http://www.w3.org/2000/svg">
<g clip-path="url(#clip0)">
<path d="M17.9599 23.667H11.8427L10.7745 26.5346C10.5103 27.2444 10.3806 27.7703 10.3806 28.1216C10.3806 28.4023 10.4938 28.6381 10.7226 28.8503C10.9513 29.0602 11.4513 29.2017 12.2035 29.263V29.763H7.23242V29.263C7.89036 29.131 8.31956 28.9564 8.51293 28.7371C8.90675 28.3079 9.34538 27.4401 9.82881 26.1242L15.3871 11.1614H15.7904L21.2874 26.2917C21.7354 27.5109 22.1293 28.2985 22.4971 28.6593C22.8556 29.0178 23.365 29.23 24.004 29.2724V29.7724H17.7689V29.2724C18.4009 29.2371 18.8207 29.1144 19.0494 28.914C19.2687 28.7136 19.3819 28.4589 19.3819 28.1594C19.3819 27.7656 19.2239 27.143 18.9174 26.2917L17.9599 23.667ZM17.6369 22.6695L14.9532 15.3236L12.2012 22.6695H17.6369Z" fill="white"/>
<path d="M23.5801 29.7512V29.2513H24.1767C24.8441 29.2513 25.3157 29.006 25.5963 28.5155C25.7638 28.2184 25.851 27.5605 25.851 26.5346V14.3592C25.851 13.2272 25.7378 12.5103 25.5256 12.2297C25.219 11.8359 24.771 11.6425 24.1767 11.6425H23.5801V11.1426H30.0133C32.3715 11.1426 34.1685 11.4491 35.4042 12.0717C36.6304 12.6848 37.6209 13.7201 38.3755 15.1563C39.1207 16.5948 39.498 18.6889 39.498 20.5731C39.498 23.1058 38.8306 25.2187 37.4912 26.919C35.9913 28.8127 33.7039 29.7583 30.6453 29.7583H23.5801V29.7512ZM28.0866 28.4377C29.0771 28.6924 29.9001 28.815 30.5675 28.815C32.3738 28.815 33.8642 28.0863 35.0551 26.6313C36.2484 25.1763 36.8356 23.1954 36.8356 20.7051C36.8356 18.1889 36.239 15.7788 35.0551 14.3332C33.8619 12.8877 32.3385 12.159 30.4802 12.159C29.7798 12.159 28.9898 12.291 28.0961 12.5457V28.4377H28.0866Z" fill="white"/>
<path d="M49.0983 23.667H42.9787L41.9104 26.5346C41.6463 27.2444 41.5166 27.7703 41.5166 28.1216C41.5166 28.4023 41.6298 28.6381 41.8586 28.8503C42.0873 29.0602 42.5872 29.2017 43.3395 29.263V29.763H38.3613V29.263C39.0193 29.131 39.4485 28.9564 39.6418 28.7371C40.0357 28.3079 40.4743 27.4401 40.9577 26.1242L46.516 11.1614H46.9287L52.4257 26.2917C52.8643 27.5109 53.2676 28.2985 53.626 28.6593C53.9845 29.0178 54.4939 29.23 55.1329 29.2724V29.7724H48.919V29.2724C49.5511 29.2371 49.9708 29.1144 50.1901 28.914C50.4094 28.7136 50.5226 28.4589 50.5226 28.1594C50.5226 27.7656 50.3646 27.143 50.0581 26.2917L49.0983 23.667ZM48.7658 22.6695L46.0845 15.3236L43.3324 22.6695H48.7658Z" fill="white"/>
<path d="M0.229195 28.2183L0.167882 28.2089L0.229195 27.3765L0.290509 27.3859L0.281076 27.4732C0.271643 27.5698 0.307016 27.6406 0.387195 27.6925C0.422569 27.7184 0.50039 27.7373 0.63245 27.7443L1.58753 27.8151C1.82335 27.8316 2.00729 27.867 2.12991 27.9212C2.26197 27.9731 2.36574 28.0792 2.44591 28.2183C2.53317 28.3575 2.55911 28.5509 2.55203 28.789C2.53553 29.0437 2.47421 29.2371 2.37753 29.3668C2.28084 29.4989 2.14878 29.5767 2.00021 29.6309C1.89409 29.6569 1.70308 29.6663 1.41302 29.6474L0.493315 29.5861C0.344748 29.5767 0.248061 29.5861 0.203255 29.6309C0.151374 29.6663 0.125434 29.7276 0.125434 29.8243L0.116001 29.9115L0.0546875 29.9021L0.125434 28.8857H0.186747L0.177315 28.973C0.167882 29.0697 0.193822 29.1404 0.255136 29.1923C0.299942 29.2277 0.377763 29.2442 0.519255 29.2536L1.55451 29.3243C1.64176 29.3338 1.75496 29.3338 1.87051 29.3243C1.99314 29.3149 2.08039 29.289 2.15114 29.2536C2.22188 29.2182 2.2832 29.1569 2.32565 29.0791C2.37753 29.0013 2.40347 28.8952 2.4129 28.782C2.42233 28.624 2.39639 28.4848 2.34215 28.3622C2.28084 28.2396 2.20302 28.1429 2.0969 28.091C1.99078 28.0391 1.81627 28.0037 1.57102 27.9849L0.615942 27.9141C0.467375 27.9047 0.370688 27.9141 0.335315 27.9401C0.283434 27.9849 0.248061 28.0462 0.248061 28.1335L0.229195 28.2183Z" fill="white"/>
<path d="M0.509766 25.3507L0.6489 24.7187L2.70055 23.6929L1.36816 23.4052C1.22902 23.3698 1.13233 23.3698 1.08753 23.3957C1.02621 23.4311 0.990841 23.4924 0.974334 23.5797L0.957826 23.6575L0.896512 23.641L1.07102 22.8345L1.13233 22.851L1.11583 22.9288C1.09932 23.0255 1.10639 23.1033 1.16063 23.1575C1.19601 23.1929 1.27383 23.2189 1.39645 23.2542L3.35141 23.6834L3.3349 23.7447L1.13469 24.8578L2.56377 25.1738C2.7029 25.2092 2.79959 25.2092 2.8444 25.1832C2.90571 25.1479 2.94108 25.0866 2.95759 24.9993L2.9741 24.9215L3.03541 24.938L2.8609 25.7445L2.79959 25.728L2.8161 25.6502C2.84204 25.5535 2.82553 25.4757 2.77129 25.4214C2.73592 25.3861 2.6581 25.3601 2.53547 25.3247L0.922453 24.9663C0.825766 25.0182 0.764453 25.0535 0.729079 25.0795C0.693706 25.1054 0.658333 25.1573 0.62296 25.2186C0.606452 25.254 0.587587 25.2964 0.571079 25.3672L0.509766 25.3507Z" fill="white"/>
<path d="M1.30612 20.1015C1.32262 20.0496 1.358 20.0143 1.4028 19.9954C1.44761 19.9695 1.49949 19.9695 1.55137 19.986C1.60325 20.0025 1.63863 20.0379 1.65749 20.0827C1.68343 20.1275 1.68343 20.1793 1.66692 20.2312C1.65042 20.2831 1.61504 20.3185 1.57024 20.3373C1.52543 20.3633 1.47355 20.3633 1.42167 20.3468C1.36979 20.3303 1.33442 20.2949 1.31555 20.2501C1.28725 20.1959 1.28725 20.1534 1.30612 20.1015ZM4.22558 20.6085L4.2869 20.625L3.94496 21.5801L3.88364 21.5636L3.90958 21.4858C3.94496 21.3985 3.93552 21.3184 3.90015 21.257C3.87421 21.2217 3.79403 21.1792 3.66433 21.125L2.22582 20.6085C2.11263 20.5637 2.03245 20.5472 1.99707 20.5472C1.9617 20.5472 1.93576 20.5637 1.90039 20.592C1.85558 20.6274 1.82257 20.6793 1.8037 20.7312L1.77776 20.809L1.71645 20.7925L2.05839 19.8374L2.12206 19.8539L2.09612 19.9317C2.06075 20.019 2.07018 20.0992 2.10555 20.1605C2.13149 20.2053 2.21167 20.2477 2.34137 20.2925L3.77988 20.809C3.89308 20.8538 3.97326 20.8703 4.00863 20.8703C4.044 20.8703 4.06994 20.8538 4.10532 20.8255C4.15012 20.7901 4.17606 20.7477 4.202 20.6934L4.22558 20.6085Z" fill="white"/>
<path d="M4.00644 15.6208L4.06776 15.6468C4.04182 15.7246 4.04182 15.7954 4.05125 15.8472C4.07719 15.9251 4.12907 16.0147 4.20925 16.1114L5.62889 17.7597L5.60295 17.8211L3.3768 17.6819C3.26361 17.6725 3.19286 17.6725 3.15749 17.6819C3.11268 17.6914 3.07023 17.7079 3.03486 17.7432C2.99949 17.7692 2.95704 17.814 2.92167 17.8753L2.86035 17.8494L3.29898 16.991L3.36029 17.0169C3.31549 17.123 3.30841 17.1914 3.31549 17.2362C3.32492 17.281 3.35086 17.307 3.38623 17.3235C3.43811 17.3494 3.5348 17.3683 3.66686 17.3754L5.18319 17.472L4.21868 16.3495C4.122 16.2363 4.05125 16.175 4.0088 16.1491C3.98286 16.1326 3.93805 16.1326 3.90268 16.1491C3.85788 16.1656 3.81543 16.2104 3.76355 16.2717C3.76355 16.2811 3.75411 16.2811 3.74704 16.2977L3.68573 16.2717L4.00644 15.6208Z" fill="white"/>
<path d="M5.62878 13.3075L6.39991 13.8499L6.69705 13.4301C6.77487 13.3169 6.81024 13.2367 6.80316 13.1754C6.79373 13.0976 6.73242 13.008 6.62866 12.9302L6.66403 12.8783L7.33848 13.3523L7.30311 13.4042C7.19699 13.3523 7.1286 13.3264 7.09322 13.3169C7.04842 13.3075 7.00597 13.3169 6.95409 13.3429C6.90928 13.3688 6.8574 13.4207 6.79609 13.5009L6.49896 13.9206L7.13803 14.3687C7.22528 14.43 7.27717 14.4654 7.30546 14.4654C7.3314 14.4748 7.35027 14.4654 7.37621 14.4559C7.40215 14.4465 7.42809 14.4111 7.4729 14.3593L7.70164 14.0338C7.77946 13.9277 7.82427 13.8405 7.85021 13.7791C7.86672 13.7178 7.87615 13.6471 7.85964 13.5693C7.84314 13.4726 7.79833 13.3405 7.72051 13.2014L7.76532 13.1495L8.1332 13.6589L7.07436 15.1469L7.02248 15.1115L7.07436 15.0408C7.10973 14.996 7.12624 14.9441 7.13567 14.8922C7.14511 14.8474 7.13567 14.8144 7.10973 14.779C7.08379 14.7436 7.03191 14.7012 6.93522 14.6305L5.67358 13.7461C5.55095 13.6589 5.4637 13.6141 5.41889 13.6235C5.35758 13.6329 5.29627 13.6754 5.24439 13.7556L5.19251 13.8263L5.14062 13.7909L6.19239 12.3005L6.63102 12.5812L6.59564 12.633C6.48245 12.5812 6.39519 12.5552 6.34096 12.5552C6.28907 12.5552 6.22776 12.5647 6.17352 12.6C6.12872 12.626 6.07684 12.6873 6.00609 12.784L5.62878 13.3075Z" fill="white"/>
<path d="M11.0275 10.3362L10.5983 10.8007L9.23994 10.6262C9.20457 10.671 9.1692 10.7041 9.14325 10.7324C9.13382 10.7418 9.12675 10.7583 9.10788 10.7677C9.09845 10.7772 9.08194 10.7937 9.07251 10.8031L9.57245 11.2771C9.67857 11.3832 9.75639 11.4351 9.80827 11.4351C9.87902 11.4351 9.94033 11.4092 10.0016 11.3384L10.063 11.2677L10.1078 11.3125L9.41445 12.0482L9.36964 12.0034L9.43331 11.9398C9.50406 11.869 9.53 11.7912 9.51114 11.7204C9.5017 11.6756 9.44982 11.6073 9.3437 11.52L8.23063 10.4777C8.12451 10.3715 8.04669 10.3291 7.99481 10.3197C7.92406 10.3197 7.86275 10.3456 7.80143 10.4164L7.74012 10.4777L7.69531 10.4329L8.28251 9.80086C8.45701 9.61692 8.59851 9.49429 8.70227 9.43298C8.80839 9.37167 8.93102 9.34573 9.06072 9.35516C9.19278 9.36459 9.30597 9.40704 9.40266 9.50373C9.50878 9.60041 9.57009 9.72304 9.57717 9.86217C9.59367 10.0013 9.54179 10.1593 9.43803 10.3362L10.2705 10.4423C10.4639 10.4682 10.603 10.4682 10.6902 10.4423C10.7775 10.4164 10.8742 10.3645 10.9803 10.2749L11.0275 10.3362ZM8.98525 10.73C9.00176 10.7135 9.0112 10.7041 9.03006 10.6852C9.03949 10.6758 9.04657 10.6687 9.056 10.6593C9.214 10.4918 9.29182 10.3338 9.30125 10.1852C9.31069 10.0367 9.25645 9.90462 9.14325 9.80794C9.03714 9.70182 8.91451 9.65937 8.78481 9.65937C8.6551 9.65937 8.53955 9.72068 8.43343 9.83388C8.38863 9.88576 8.33675 9.9565 8.266 10.0532L8.98525 10.73Z" fill="white"/>
<path d="M12.0102 6.29419L12.5267 6.93327L12.4748 6.97807C12.3616 6.87195 12.246 6.79413 12.1493 6.75876C12.0527 6.72338 11.9395 6.71395 11.8333 6.73282C11.7202 6.74932 11.6235 6.79413 11.5433 6.86488C11.4466 6.9427 11.3947 7.03231 11.3759 7.13607C11.3593 7.24219 11.3853 7.33652 11.4466 7.40727C11.4914 7.45915 11.5527 7.49452 11.6305 7.51339C11.7437 7.53933 11.9465 7.52282 12.2531 7.46151C12.4984 7.4167 12.6729 7.39076 12.779 7.39076C12.8851 7.39076 12.9794 7.40727 13.069 7.44264C13.1563 7.47801 13.227 7.53933 13.2884 7.61007C13.4016 7.74921 13.4464 7.91664 13.4204 8.10058C13.3945 8.28452 13.2978 8.45196 13.1233 8.59109C13.0714 8.6359 13.0172 8.66891 12.9653 8.70428C12.9299 8.72079 12.8592 8.75616 12.7554 8.79154C12.6422 8.83634 12.5809 8.86228 12.555 8.88822C12.529 8.90473 12.5196 8.93303 12.5196 8.94954C12.5196 8.97548 12.529 9.01085 12.555 9.05566L12.5031 9.10046L11.9937 8.46846L12.0456 8.42366C12.1776 8.53685 12.2908 8.6076 12.3781 8.64297C12.4748 8.67834 12.5785 8.67834 12.6941 8.65948C12.8073 8.63354 12.9228 8.58873 13.0195 8.50148C13.1327 8.41422 13.194 8.3081 13.2129 8.19491C13.2294 8.08172 13.2035 7.98503 13.1422 7.90485C13.1068 7.86004 13.0549 7.82703 12.9936 7.79873C12.9323 7.77279 12.8545 7.76336 12.7743 7.76336C12.713 7.76336 12.5738 7.7893 12.3451 7.82467C12.1163 7.86948 11.9513 7.88598 11.8357 7.88598C11.7296 7.88598 11.6258 7.86948 11.5456 7.8341C11.4584 7.79873 11.3876 7.74685 11.3263 7.66667C11.2202 7.53461 11.1778 7.37661 11.2037 7.2021C11.2296 7.02759 11.3169 6.86959 11.4749 6.74697C11.5716 6.66915 11.6942 6.60783 11.8428 6.56303C11.9135 6.54652 11.956 6.52765 11.9748 6.51115C12.0008 6.49464 12.0102 6.46634 12.0196 6.4404C12.0196 6.41446 12.0102 6.37909 11.9843 6.3272L12.0102 6.29419Z" fill="white"/>
<path d="M16.1205 6.3199L16.1558 6.37178L15.2974 6.91417L15.2621 6.86229L15.3328 6.81749C15.4106 6.76561 15.4649 6.70429 15.4649 6.63355C15.4649 6.58874 15.4295 6.50149 15.3588 6.38829L14.5357 5.10071C14.4744 4.99459 14.4225 4.93328 14.3872 4.91677C14.3612 4.90026 14.3259 4.89083 14.2905 4.89083C14.2292 4.89083 14.1773 4.90733 14.1325 4.94271L14.0617 4.98751L14.0264 4.93563L14.8848 4.39324L14.9201 4.44513L14.8494 4.48993C14.7716 4.54181 14.7268 4.60313 14.7173 4.67387C14.7079 4.71868 14.7527 4.80593 14.8234 4.92856L15.6465 6.21614C15.7078 6.32226 15.7597 6.38358 15.795 6.40008C15.821 6.41659 15.8563 6.42602 15.9012 6.42602C15.9625 6.42602 16.0073 6.40952 16.0592 6.37414L16.1205 6.3199ZM14.1207 4.12912C14.1655 4.10318 14.2174 4.09375 14.2598 4.10318C14.3117 4.11262 14.3471 4.13856 14.3825 4.19044C14.4084 4.23524 14.4178 4.27769 14.4084 4.32957C14.399 4.38145 14.373 4.41683 14.3211 4.4522C14.2763 4.47814 14.2245 4.48757 14.182 4.47814C14.1301 4.46871 14.0948 4.44277 14.0594 4.39089C14.0334 4.34608 14.024 4.30363 14.0334 4.25175C14.0523 4.19987 14.0782 4.15507 14.1207 4.12912Z" fill="white"/>
<path d="M18.5572 2.43604L18.8213 2.92654L18.76 2.95248C18.7081 2.87466 18.6633 2.81335 18.6208 2.78505C18.5595 2.74024 18.4982 2.7143 18.4275 2.7143C18.3567 2.7143 18.2789 2.73081 18.1916 2.77562L17.8945 2.91475L18.6751 4.54428C18.7364 4.67634 18.7883 4.75416 18.8331 4.77302C18.8944 4.79896 18.9651 4.78953 19.0524 4.74708L19.1231 4.71171L19.1491 4.77302L18.2459 5.21165L18.2199 5.15034L18.2978 5.11496C18.385 5.07016 18.4369 5.00885 18.4463 4.94046C18.4558 4.89565 18.4298 4.81783 18.3685 4.6952L17.5974 3.06568L17.3427 3.18831C17.246 3.23311 17.1753 3.27556 17.1422 3.31093C17.0974 3.35574 17.0715 3.41705 17.055 3.49487C17.0456 3.57269 17.055 3.66231 17.0998 3.75899L17.0385 3.78493L16.8145 3.27792L18.5572 2.43604Z" fill="white"/>
<path d="M21.3115 1.53529L21.6015 2.42905L22.1015 2.27105C22.2335 2.22624 22.3114 2.18379 22.3373 2.13191C22.3821 2.06117 22.3821 1.96448 22.3467 1.83478L22.408 1.81827L22.6604 2.59412L22.5991 2.61063C22.5472 2.50451 22.5118 2.4432 22.4859 2.41726C22.4505 2.38188 22.408 2.36538 22.3538 2.35594C22.3019 2.34651 22.2312 2.35594 22.1345 2.39132L21.6346 2.54932L21.8704 3.29451C21.9057 3.3912 21.9223 3.45251 21.9411 3.46902C21.9576 3.48553 21.9765 3.50439 22.0024 3.50439C22.0284 3.51383 22.0732 3.50439 22.1345 3.48789L22.5212 3.36526C22.6533 3.32045 22.7406 3.28744 22.7924 3.25206C22.8443 3.21669 22.8891 3.16481 22.9245 3.09406C22.9693 3.00681 23.0118 2.87475 23.0377 2.71675L23.1084 2.70024L23.0919 3.33224L21.3469 3.8935L21.3303 3.83218L21.4082 3.80624C21.46 3.78974 21.5049 3.76144 21.5473 3.71899C21.5732 3.69305 21.5921 3.65768 21.5921 3.61287C21.5921 3.5775 21.5756 3.49968 21.5402 3.38412L21.0662 1.91967C21.0214 1.78054 20.979 1.69093 20.9342 1.66499C20.8823 1.62961 20.8021 1.62961 20.7148 1.66499L20.6347 1.69093L20.6182 1.62961L22.3632 1.06836L22.5472 1.54943L22.4859 1.56594C22.4246 1.45275 22.3727 1.382 22.3279 1.34663C22.2831 1.31126 22.2312 1.29475 22.1699 1.28531C22.118 1.28531 22.0378 1.30182 21.9246 1.3372L21.3115 1.53529Z" fill="white"/>
<path d="M26.6479 0.122559L26.7706 0.664947L26.7092 0.67438C26.6833 0.577693 26.6479 0.51638 26.622 0.481007C26.5772 0.419693 26.5159 0.374887 26.4546 0.35838C26.3838 0.341872 26.306 0.332439 26.2093 0.348947L25.8768 0.41026L26.1928 2.19071C26.2187 2.32985 26.2447 2.41946 26.2895 2.45483C26.3414 2.49964 26.4121 2.50671 26.4994 2.4902L26.5772 2.4737L26.5866 2.53501L25.5962 2.70952L25.5867 2.6482L25.6646 2.6317C25.7612 2.61519 25.832 2.57038 25.8579 2.50907C25.8744 2.46426 25.8744 2.38644 25.8485 2.25438L25.5325 0.473932L25.2519 0.525813C25.1458 0.54232 25.0679 0.570619 25.0231 0.587126C24.9712 0.6225 24.9264 0.664947 24.8911 0.735694C24.8557 0.80644 24.8463 0.893694 24.8557 0.999813L24.7944 1.00925L24.7236 0.457425L26.6479 0.122559Z" fill="white"/>
<path d="M39.0878 0.938617L39.1043 0.877303L39.9203 1.07775L39.9038 1.13906L39.8165 1.12256C39.7292 1.09662 39.6491 1.12256 39.5807 1.18387C39.5453 1.20981 39.5194 1.28999 39.484 1.41969L39.2482 2.34883C39.1869 2.57757 39.1255 2.75208 39.0477 2.86528C38.9699 2.97847 38.8543 3.06572 38.6963 3.1294C38.5383 3.19071 38.345 3.18128 38.1186 3.1294C37.8639 3.06808 37.6894 2.9714 37.5833 2.8582C37.4771 2.73557 37.4158 2.59408 37.3993 2.43844C37.3899 2.33232 37.4158 2.1413 37.4866 1.86068L37.7153 0.966915C37.7507 0.827781 37.7507 0.731094 37.7248 0.676855C37.6988 0.624974 37.6375 0.589601 37.5503 0.563661L37.463 0.547153L37.4795 0.48584L38.47 0.740527L38.4534 0.80184L38.3662 0.7759C38.2695 0.74996 38.1988 0.766467 38.1374 0.811273C38.1021 0.846646 38.0667 0.924467 38.0313 1.05653L37.7766 2.05641C37.7507 2.14366 37.7318 2.24978 37.7248 2.37241C37.7153 2.49504 37.7153 2.59172 37.7413 2.66247C37.7672 2.74029 37.8191 2.8016 37.8898 2.86292C37.9606 2.92423 38.0573 2.96904 38.1705 3.00205C38.319 3.03743 38.4605 3.03743 38.5997 3.00205C38.7317 2.96668 38.8355 2.90537 38.9062 2.80868C38.977 2.72143 39.0383 2.54456 39.0996 2.30874L39.3354 1.3796C39.3708 1.24047 39.3802 1.14378 39.3519 1.09898C39.3166 1.03766 39.2647 0.992855 39.1774 0.976348L39.0878 0.938617Z" fill="white"/>
<path d="M42.0845 1.79688L42.6717 2.05156L43.3037 4.25178L43.8461 2.99721C43.9074 2.86515 43.9239 2.76846 43.9074 2.72601C43.8909 2.6647 43.8367 2.61282 43.7494 2.57744L43.6716 2.54207L43.6975 2.48076L44.4592 2.80619L44.4333 2.8675L44.3555 2.83213C44.2588 2.78732 44.188 2.78732 44.1267 2.83213C44.0913 2.85807 44.0395 2.92882 43.9946 3.05144L43.2046 4.88378L43.1433 4.85784L42.4595 2.49019L41.8817 3.83201C41.8204 3.96407 41.8039 4.05133 41.8204 4.10321C41.8369 4.16452 41.8911 4.2164 41.9784 4.25178L42.0562 4.28715L42.0303 4.34846L41.2686 4.02303L41.2945 3.96171L41.3723 3.99709C41.469 4.04189 41.5397 4.04189 41.6081 3.99709C41.6435 3.97115 41.6954 3.9004 41.7402 3.77777L42.3887 2.26144C42.3533 2.16476 42.3274 2.09401 42.3109 2.05156C42.2849 2.01619 42.2496 1.97374 42.1977 1.9195C42.1718 1.89356 42.1269 1.8747 42.0656 1.84168L42.0845 1.79688Z" fill="white"/>
<path d="M46.2401 6.44257L46.2047 6.49445L45.3369 5.978L45.3723 5.92612L45.443 5.97093C45.5303 6.02281 45.601 6.03224 45.6718 6.0063C45.7166 5.98979 45.7779 5.91905 45.8463 5.79642L46.6363 4.48054C46.6976 4.37442 46.733 4.30603 46.7424 4.26122C46.7518 4.22585 46.7424 4.19991 46.7165 4.1551C46.6905 4.10322 46.6457 4.06785 46.6033 4.03248L46.5325 3.98767L46.5679 3.93579L47.4357 4.45224L47.4004 4.50412L47.3296 4.45931C47.2518 4.40743 47.1716 4.398 47.1009 4.42394C47.0561 4.44045 46.9947 4.51119 46.9264 4.63382L46.1363 5.9497C46.075 6.05582 46.0397 6.12421 46.0302 6.16902C46.0208 6.20439 46.0302 6.23033 46.0562 6.27514C46.0821 6.32702 46.1269 6.36239 46.1694 6.38833L46.2401 6.44257Z" fill="white"/>
<path d="M51.3594 7.32929L51.3146 7.38117C51.2368 7.33636 51.1755 7.31985 51.1142 7.32929C51.0269 7.33872 50.9302 7.37409 50.8241 7.43541L48.921 8.4966L48.8691 8.4518L49.4469 6.30346C49.4728 6.19027 49.4917 6.11952 49.4917 6.09358C49.4917 6.04878 49.4823 6.00633 49.4563 5.96152C49.4398 5.91672 49.395 5.87427 49.3431 5.82239L49.3879 5.77051L50.1426 6.37421L50.0978 6.42609C50.0011 6.36478 49.9398 6.33884 49.8973 6.33884C49.8549 6.33884 49.8195 6.35535 49.7912 6.39072C49.7558 6.43552 49.7205 6.52278 49.6851 6.65484L49.2913 8.11929L50.5788 7.3906C50.7109 7.31985 50.7887 7.25854 50.8147 7.22317C50.8312 7.19723 50.8406 7.16185 50.8312 7.11705C50.8217 7.07224 50.7958 7.02036 50.7345 6.95905C50.7345 6.94962 50.7251 6.94961 50.718 6.93311L50.7628 6.88123L51.3594 7.32929Z" fill="white"/>
<path d="M53.4627 9.53666L52.7788 10.1757L53.1372 10.5531C53.2339 10.6497 53.3047 10.7016 53.366 10.7111C53.4438 10.7205 53.5405 10.6757 53.6466 10.5884L53.6914 10.6332L53.0877 11.1945L53.0429 11.1497C53.1136 11.0624 53.1561 11.0011 53.175 10.9657C53.1915 10.9209 53.1915 10.8785 53.175 10.8266C53.1585 10.7747 53.1136 10.7134 53.0523 10.6427L52.6939 10.2654L52.1232 10.8007C52.0454 10.8714 52.0006 10.9139 51.9911 10.9398C51.9817 10.9657 51.9817 10.9846 51.9817 11.0105C51.9911 11.0365 52.0171 11.0719 52.0595 11.1237L52.3307 11.4209C52.418 11.5176 52.4982 11.5883 52.55 11.6142C52.6019 11.6496 52.6727 11.6661 52.7505 11.6661C52.8566 11.6661 52.9863 11.6496 53.1443 11.6048L53.1891 11.6567L52.6113 11.9114L51.3662 10.5696L51.411 10.5248L51.4723 10.5861C51.5077 10.6309 51.5596 10.6568 51.6115 10.6733C51.6468 10.6898 51.6893 10.6898 51.7247 10.6733C51.76 10.6568 51.8213 10.612 51.9086 10.5342L53.0405 9.48242C53.1537 9.3763 53.208 9.30792 53.215 9.26311C53.2245 9.2018 53.1891 9.13105 53.1278 9.06266L53.0665 9.00135L53.1113 8.95654L54.3564 10.2889L53.998 10.6568L53.9532 10.6049C54.0239 10.4988 54.0758 10.421 54.0852 10.3691C54.1017 10.3172 54.0947 10.2559 54.0758 10.2017C54.0593 10.1569 54.005 10.0885 53.9272 10.0012L53.4627 9.53666Z" fill="white"/>
<path d="M55.3824 15.5949L55.024 15.0785L55.4791 13.7909C55.4437 13.7461 55.4178 13.7036 55.3919 13.6777C55.3824 13.6682 55.3754 13.6517 55.3659 13.6329C55.3565 13.6164 55.3494 13.6069 55.34 13.5881L54.7693 13.9819C54.6467 14.0691 54.5759 14.1305 54.5688 14.1823C54.5523 14.2436 54.5688 14.3144 54.6207 14.3922L54.6726 14.47L54.6207 14.5054L54.043 13.673L54.0948 13.6376L54.1467 13.7083C54.1986 13.7862 54.2694 13.831 54.3472 13.831C54.392 13.831 54.4698 13.7956 54.583 13.7178L55.8446 12.8499C55.9673 12.7627 56.038 12.7014 56.0451 12.6495C56.0616 12.5787 56.0451 12.5104 55.9932 12.4396L55.9413 12.3689L55.9932 12.3335L56.4837 13.0433C56.6228 13.2532 56.7195 13.4112 56.7549 13.5338C56.7903 13.6565 56.7903 13.7696 56.7643 13.9017C56.729 14.0243 56.6582 14.1305 56.545 14.1988C56.4224 14.2767 56.2903 14.312 56.1512 14.2955C56.0121 14.279 55.8611 14.1988 55.7126 14.0597L55.432 14.8497C55.3706 15.0336 55.3353 15.1657 55.3353 15.2624C55.3353 15.3591 55.3706 15.4628 55.432 15.5784L55.3824 15.5949ZM55.4343 13.5173C55.4437 13.5338 55.4603 13.5527 55.4697 13.5621C55.4791 13.5786 55.4862 13.5881 55.4956 13.5975C55.6277 13.7814 55.7597 13.8946 55.9083 13.93C56.0569 13.9654 56.1889 13.9465 56.3116 13.8593C56.4342 13.772 56.5049 13.6659 56.5309 13.5433C56.5568 13.4112 56.5214 13.2886 56.4342 13.1565C56.3988 13.1046 56.3375 13.0339 56.2503 12.9466L55.4343 13.5173Z" fill="white"/>
<path d="M59.2312 17.6276L58.4955 17.9861L58.4695 17.9248C58.6016 17.8375 58.6983 17.7503 58.7596 17.6536C58.8209 17.5663 58.8468 17.4602 58.8563 17.347C58.8657 17.2338 58.8398 17.1277 58.795 17.031C58.7431 16.9249 58.6629 16.8471 58.5591 16.8117C58.453 16.7763 58.3658 16.7763 58.2785 16.8211C58.2172 16.8565 58.1653 16.9084 58.1394 16.9791C58.0946 17.0852 58.0686 17.2857 58.0521 17.5923C58.0427 17.8469 58.0262 18.0215 58.0073 18.1181C57.9908 18.2148 57.946 18.3115 57.8847 18.3823C57.8234 18.4601 57.7526 18.5214 57.6748 18.5568C57.5168 18.6346 57.3423 18.644 57.1654 18.5733C56.9909 18.5025 56.8494 18.3728 56.7527 18.1795C56.7268 18.1181 56.7009 18.0568 56.682 17.9955C56.6726 17.9601 56.6561 17.8823 56.6372 17.7668C56.6183 17.6512 56.6018 17.5734 56.5924 17.5475C56.5829 17.5215 56.557 17.5026 56.5405 17.4956C56.5146 17.4861 56.4792 17.4956 56.4273 17.5121L56.4014 17.4508L57.1301 17.0923L57.156 17.1536C57.0169 17.2597 56.9202 17.347 56.8659 17.4343C56.8141 17.5121 56.7881 17.6182 56.7787 17.7408C56.7787 17.8635 56.8046 17.9766 56.8565 18.0922C56.9178 18.2243 57.0051 18.3115 57.1112 18.3469C57.2173 18.3917 57.3211 18.3823 57.4083 18.3375C57.4602 18.3115 57.505 18.2667 57.5475 18.2148C57.5828 18.1629 57.6182 18.0922 57.6253 18.0049C57.6347 17.9531 57.6512 17.8045 57.6607 17.5757C57.6701 17.347 57.6866 17.1725 57.7125 17.0664C57.7385 16.9603 57.7738 16.8659 57.8257 16.7952C57.8776 16.7174 57.9484 16.6631 58.0356 16.6207C58.1842 16.5429 58.3516 16.5429 58.5167 16.6042C58.6841 16.6655 58.8138 16.7881 58.9034 16.972C58.9553 17.0852 58.9907 17.2173 59.0001 17.3753C59.0001 17.446 59.0096 17.4979 59.0166 17.5144C59.0331 17.5404 59.052 17.5592 59.0779 17.5663C59.1039 17.5757 59.1393 17.5757 59.2006 17.5569L59.2312 17.6276Z" fill="white"/>
<path d="M58.3635 21.8183L58.3022 21.8348L57.9697 20.8797L58.031 20.8632L58.057 20.941C58.0924 21.0377 58.1348 21.0896 58.2055 21.1155C58.2504 21.132 58.3376 21.1155 58.4767 21.0636L59.9223 20.5543C60.0355 20.5094 60.1063 20.4835 60.1416 20.4576C60.1676 20.4411 60.1864 20.4057 60.1864 20.3609C60.1959 20.2996 60.1959 20.2477 60.1699 20.1934L60.144 20.1156L60.2053 20.0991L60.5378 21.0542L60.4765 21.0707L60.4506 20.9929C60.4152 20.9056 60.3727 20.8443 60.302 20.8184C60.2572 20.8019 60.1699 20.8184 60.0308 20.8632L58.5852 21.3726C58.472 21.4174 58.4013 21.4433 58.3659 21.4692C58.34 21.4857 58.3305 21.5211 58.3211 21.5659C58.3117 21.6178 58.3117 21.6791 58.3305 21.7334L58.3635 21.8183Z" fill="white"/>
<path d="M61.634 25.2989L61.0987 25.4381L61.0822 25.3767C61.1789 25.3414 61.2402 25.3154 61.2756 25.2801C61.3369 25.2282 61.3723 25.1739 61.3888 25.1055C61.4053 25.0442 61.4053 24.957 61.3888 24.8603L61.318 24.5349L59.547 24.9122C59.4079 24.9381 59.3183 24.9735 59.2923 25.0183C59.257 25.0702 59.2405 25.1409 59.2664 25.2376L59.2829 25.3154L59.2216 25.3319L59.0117 24.3509L59.073 24.3344L59.0895 24.4122C59.106 24.5089 59.1509 24.5702 59.2216 24.6056C59.2664 24.6221 59.3537 24.615 59.4763 24.5891L61.2473 24.2118L61.186 23.9312C61.16 23.825 61.1412 23.7472 61.1152 23.7024C61.0799 23.6505 61.028 23.6057 60.9572 23.5798C60.8865 23.5538 60.7992 23.5444 60.6931 23.5538L60.6766 23.4925L61.2284 23.4053L61.634 25.2989Z" fill="white"/>
<path d="M62.071 29.3574L62.1229 30.1804H62.0616V30.1356C62.0616 30.1096 62.0451 30.0648 62.0168 30.0035C61.9908 29.9516 61.946 29.8974 61.8941 29.8549C61.8422 29.8101 61.755 29.7583 61.6394 29.6969L60.7103 29.1805L60.1137 29.2159C59.9651 29.2253 59.8778 29.2418 59.8425 29.2772C59.7977 29.322 59.7717 29.3904 59.7812 29.4871L59.7906 29.5649H59.7293L59.668 28.565H59.7293L59.7387 28.6523C59.7481 28.7489 59.7835 28.8197 59.8448 28.8621C59.8802 28.8881 59.9675 28.8975 60.0995 28.8881L60.6608 28.8527L61.6159 28.1429C61.7291 28.0556 61.7998 28.0037 61.8257 27.9754C61.8517 27.9472 61.8871 27.8882 61.9224 27.8009C61.9319 27.775 61.9389 27.7396 61.9319 27.6948H61.9932L62.0545 28.7018H61.9932V28.6499C61.9932 28.598 61.9767 28.5438 61.9484 28.5013C61.9224 28.4565 61.8776 28.44 61.8257 28.44C61.7809 28.44 61.7125 28.4848 61.6064 28.5626L60.8707 29.098L61.6253 29.5177C61.7385 29.579 61.8187 29.6144 61.88 29.605C61.9154 29.605 61.9413 29.5955 61.9672 29.579C61.9932 29.5625 62.012 29.5342 62.0191 29.5012C62.0285 29.4658 62.0356 29.4234 62.0356 29.3621L62.071 29.3574Z" fill="white"/>
<path d="M62.0705 32.074H0V33.7318H62.0705V32.074Z" fill="white"/>
<path d="M58.9935 34.2036H3.08496V35.8614H58.9935V34.2036Z" fill="white"/>
<path d="M56.1889 36.281H5.89062V37.9388H56.1889V36.281Z" fill="white"/>
<path d="M53.2535 38.3423H8.82715V40.0001H53.2535V38.3423Z" fill="white"/>
<path d="M32.8117 0.657941V0.271194H32.4249L32.1537 0L31.8825 0.271194H31.4958V0.657941L31.2246 0.929136L31.4958 1.20033V1.58708H31.8825L32.1537 1.85827L32.4249 1.58708H32.8117V1.20033L33.0829 0.929136L32.8117 0.657941ZM32.5994 1.11308V1.3772H32.3353L32.1514 1.56114L31.9674 1.3772H31.7033V1.11308L31.5194 0.929136L31.7033 0.745195V0.481075H31.9674L32.1514 0.297135L32.3353 0.481075H32.5994V0.745195L32.7834 0.929136L32.5994 1.11308Z" fill="white"/>
</g>
<defs>
<clipPath id="clip0">
<rect width="62.1248" height="40" fill="white"/>
</clipPath>
</defs>
</svg>
