<svg width="96" height="96" viewBox="0 0 96 96" fill="none" xmlns="http://www.w3.org/2000/svg">
<path d="M79.5 43.5C85.6875 43.5 90.75 38.5781 90.75 32.25C90.75 26.0625 85.6875 21 79.5 21C73.1719 21 68.25 26.0625 68.25 32.25C68.25 38.5781 73.1719 43.5 79.5 43.5ZM79.5 25.5C83.1562 25.5 86.25 28.5938 86.25 32.25C86.25 36.0469 83.1562 39 79.5 39C75.7031 39 72.75 36.0469 72.75 32.25C72.75 28.5938 75.7031 25.5 79.5 25.5ZM48 48C56.5781 48 63.75 40.9688 63.75 32.25C63.75 23.6719 56.5781 16.5 48 16.5C39.2812 16.5 32.25 23.6719 32.25 32.25C32.25 40.9688 39.2812 48 48 48ZM48 21C54.1875 21 59.25 26.0625 59.25 32.25C59.25 38.5781 54.1875 43.5 48 43.5C41.6719 43.5 36.75 38.5781 36.75 32.25C36.75 26.0625 41.6719 21 48 21ZM82.3125 48H76.6875C74.4375 48 72.4688 48.7031 70.7812 49.8281C72.1875 50.8125 73.3125 51.7969 74.4375 53.0625C75.1406 52.7812 75.8438 52.5 76.6875 52.5H82.3125C85.6875 52.5 88.5 55.5938 88.5 59.25C88.5 60.5156 89.4844 61.5 90.75 61.5C91.875 61.5 93 60.5156 93 59.25C93 53.0625 88.0781 48 82.3125 48ZM16.5 43.5C22.6875 43.5 27.75 38.5781 27.75 32.25C27.75 26.0625 22.6875 21 16.5 21C10.1719 21 5.25 26.0625 5.25 32.25C5.25 38.5781 10.1719 43.5 16.5 43.5ZM16.5 25.5C20.1562 25.5 23.25 28.5938 23.25 32.25C23.25 36.0469 20.1562 39 16.5 39C12.7031 39 9.75 36.0469 9.75 32.25C9.75 28.5938 12.7031 25.5 16.5 25.5ZM59.25 50.8125C54.4688 50.8125 53.3438 52.5 48 52.5C42.5156 52.5 41.3906 50.8125 36.6094 50.8125C31.5469 50.8125 26.625 53.2031 23.6719 57.4219C21.9844 60.0938 21 63.1875 21 66.5625V72.75C21 76.5469 23.9531 79.5 27.75 79.5H68.25C71.9062 79.5 75 76.5469 75 72.75V66.5625C75 63.1875 73.875 60.0938 72.1875 57.4219C69.2344 53.2031 64.3125 50.8125 59.25 50.8125ZM70.5 72.75C70.5 74.0156 69.375 75 68.25 75H27.75C26.4844 75 25.5 74.0156 25.5 72.75V66.5625C25.5 64.1719 26.0625 61.9219 27.4688 59.9531C29.2969 57.1406 32.8125 55.3125 36.6094 55.3125C40.5469 55.3125 41.9531 57 48 57C54.0469 57 55.3125 55.3125 59.25 55.3125C63.0469 55.3125 66.5625 57.1406 68.3906 59.9531C69.7969 61.9219 70.3594 64.1719 70.3594 66.5625V72.75H70.5ZM25.0781 49.8281C23.3906 48.7031 21.4219 48 19.3125 48H13.6875C7.78125 48 3 53.0625 3 59.25C3 60.5156 3.98438 61.5 5.25 61.5C6.375 61.5 7.5 60.5156 7.5 59.25C7.5 55.5938 10.1719 52.5 13.6875 52.5H19.3125C20.0156 52.5 20.7188 52.7812 21.4219 53.0625C22.5469 51.7969 23.6719 50.8125 25.0781 49.8281Z" fill="white"/>
</svg>
