<svg width="60" height="60" viewBox="0 0 60 60" fill="none" xmlns="http://www.w3.org/2000/svg">
<g clip-path="url(#clip0)">
<g filter="url(#filter0_d)">
<path fill-rule="evenodd" clip-rule="evenodd" d="M30 60C46.5685 60 60 46.5685 60 30C60 13.4315 46.5685 0 30 0C13.4315 0 0 13.4315 0 30C0 46.5685 13.4315 60 30 60Z" fill="url(#paint0_linear)"/>
<path d="M59.5 30C59.5 46.2924 46.2924 59.5 30 59.5C13.7076 59.5 0.5 46.2924 0.5 30C0.5 13.7076 13.7076 0.5 30 0.5C46.2924 0.5 59.5 13.7076 59.5 30Z" stroke="url(#paint1_linear)"/>
</g>
<path d="M39.75 18.25H20.25C18.4219 18.25 17 19.7227 17 21.5V36.125C17 37.9531 18.4219 39.375 20.25 39.375H25.125V43.6406C25.125 44.1484 25.6836 44.4531 26.0898 44.1484L32.4375 39.375H39.75C41.5273 39.375 43 37.9531 43 36.125V21.5C43 19.7227 41.5273 18.25 39.75 18.25ZM23.5 30.4375C22.5859 30.4375 21.875 29.7266 21.875 28.8125C21.875 27.9492 22.5859 27.1875 23.5 27.1875C24.3633 27.1875 25.125 27.9492 25.125 28.8125C25.125 29.7266 24.3633 30.4375 23.5 30.4375ZM30 30.4375C29.0859 30.4375 28.375 29.7266 28.375 28.8125C28.375 27.9492 29.0859 27.1875 30 27.1875C30.8633 27.1875 31.625 27.9492 31.625 28.8125C31.625 29.7266 30.8633 30.4375 30 30.4375ZM36.5 30.4375C35.5859 30.4375 34.875 29.7266 34.875 28.8125C34.875 27.9492 35.5859 27.1875 36.5 27.1875C37.3633 27.1875 38.125 27.9492 38.125 28.8125C38.125 29.7266 37.3633 30.4375 36.5 30.4375Z" fill="#434343"/>
</g>
<defs>
<filter id="filter0_d" x="-60" y="-80" width="260" height="260" filterUnits="userSpaceOnUse" color-interpolation-filters="sRGB">
<feFlood flood-opacity="0" result="BackgroundImageFix"/>
<feColorMatrix in="SourceAlpha" type="matrix" values="0 0 0 0 0 0 0 0 0 0 0 0 0 0 0 0 0 0 127 0"/>
<feOffset dx="40" dy="20"/>
<feGaussianBlur stdDeviation="50"/>
<feColorMatrix type="matrix" values="0 0 0 0 0 0 0 0 0 0 0 0 0 0 0 0 0 0 0.1 0"/>
<feBlend mode="normal" in2="BackgroundImageFix" result="effect1_dropShadow"/>
<feBlend mode="normal" in="SourceGraphic" in2="effect1_dropShadow" result="shape"/>
</filter>
<linearGradient id="paint0_linear" x1="4.91803" y1="2.12264" x2="24.2109" y2="61.8694" gradientUnits="userSpaceOnUse">
<stop stop-color="white" stop-opacity="0.7"/>
<stop offset="1" stop-color="white" stop-opacity="0.7"/>
</linearGradient>
<linearGradient id="paint1_linear" x1="4.09836" y1="2.05189" x2="20.5534" y2="61.4143" gradientUnits="userSpaceOnUse">
<stop stop-color="white" stop-opacity="0.6"/>
<stop offset="1" stop-color="white" stop-opacity="0.5"/>
</linearGradient>
<clipPath id="clip0">
<rect width="60" height="60" fill="white"/>
</clipPath>
</defs>
</svg>
