<svg width="32" height="32" viewBox="0 0 32 32" fill="none" xmlns="http://www.w3.org/2000/svg">
<rect width="32" height="32" fill="white" fill-opacity="0.01"/>
<path d="M28.5469 9.53125C28.6875 8.96875 28.5469 8.5 27.7031 8.5H24.9375C24.2344 8.5 23.9062 8.875 23.7188 9.29688C23.7188 9.29688 22.3125 12.7188 20.3438 14.9688C19.6875 15.5781 19.4062 15.8125 19.0312 15.8125C18.8906 15.8125 18.6094 15.5781 18.6094 15.0156V9.53125C18.6094 8.82812 18.4219 8.5 17.8125 8.5H13.5C13.0312 8.5 12.7969 8.82812 12.7969 9.15625C12.7969 9.8125 13.7812 9.95312 13.875 11.8281V15.9062C13.875 16.7969 13.7344 16.9844 13.3594 16.9844C12.4219 16.9844 10.1719 13.5156 8.8125 9.57812C8.53125 8.82812 8.25 8.5 7.54688 8.5H4.78125C4.03125 8.5 3.84375 8.875 3.84375 9.29688C3.84375 10.0469 4.78125 13.6562 8.20312 18.4844C10.5 21.7656 13.7344 23.5 16.6406 23.5C18.375 23.5 18.6094 23.125 18.6094 22.4688C18.6094 19.3281 18.4688 19 19.3125 19C19.7344 19 20.4375 19.2344 22.0781 20.8281C23.9531 22.7031 24.2812 23.5 25.3125 23.5H28.0781C28.875 23.5 29.25 23.125 29.0156 22.3281C28.5 20.7344 24.9844 17.3594 24.7969 17.125C24.375 16.6094 24.5156 16.375 24.7969 15.9062C24.7969 15.9062 28.1719 11.125 28.5469 9.53125Z" fill="#5181B8"/>
</svg>
